<svg width="40" height="40" viewBox="0 0 40 40" fill="none" xmlns="http://www.w3.org/2000/svg">
<path d="M6 7.48438C6 3.35156 9.35156 0 13.4844 0H26.3281C30.4609 0 33.8125 3.35156 33.8125 7.48438C33.8125 10.1016 32.4688 12.4062 30.4297 13.7422C32.4688 15.0781 33.8125 17.3828 33.8125 20C33.8125 24.1328 30.4609 27.4844 26.3281 27.4844H26.1641C24.2266 27.4844 22.4609 26.75 21.1328 25.5391V32.4375C21.1328 36.625 17.6953 40 13.5234 40C9.39844 40 6 36.6563 6 32.5156C6 29.8984 7.34375 27.5938 9.375 26.2578C7.34375 24.9219 6 22.6172 6 20C6 17.3828 7.34375 15.0781 9.375 13.7422C7.34375 12.4062 6 10.1016 6 7.48438ZM18.6797 14.9688H13.4844C10.7031 14.9688 8.45313 17.2188 8.45313 20C8.45313 22.7656 10.6875 25.0156 13.4531 25.0312C13.4609 25.0312 13.4766 25.0312 13.4844 25.0312H18.6797V14.9688ZM21.1328 20C21.1328 22.7812 23.3828 25.0312 26.1641 25.0312H26.3281C29.1016 25.0312 31.3594 22.7812 31.3594 20C31.3594 17.2188 29.1016 14.9688 26.3281 14.9688H26.1641C23.3828 14.9688 21.1328 17.2188 21.1328 20ZM13.4844 27.4844C13.4766 27.4844 13.4609 27.4844 13.4531 27.4844C10.6875 27.5 8.45313 29.75 8.45313 32.5156C8.45313 35.2891 10.7344 37.5469 13.5234 37.5469C16.3594 37.5469 18.6797 35.25 18.6797 32.4375V27.4844H13.4844ZM13.4844 2.45312C10.7031 2.45312 8.45313 4.70313 8.45313 7.48438C8.45313 10.2656 10.7031 12.5156 13.4844 12.5156H18.6797V2.45312H13.4844ZM21.1328 12.5156H26.3281C29.1016 12.5156 31.3594 10.2656 31.3594 7.48438C31.3594 4.70313 29.1016 2.45312 26.3281 2.45312H21.1328V12.5156Z" fill="#222222"/>
</svg>
