<svg width="40" height="40" viewBox="0 0 40 40" fill="none" xmlns="http://www.w3.org/2000/svg">
<g clip-path="url(#clip0_2725_10231)">
<path d="M23.6038 5.77518C22.8769 4.63099 23.1094 3.87641 23.5106 3.09742C23.8697 2.4001 24.0164 1.18826 22.7475 0.23453C23.9158 -0.195491 25.7594 0.564828 25.7912 1.9576C25.1132 2.89046 23.2613 3.26114 23.6038 5.77518ZM31.9922 31.4872C31.425 33.3258 31.6836 34.3041 29.2167 38.1215C33.5784 35.1771 35.6362 31.3755 36.3154 27.0609C36.7418 28.86 36.7821 30.492 36.6146 32.034C40.229 27.2756 42.7055 17.6803 34.3756 8.03486C34.0406 12.2983 29.9172 15.6553 25.1618 14.339C33.3154 13.4402 33.838 3.07225 26.8333 0.678193C26.9701 3.5626 23.0347 2.61809 24.192 6.47681C20.1836 4.20893 11.4257 3.74283 7.94408 7.18355C6.14922 8.9573 4.92406 10.4243 2.6809 10.5212C0.828735 10.6012 -1.617 13.6066 1.56515 15.1437C1.86908 16.4245 2.93716 17.1539 3.55649 17.2795C3.40246 19.5604 3.88765 18.3975 4.59861 17.4033C4.35972 20.2865 4.7534 19.2479 5.86769 17.7645C15.295 15.8579 20.5014 23.5459 20.5602 28.268C20.5188 27.4112 19.1492 26.4149 18.4244 26.6893C17.9348 27.7268 17.4012 28.6074 16.7426 29.0418C16.8115 28.3539 16.7645 27.6661 16.6395 26.9782C16.4224 27.81 16.0135 28.6738 15.3601 29.5783C14.0603 29.6509 12.2411 28.6841 12.7703 27.0814C13.5167 25.5228 12.0526 25.1988 10.873 25.645C9.9867 25.9803 9.38776 26.9089 9.30581 27.1976C9.01016 28.2391 9.10746 30.5643 11.1297 32.1062C10.5996 32.2038 10.0553 32.2909 9.68528 32.5086C13.1253 34.5891 16.6366 33.8861 18.592 33.1011C21.7934 31.8157 24.0014 28.2578 24.3469 25.5131C25.2355 29.3736 23.6435 33.6641 20.0751 35.9651C21.0946 36.0731 23.0902 35.3824 25.1309 34.6548C23.5882 36.5962 21.7442 38.4371 18.7235 39.8859C24.6733 39.3875 29.0254 36.4001 31.9922 31.4872Z" fill="#222222"/>
</g>
<defs>
<clipPath id="clip0_2725_10231">
<rect width="40" height="40" fill="white"/>
</clipPath>
</defs>
</svg>
