<svg width="70" height="71" viewBox="0 0 70 71" fill="none" xmlns="http://www.w3.org/2000/svg">
<path d="M54.9336 54.7081C54.9336 58.5141 46.1289 61.5808 35.2734 61.5808C24.418 61.5808 15.6133 58.4867 15.6133 54.7081C15.6133 50.902 24.418 47.8353 35.2734 47.8353C46.1289 47.8353 54.9336 50.902 54.9336 54.7081Z" fill="#9EDCF2"/>
<mask id="mask0_2772_19026" style="mask-type:luminance" maskUnits="userSpaceOnUse" x="24" y="52" width="22" height="19">
<path d="M26.8241 67.0297C27.2616 69.0833 28.328 70.2881 29.3944 71H40.6327C41.9999 70.069 43.3944 68.3166 43.3944 65.0308V56.5426C43.3944 56.5426 43.5585 54.4342 45.4999 53.7497C45.4999 53.7497 46.621 52.9556 45.4179 52.5175C45.4179 52.5175 40.0858 52.0794 40.0858 56.4605V62.9225C40.0858 62.9225 40.3046 65.3047 39.0468 66.2904V58.295C39.0468 58.295 39.1288 55.7485 40.4413 54.7902C40.4413 54.7902 41.3163 53.2295 39.4022 53.6402C39.4022 53.6402 35.7382 54.1604 35.5741 58.4593L35.4921 66.6737H34.6171L34.535 58.4593C34.371 54.1878 30.7069 53.6402 30.7069 53.6402C28.7929 53.2021 29.6679 54.7902 29.6679 54.7902C30.9804 55.7485 31.0624 58.295 31.0624 58.295V66.3725C29.8046 65.4689 30.0233 62.9225 30.0233 62.9225V56.4605C30.0233 52.0794 24.6913 52.5175 24.6913 52.5175C23.4608 52.9556 24.6093 53.7497 24.6093 53.7497C26.5233 54.4616 26.7147 56.5426 26.7147 56.5426V62.4844L26.8241 67.0297Z" fill="white"/>
</mask>
<g mask="url(#mask0_2772_19026)">
<path d="M54.9336 54.7081C54.9336 58.5141 46.1289 61.5808 35.2734 61.5808C24.418 61.5808 15.6133 58.4867 15.6133 54.7081C15.6133 50.902 24.418 47.8353 35.2734 47.8353C46.1289 47.8353 54.9336 50.902 54.9336 54.7081Z" fill="#7DBCE7"/>
</g>
<path d="M12.8243 34.4731L12.2501 36.4446C12.2501 36.4446 12.1134 37.1565 12.7696 37.2934C13.4806 37.266 13.4259 36.6089 13.3712 36.4172L12.8243 34.4731Z" fill="#9EDCF2"/>
<path d="M69.9453 26.1765L70 25.9301C64.2305 24.7801 58.3242 24.7527 54.7422 24.917C55.3164 22.8086 55.5078 20.3443 55.5078 17.6335C55.5078 13.718 54.0313 10.5965 51.6797 8.24169C52.0898 6.9 52.6367 3.91542 51.1328 0.109408C51.1328 0.109408 48.4531 -0.739415 42.3555 3.34041C39.9766 2.73802 37.4336 2.43683 34.8906 2.43683C32.1016 2.43683 29.2852 2.79279 26.6328 3.5047C20.3438 -0.794178 17.582 0.0820269 17.582 0.0820269C15.7773 4.59996 16.8984 7.96787 17.2266 8.78932C15.0937 11.0894 13.8086 14.0192 13.8086 17.6061C13.8086 20.3169 14.1094 22.7538 14.875 24.8622C11.2656 24.7253 5.57812 24.7801 0 25.9027L0.0546875 26.1491C5.63281 25.0265 11.375 24.9991 14.957 25.136C15.1211 25.5741 15.3125 26.0122 15.5039 26.4229C11.9492 26.5325 5.90625 26.998 0.109375 28.6408L0.191406 28.8873C6.04297 27.2444 12.1406 26.8063 15.668 26.6968C17.8008 30.6397 21.957 33.2135 29.3945 34.0076C28.3281 34.7195 27.2617 35.9243 26.8242 37.9779C25.375 38.6624 20.8359 40.3601 18.1016 35.6505C18.1016 35.6505 16.5703 32.8576 13.6445 32.6385C13.6445 32.6385 10.8008 32.5838 13.4531 34.4183C13.4531 34.4183 15.3398 35.3219 16.6523 38.6898C16.6523 38.6898 18.375 44.4399 26.6055 42.578V48.465C26.6055 48.465 26.4414 50.5733 24.5 51.2579C24.5 51.2579 23.3516 52.0519 24.582 52.49C24.582 52.49 29.9141 52.9282 29.9141 48.5471V42.0851C29.9141 42.0851 29.6953 39.5113 30.9531 38.6351V49.259C30.9531 49.259 30.8711 51.8055 29.5586 52.7639C29.5586 52.7639 28.6836 54.3246 30.5977 53.9139C30.5977 53.9139 34.2617 53.3936 34.4258 49.0948L34.5078 38.3339H35.3828L35.4648 49.0948C35.6289 53.3663 39.293 53.9139 39.293 53.9139C41.207 54.352 40.332 52.7639 40.332 52.7639C39.0195 51.8055 38.9375 49.259 38.9375 49.259V38.7172C40.1953 39.7029 39.9766 42.0851 39.9766 42.0851V48.5471C39.9766 52.9282 45.3086 52.49 45.3086 52.49C46.5391 52.0519 45.3906 51.2579 45.3906 51.2579C43.4766 50.546 43.2852 48.465 43.2852 48.465V39.9767C43.2852 36.6636 41.8906 34.9112 40.5234 34.0076C48.4531 33.2135 52.2539 30.6671 54.0039 26.6694C57.4766 26.7515 63.7383 27.1896 69.6992 28.8873L69.7812 28.6408C63.8477 26.9706 57.6406 26.5325 54.1133 26.4229C54.2773 26.0122 54.4141 25.6015 54.5508 25.1634C58.2148 25.0265 64.1484 25.0265 69.9453 26.1765Z" fill="#010101"/>
<path d="M47.7422 17.4419C49.4375 19.0027 50.4492 20.8646 50.4492 22.8635C50.4492 32.2827 43.4492 32.5291 34.8086 32.5291C26.168 32.5291 19.168 31.2148 19.168 22.8635C19.168 20.8646 20.1523 19.0027 21.8477 17.4693C24.6641 14.8955 29.4219 16.2645 34.8086 16.2645C40.1953 16.2645 44.9258 14.8681 47.7422 17.4419Z" fill="#F5CCB3"/>
<path d="M29.6133 23.3563C29.6133 25.9575 28.1641 28.0385 26.3594 28.0385C24.5547 28.0385 23.1055 25.9302 23.1055 23.3563C23.1055 20.7551 24.5547 18.6741 26.3594 18.6741C28.1641 18.6467 29.6133 20.7551 29.6133 23.3563Z" fill="white"/>
<path d="M28.5742 23.4112C28.5742 25.1362 27.5898 26.5326 26.4141 26.5326C25.2109 26.5326 24.2539 25.1362 24.2539 23.4112C24.2539 21.6861 25.2383 20.2897 26.4141 20.2897C27.5898 20.2897 28.5742 21.6861 28.5742 23.4112Z" fill="#AF5C51"/>
<path d="M47.0859 23.3563C47.0859 25.9575 45.6367 28.0385 43.832 28.0385C42.0273 28.0385 40.5781 25.9302 40.5781 23.3563C40.5781 20.7551 42.0273 18.6741 43.832 18.6741C45.6094 18.6467 47.0859 20.7551 47.0859 23.3563Z" fill="white"/>
<path d="M46.0196 23.4112C46.0196 25.1362 45.0352 26.5326 43.8594 26.5326C42.6563 26.5326 41.6993 25.1362 41.6993 23.4112C41.6993 21.6861 42.6836 20.2897 43.8594 20.2897C45.0625 20.2897 46.0196 21.6861 46.0196 23.4112ZM35.6836 27.5184C35.6836 27.9565 35.3282 28.3398 34.8633 28.3398C34.4258 28.3398 34.043 27.9839 34.043 27.5184C34.043 27.0529 34.3985 26.6969 34.8633 26.6969C35.3008 26.6969 35.6836 27.0529 35.6836 27.5184ZM32.9766 29.572C32.9219 29.4351 33.0039 29.2982 33.1407 29.2434C33.2774 29.1886 33.4141 29.2708 33.4688 29.4077C33.6875 30.0101 34.2344 30.3934 34.8633 30.3934C35.4922 30.3934 36.0391 29.9827 36.2579 29.4077C36.3125 29.2708 36.4493 29.1886 36.586 29.2434C36.7227 29.2982 36.8047 29.4351 36.75 29.572C36.4766 30.366 35.711 30.9137 34.8633 30.9137C34.0157 30.9137 33.25 30.366 32.9766 29.572Z" fill="#AF5C51"/>
<path d="M14.9023 33.2958C14.9023 33.5149 14.6563 33.6792 14.3281 33.6792C14.0273 33.6792 13.7539 33.5149 13.7539 33.2958C13.7539 33.0768 14 32.9125 14.3281 32.9125C14.6563 32.9125 14.9023 33.0768 14.9023 33.2958ZM16.4883 34.172C16.4883 34.3911 16.2422 34.5554 15.9141 34.5554C15.6133 34.5554 15.3398 34.3911 15.3398 34.172C15.3398 33.953 15.5859 33.7887 15.9141 33.7887C16.2422 33.7887 16.4883 33.953 16.4883 34.172ZM17.4453 35.322C17.4453 35.5411 17.1992 35.7054 16.8711 35.7054C16.5703 35.7054 16.2969 35.5411 16.2969 35.322C16.2969 35.103 16.543 34.9387 16.8711 34.9387C17.1992 34.9113 17.4453 35.103 17.4453 35.322ZM18.3203 36.6363C18.3203 36.8554 18.0742 37.0197 17.7461 37.0197C17.4453 37.0197 17.1719 36.8554 17.1719 36.6363C17.1719 36.4173 17.418 36.253 17.7461 36.253C18.0742 36.2256 18.3203 36.4173 18.3203 36.6363ZM19.2773 37.8411C19.2773 38.0602 19.0313 38.2245 18.7031 38.2245C18.4023 38.2245 18.1289 38.0602 18.1289 37.8411C18.1289 37.6221 18.375 37.4578 18.7031 37.4578C19.0313 37.4578 19.2773 37.6221 19.2773 37.8411ZM20.5898 38.909C20.5898 39.1281 20.3437 39.2923 20.0156 39.2923C19.7148 39.2923 19.4414 39.1281 19.4414 38.909C19.4414 38.69 19.6875 38.5257 20.0156 38.5257C20.3437 38.4983 20.5898 38.69 20.5898 38.909ZM22.4219 39.5935C22.4219 39.8126 22.1758 39.9769 21.8477 39.9769C21.5469 39.9769 21.2734 39.8126 21.2734 39.5935C21.2734 39.3745 21.5195 39.2102 21.8477 39.2102C22.1758 39.2102 22.4219 39.3745 22.4219 39.5935ZM24.2539 39.5935C24.2539 39.8126 24.0078 39.9769 23.6797 39.9769C23.3789 39.9769 23.1055 39.8126 23.1055 39.5935C23.1055 39.3745 23.3516 39.2102 23.6797 39.2102C24.0078 39.2102 24.2539 39.3745 24.2539 39.5935ZM26.1133 39.2923C26.1133 39.5114 25.8672 39.6757 25.5391 39.6757C25.2383 39.6757 24.9648 39.5114 24.9648 39.2923C24.9648 39.0733 25.2109 38.909 25.5391 38.909C25.8398 38.909 26.1133 39.0733 26.1133 39.2923Z" fill="#C4E5D9"/>
</svg>
