<svg width="80" height="80" viewBox="0 0 80 80" fill="none" xmlns="http://www.w3.org/2000/svg">
<path d="M5.72583 24.2943V55.0001C5.72583 57.8417 6.85465 60.5669 8.86397 62.5762C10.8733 64.5855 13.5985 65.7143 16.4401 65.7143H63.5715C66.4132 65.7143 69.1384 64.5855 71.1477 62.5762C73.157 60.5669 74.2858 57.8417 74.2858 55.0001V24.2858L40.9773 41.3486C40.6748 41.5036 40.3399 41.5844 40.0001 41.5844C39.6603 41.5844 39.3254 41.5036 39.023 41.3486L5.72583 24.2943Z" fill="#367AF2"/>
<path d="M5.72583 24.2943V55.0001C5.72583 57.8417 6.85465 60.5669 8.86397 62.5762C10.8733 64.5855 13.5985 65.7143 16.4401 65.7143H63.5715C66.4132 65.7143 69.1384 64.5855 71.1477 62.5762C73.157 60.5669 74.2858 57.8417 74.2858 55.0001V24.2858L40.9773 41.3486C40.6748 41.5036 40.3399 41.5844 40.0001 41.5844C39.6603 41.5844 39.3254 41.5036 39.023 41.3486L5.72583 24.2943Z" fill="url(#paint0_linear_2772_19018)"/>
<path d="M5.72583 24.2943V55.0001C5.72583 57.8417 6.85465 60.5669 8.86397 62.5762C10.8733 64.5855 13.5985 65.7143 16.4401 65.7143H63.5715C66.4132 65.7143 69.1384 64.5855 71.1477 62.5762C73.157 60.5669 74.2858 57.8417 74.2858 55.0001V24.2858L40.9773 41.3486C40.6748 41.5036 40.3399 41.5844 40.0001 41.5844C39.6603 41.5844 39.3254 41.5036 39.023 41.3486L5.72583 24.2943Z" fill="url(#paint1_linear_2772_19018)"/>
<path d="M5.72583 24.2943V55.0001C5.72583 57.8417 6.85465 60.5669 8.86397 62.5762C10.8733 64.5855 13.5985 65.7143 16.4401 65.7143H63.5715C66.4132 65.7143 69.1384 64.5855 71.1477 62.5762C73.157 60.5669 74.2858 57.8417 74.2858 55.0001V24.2858L40.9773 41.3486C40.6748 41.5036 40.3399 41.5844 40.0001 41.5844C39.6603 41.5844 39.3254 41.5036 39.023 41.3486L5.72583 24.2943Z" fill="url(#paint2_linear_2772_19018)" fill-opacity="0.75"/>
<path d="M5.72583 24.2943V55.0001C5.72583 57.8417 6.85465 60.5669 8.86397 62.5762C10.8733 64.5855 13.5985 65.7143 16.4401 65.7143H63.5715C66.4132 65.7143 69.1384 64.5855 71.1477 62.5762C73.157 60.5669 74.2858 57.8417 74.2858 55.0001V24.2858L40.9773 41.3486C40.6748 41.5036 40.3399 41.5844 40.0001 41.5844C39.6603 41.5844 39.3254 41.5036 39.023 41.3486L5.72583 24.2943Z" fill="url(#paint3_linear_2772_19018)" fill-opacity="0.7"/>
<path d="M5.72583 22.1429C5.72583 19.3013 6.85465 16.576 8.86397 14.5667C10.8733 12.5574 13.5985 11.4286 16.4401 11.4286H63.5715C66.4132 11.4286 69.1384 12.5574 71.1477 14.5667C73.157 16.576 74.2858 19.3013 74.2858 22.1429V25.5714L40.9773 42.6343C40.6748 42.7892 40.3399 42.8701 40.0001 42.8701C39.6603 42.8701 39.3254 42.7892 39.023 42.6343L5.72583 25.58V22.1429Z" fill="url(#paint4_linear_2772_19018)"/>
<defs>
<linearGradient id="paint0_linear_2772_19018" x1="50.0001" y1="30.0001" x2="66.1944" y2="67.7172" gradientUnits="userSpaceOnUse">
<stop offset="0.199" stop-color="#0094F0" stop-opacity="0"/>
<stop offset="0.431" stop-color="#0094F0"/>
</linearGradient>
<linearGradient id="paint1_linear_2772_19018" x1="30.2115" y1="28.6458" x2="13.0001" y2="69.0115" gradientUnits="userSpaceOnUse">
<stop offset="0.191" stop-color="#0094F0" stop-opacity="0"/>
<stop offset="0.431" stop-color="#0094F0"/>
</linearGradient>
<linearGradient id="paint2_linear_2772_19018" x1="58.083" y1="49.0029" x2="60.8716" y2="69.5572" gradientUnits="userSpaceOnUse">
<stop stop-color="#2764E7" stop-opacity="0"/>
<stop offset="1" stop-color="#2764E7"/>
</linearGradient>
<linearGradient id="paint3_linear_2772_19018" x1="50.6173" y1="29.3743" x2="55.703" y2="71.2029" gradientUnits="userSpaceOnUse">
<stop offset="0.533" stop-color="#FF6CE8" stop-opacity="0"/>
<stop offset="1" stop-color="#FF6CE8"/>
</linearGradient>
<linearGradient id="paint4_linear_2772_19018" x1="26.0944" y1="1.58573" x2="47.0773" y2="56.54" gradientUnits="userSpaceOnUse">
<stop stop-color="#6CE0FF"/>
<stop offset="0.462" stop-color="#29C3FF"/>
<stop offset="1" stop-color="#4894FE"/>
</linearGradient>
</defs>
</svg>
