<svg width="60" height="60" viewBox="0 0 60 60" fill="none" xmlns="http://www.w3.org/2000/svg">
<g clip-path="url(#clip0_2772_19015)">
<path d="M30 0C22.0453 0 14.4094 3.16266 8.78906 8.78672C3.16299 14.413 0.00160992 22.0434 0 30C0 37.9533 3.16406 45.5892 8.78906 51.2133C14.4094 56.8373 22.0453 60 30 60C37.9547 60 45.5906 56.8373 51.2109 51.2133C56.8359 45.5892 60 37.9533 60 30C60 22.0467 56.8359 14.4108 51.2109 8.78672C45.5906 3.16266 37.9547 0 30 0Z" fill="url(#paint0_linear_2772_19015)"/>
<path d="M13.5796 29.6831C22.3265 25.8731 28.1577 23.3612 31.0734 22.1475C39.4077 18.682 41.1374 18.0801 42.2671 18.0597C42.5155 18.0558 43.0687 18.1172 43.4296 18.409C43.7296 18.6551 43.814 18.9879 43.8562 19.2215C43.8937 19.455 43.9452 19.987 43.903 20.4023C43.453 25.1461 41.4984 36.6576 40.5046 41.9709C40.0874 44.219 39.2577 44.9728 38.4562 45.0464C36.7124 45.2067 35.3905 43.8951 33.703 42.7894C31.064 41.0583 29.5734 39.9811 27.0093 38.2922C24.0468 36.3403 25.9687 35.2673 27.6562 33.5142C28.0968 33.0553 35.7749 26.0733 35.9202 25.44C35.939 25.3608 35.9577 25.0654 35.7796 24.9098C35.6062 24.7537 35.3484 24.8072 35.1609 24.8494C34.8937 24.9094 30.6796 27.6975 22.5046 33.2133C21.3093 34.0355 20.2265 34.4362 19.2515 34.4151C18.1827 34.3922 16.1202 33.8095 14.5874 33.3117C12.7124 32.7009 11.2171 32.378 11.3484 31.3406C11.414 30.8006 12.1593 30.248 13.5796 29.6831Z" fill="white"/>
</g>
<defs>
<linearGradient id="paint0_linear_2772_19015" x1="3000" y1="0" x2="3000" y2="6000" gradientUnits="userSpaceOnUse">
<stop stop-color="#2AABEE"/>
<stop offset="1" stop-color="#229ED9"/>
</linearGradient>
<clipPath id="clip0_2772_19015">
<rect width="60" height="60" fill="white"/>
</clipPath>
</defs>
</svg>
