<svg xmlns="http://www.w3.org/2000/svg" width="24" height="24" viewBox="0 0 24 24">
	<g fill="#696969" fill-rule="nonzero">
		<path
			d="M12 22c5.523 0 10-4.477 10-10S17.523 2 12 2 2 6.477 2 12s4.477 10 10 10zm0-1a9 9 0 1 1 0-18 9 9 0 0 1 0 18z"/>
		<path
			d="M12.956 10.99c1.43 1.404 2.937 1.404 4.247.552.323-.21.559-.422.696-.574a.5.5 0 0 0 0-.668 3.595 3.595 0 0 0-.696-.575c-1.31-.852-2.818-.852-4.247.552a.5.5 0 0 0 0 .713zm3.702-.427l.104.07a3.41 3.41 0 0 1-.104.07c-.823.536-1.68.606-2.588-.07.907-.675 1.765-.605 2.588-.07z"/>
		<path
			d="M13.655 10.988a.5.5 0 0 1-.701 0c-1.435-1.409-1.435-2.903-.562-4.196.214-.317.43-.549.585-.683a.5.5 0 0 1 .655 0c.155.135.37.366.585.683.872 1.293.872 2.787-.562 4.196zm-.267-3.636a3.324 3.324 0 0 0-.084-.119 3.323 3.323 0 0 0-.084.119c-.544.806-.612 1.643.084 2.534.697-.891.628-1.728.084-2.534z"/>
		<path
			d="M14.338 10.075a.5.5 0 0 1-.5-.5c0-1.561.677-2.578 1.784-3.088.6-.276 1.206-.36 1.693-.344l.038.002a.5.5 0 0 1 .469.467l.002.039c.016.482-.07 1.08-.353 1.674-.52 1.088-1.551 1.75-3.133 1.75zm2.23-2.18c.115-.241.186-.49.223-.721-.24.036-.5.106-.751.222-.634.292-1.048.805-1.166 1.646.868-.115 1.397-.524 1.695-1.148zM11.277 12.639c1.43 1.404 2.938 1.404 4.248.551.323-.21.559-.421.696-.574a.5.5 0 0 0 0-.668 3.597 3.597 0 0 0-.696-.575c-1.31-.852-2.818-.852-4.248.552a.5.5 0 0 0 0 .714zm3.703-.427c.036.023.07.047.104.07a3.412 3.412 0 0 1-.104.07c-.823.535-1.681.605-2.589-.07.908-.676 1.766-.606 2.589-.07z"/>
		<path
			d="M11.976 12.637a.5.5 0 0 1-.7 0c-1.435-1.41-1.435-2.904-.563-4.196.214-.318.43-.55.585-.684a.5.5 0 0 1 .655 0c.155.135.371.366.585.684.872 1.292.872 2.787-.562 4.196zM11.709 9a3.324 3.324 0 0 0-.083-.119 3.324 3.324 0 0 0-.084.119c-.544.807-.613 1.643.084 2.534.696-.891.627-1.727.083-2.534z"/>
		<path
			d="M9.6 14.287c1.428 1.404 2.936 1.404 4.246.552.323-.21.559-.422.696-.574a.5.5 0 0 0 0-.668 3.595 3.595 0 0 0-.696-.575c-1.31-.852-2.818-.852-4.247.552a.5.5 0 0 0 0 .713zm3.701-.427l.104.07a3.41 3.41 0 0 1-.104.07c-.823.536-1.68.606-2.588-.07.907-.675 1.765-.605 2.588-.07z"/>
		<path
			d="M10.298 14.285a.5.5 0 0 1-.701 0c-1.435-1.409-1.435-2.903-.563-4.196.215-.317.43-.549.586-.683a.5.5 0 0 1 .655 0c.155.134.37.366.585.683.872 1.293.872 2.787-.562 4.196zm-.267-3.636a3.323 3.323 0 0 0-.084-.119 3.323 3.323 0 0 0-.084.119c-.544.806-.612 1.643.084 2.534.697-.891.628-1.728.084-2.534z"/>
		<path
			d="M7.92 15.935c1.43 1.404 2.938 1.404 4.248.552.323-.21.558-.422.695-.574a.5.5 0 0 0 0-.669 3.595 3.595 0 0 0-.695-.574c-1.31-.852-2.818-.852-4.247.552a.5.5 0 0 0 0 .713zm3.703-.427l.103.07a3.41 3.41 0 0 1-.103.07c-.823.536-1.68.606-2.588-.07.907-.675 1.765-.605 2.588-.07z"/>
		<path
			d="M8.62 15.933a.5.5 0 0 1-.701 0c-1.435-1.408-1.435-2.902-.563-4.196.214-.317.43-.549.585-.683a.5.5 0 0 1 .655 0c.156.135.371.366.586.684.871 1.293.871 2.787-.563 4.195zm-.267-3.636a3.325 3.325 0 0 0-.084-.119 3.325 3.325 0 0 0-.084.119c-.544.807-.613 1.643.084 2.534.696-.891.628-1.727.084-2.534z"/>
		<path
			d="M7.919 15.22l-1.992 1.956a.5.5 0 1 0 .7.714l1.992-1.957a.5.5 0 1 0-.7-.713zM5.146 5.854l13 13a.5.5 0 0 0 .708-.708l-13-13a.5.5 0 1 0-.708.708z"/>
	</g>
</svg>
