<svg xmlns="http://www.w3.org/2000/svg" width="24" height="24" viewBox="0 0 24 24">
	<g fill="#696969" fill-rule="nonzero">
		<path
			d="M12 22c5.523 0 10-4.477 10-10S17.523 2 12 2 2 6.477 2 12s4.477 10 10 10zm0-1a9 9 0 1 1 0-18 9 9 0 0 1 0 18z"/>
		<path
			d="M7.58 7.543a.8.8 0 0 1 1.444.312 2.195 2.195 0 0 0 .085.31.733.733 0 0 0 .103.127.8.8 0 0 1 .164.99 1.146 1.146 0 0 0-.118.396c0 .088.019.207.14.905l.04.24c.082.489.123.834.123 1.098l.001.065c.005.261 0 .624-.023 1.05-.003.323-.141.79-.534 1.405a2.263 2.263 0 0 1-.56.508c-.427.284-.942.454-1.584.453a2.738 2.738 0 0 1-.948-.244c-.288-.132-.541-.313-.678-.488a1.615 1.615 0 0 1-.323-.48c-.1-.218-.172-.469-.212-.847 0-.2.034-.495.149-.894.083-.236.241-.601.481-1.03.502-.895 1.855-.204 1.424.727a2.804 2.804 0 0 0-.2.673.61.61 0 0 0-.005.17c.016.047.162.113.362.113.18 0 .424-.087.59-.228 0 0 .038-.11.054-.33.01-.122.011-.232.01-.458l-.001-.138c0-.112-.02-.332-.057-.61a26.943 26.943 0 0 0-.137-.9 5.925 5.925 0 0 0-.095-.463l-.017-.072-.082-.347a4.056 4.056 0 0 1-.06-.29 2.947 2.947 0 0 0-.03-.149l-.011-.054a9.283 9.283 0 0 0-.055-.232.8.8 0 0 1 .118-.653l.442-.635zM8.237 8l-.442.635s.082.325.11.508c.029.182.217.877.258 1.19 0 0 .2 1.153.2 1.615 0 .461.044 1.207-.345 1.537-.334.283-.77.417-1.107.417-.336 0-.935-.12-1.119-.652-.184-.532.236-1.44.236-1.44-.287.513-.425.904-.425.904-.103.366-.103.63-.103.63.064.53.292.752.292.752.377.46 1.12.507 1.12.507.973 0 1.452-.64 1.452-.64.372-.586.375-.937.375-.937.035-.692.022-1.078.022-1.078 0-.646-.303-1.872-.303-2.27 0-.396.221-.789.221-.789s-.168-.15-.272-.34c-.104-.19-.17-.549-.17-.549z"/>
		<path
			d="M9.518 9.53c-.012.099-.113 1.036.343 1.264.492.286.704.257.915.635.272.262.572 1.143.572 1.143s.115-.852-.228-1.651c-.361-.678-1.453-1.313-1.588-1.39h-.014zm.56 2.289c-.023-.04-.003-.024-.063-.053l-.213-.1a3.631 3.631 0 0 1-.298-.156c-.51-.256-.723-.733-.786-1.317-.03-.285-.02-.55.005-.76a.8.8 0 0 1 .16-.39l.003-.004a.8.8 0 0 1 1.026-.211c.765.428 1.53.998 1.943 1.777a4.208 4.208 0 0 1 .287 2.073c-.113.837-1.278.952-1.55.152a5.897 5.897 0 0 0-.214-.53 1.922 1.922 0 0 0-.164-.302.796.796 0 0 1-.136-.18z"/>
		<path
			d="M18.367 11.643a1.99 1.99 0 0 0 .6.012.8.8 0 0 1 .838 1.15l-.447.888a.8.8 0 0 1-.888.422l-.016-.002c-.277-.033-.64.01-1.048.204-.713.32-1.526.481-2.008.454-.593.033-1.175-.204-1.601-.82a3.505 3.505 0 0 1-1.65 1.17c-.055.015-.11.03-.166.042a5.58 5.58 0 0 1-1.69.109c-.845-.085-.994-1.252-.198-1.546a6.629 6.629 0 0 0 .86-.4c.15-.085.282-.169.416-.27.766-.529 1.113-.9 1.369-1.614.041-.131.08-.27.117-.416.148-.59.39-2.2.396-2.223.021-.09.045-.168.081-.247a.8.8 0 0 1 .234-.297.887.887 0 0 1 1.2.08c.142.145.224.31.289.508.072.222.12.503.14.779.004.13.022.477.05.962l.004.086.024.413c.254-.21.551-.331.912-.331.518 0 .944.156 1.441.461.11.068.568.367.468.303l.135.085a.865.865 0 0 0 .138.038zm-.506.675c-.581-.351-1.03-.762-1.677-.762-.692 0-1.096 1.38-1.118 1.396.022-.015.212-.3.67-.507.51-.26 1.454.38 1.454.38s-.07.112-.559.255c-.49.202-1.32.273-1.677.126-.396-.255-.447-1.523-.447-1.523s-.1-1.673-.112-2.032c-.022-.309-.135-.92-.335-.762-.107.233-.182 1.596-.56 2.794-.401 1.126-1.102 1.635-1.676 2.032-.577.437-1.454.76-1.454.76s.808.082 1.565-.125a2.68 2.68 0 0 0 1.23-.89c.267-.375.354-.651.56-1.142.221-.912.335-1.778.335-1.778v.762s.008 1.2.223 1.904c.322.745.87.786 1.118.763.19.023.904-.035 1.677-.382.859-.41 1.565-.253 1.565-.253l.448-.889s-.714.111-1.23-.127z"/>
	</g>
</svg>
