<svg xmlns="http://www.w3.org/2000/svg" width="24" height="24" viewBox="0 0 24 24">
	<g fill="none" fill-rule="evenodd">
		<path fill="#696969" fill-rule="nonzero"
					d="M12 22c5.523 0 10-4.477 10-10S17.523 2 12 2 2 6.477 2 12s4.477 10 10 10zm0-1a9 9 0 1 1 0-18 9 9 0 0 1 0 18z"/>
		<path fill="#696969" fill-rule="nonzero"
					d="M4.803 15.46l7 3a.5.5 0 0 0 .394 0l7-3a.5.5 0 0 0 .198-.767l-7-9a.5.5 0 0 0-.79 0l-7 9a.5.5 0 0 0 .198.767zm.99-.664L12 6.814l6.208 7.982L12 17.456l-6.208-2.66z"/>
		<path fill="#696969" fill-rule="nonzero"
					d="M7.186 12.536a.5.5 0 1 0-.372.928l5 2a.5.5 0 0 0 .372 0l5-2a.5.5 0 1 0-.372-.928L12 14.46l-4.814-1.925z"/>
		<path fill="#696969" fill-rule="nonzero"
					d="M8.736 10.156a.5.5 0 0 0-.371.928l3.45 1.38a.5.5 0 0 0 .37 0l3.493-1.397a.5.5 0 0 0-.372-.928L12 11.46l-3.264-1.305zM10.406 7.824a.5.5 0 1 0-.371.928l1.78.712a.5.5 0 0 0 .37 0l1.627-.65a.5.5 0 1 0-.371-.929L12 8.461l-1.594-.637z"/>
	</g>
</svg>
