<svg xmlns="http://www.w3.org/2000/svg" width="24" height="24" viewBox="0 0 24 24">
	<g fill="#696969" fill-rule="nonzero">
		<path
			d="M12 22c5.523 0 10-4.477 10-10S17.523 2 12 2 2 6.477 2 12s4.477 10 10 10zm0-1a9 9 0 1 1 0-18 9 9 0 0 1 0 18z"/>
		<path
			d="M6.77 16.238c-.239.236-.305.499-.22.802.104.37.46.51.782.446.1-.02.167-.05.264-.101l.013-.007.352-.188 1.626-.873c.423.184.877.242 1.35.178.548-.075 1.054-.291 1.589-.645.684-.452 1.284-1.02 1.967-1.814a.82.82 0 0 0 .17-.746l.048-.01c.31-.071.563-.214.743-.466.788-1.102 1.355-2.106 1.745-3.161.218-.59.326-1.08.315-1.59-.018-.827-.469-1.395-1.248-1.532a2.34 2.34 0 0 0-.522-.028c-.466.022-.914.135-1.454.343-1.025.395-1.999.958-3.1 1.75-.253.182-.424.42-.53.718-.01.03-.022.061-.035.094a.791.791 0 0 0-.689.198c-.658.584-1.15 1.1-1.56 1.67-.456.637-.723 1.21-.81 1.854-.061.474-.001.93.188 1.355a.5.5 0 0 0 .543.29 680.27 680.27 0 0 0-1.528 1.463zm1.898-2.16a1.484 1.484 0 0 1-.11-.817c.06-.456.263-.887.631-1.401.333-.465.74-.9 1.281-1.39a.5.5 0 0 0 .838-.128l.07-.16.083-.184c.059-.133.103-.24.142-.35a.46.46 0 0 1 .17-.24c1.038-.746 1.941-1.268 2.876-1.629.448-.172.799-.261 1.14-.277.122-.005.22-.001.302.014.294.051.415.204.423.568.008.364-.075.74-.253 1.222-.355.962-.88 1.891-1.62 2.927-.021.028-.061.05-.153.072-.428.098-.699.168-.99.262a.5.5 0 0 0-.015.948l.087.03.019.007c-.567.64-1.066 1.101-1.614 1.464-.42.277-.791.436-1.173.488a1.484 1.484 0 0 1-.903-.145.683.683 0 0 0-.66.008l-.268.146c1.147-1.098 2.946-2.82 5.385-5.152a.5.5 0 0 0-.692-.722 26949.22 26949.22 0 0 0-4.965 4.75.498.498 0 0 0-.031-.311z"/>
	</g>
</svg>
