<svg xmlns="http://www.w3.org/2000/svg" width="24" height="24" viewBox="0 0 24 24">
	<g fill="#696969" fill-rule="nonzero">
		<path
			d="M12 22c5.523 0 10-4.477 10-10S17.523 2 12 2 2 6.477 2 12s4.477 10 10 10zm0-1a9 9 0 1 1 0-18 9 9 0 0 1 0 18z"/>
		<path
			d="M5.842 13.442a1.5 1.5 0 0 0 0 2.122l2.671 2.671a1.5 1.5 0 0 0 2.122 0l4.973-4.973a1.5 1.5 0 0 0 .409-.76l.432-2.114a1.5 1.5 0 0 0-.409-1.361l-.99-.99a1.5 1.5 0 0 0-1.361-.409l-2.114.432a1.5 1.5 0 0 0-.76.41l-4.973 4.972zm5.934-4.402l2.113-.432a.5.5 0 0 1 .454.136l.99.99a.5.5 0 0 1 .136.454l-.432 2.114a.5.5 0 0 1-.136.253l-4.973 4.973a.5.5 0 0 1-.708 0l-2.67-2.671a.5.5 0 0 1 0-.707l4.972-4.974a.5.5 0 0 1 .254-.136z"/>
		<path
			d="M16.252 6.175l1.65 1.65a1.5 1.5 0 0 1 0 2.121l-.118.118a1.5 1.5 0 0 1-2.121 0l-1.65-1.65a1.5 1.5 0 0 1 0-2.121l.118-.118a1.5 1.5 0 0 1 2.121 0zm-.707.707a.5.5 0 0 0-.707 0L14.72 7a.5.5 0 0 0 0 .707l1.65 1.65a.5.5 0 0 0 .707 0l.118-.118a.5.5 0 0 0 0-.707l-1.65-1.65zM5.146 5.854l13 13a.5.5 0 0 0 .708-.708l-13-13a.5.5 0 1 0-.708.708z"/>
	</g>
</svg>
