<svg xmlns="http://www.w3.org/2000/svg" width="24" height="24" viewBox="0 0 24 24">
    <g fill="#696969" fill-rule="evenodd">
        <path fill-rule="nonzero" d="M12 22c5.523 0 10-4.477 10-10S17.523 2 12 2 2 6.477 2 12s4.477 10 10 10zm0-1a9 9 0 1 1 0-18 9 9 0 0 1 0 18z"/>
        <g transform="translate(6 4)">
            <path fill-rule="nonzero" d="M2.533 6.567C2.759 3.113 4.01.5 6 .5c2.002 0 3.256 2.616 3.47 6.064.181-.109.37-.22.564-.332.28-.165.63-.18.922-.02a.99.99 0 0 1 .501.748c.01.1.016.189.022.303.067 1.22-.018 2.588-.381 3.91-.27.98-.674 1.838-1.239 2.535-.586.706-1.621 1.235-3.107 1.626a.997.997 0 0 1-.753-.101.997.997 0 0 1-.753.1c-1.486-.39-2.52-.92-3.107-1.625-.565-.697-.97-1.555-1.239-2.535-.363-1.322-.448-2.69-.381-3.91C.525 7.15.53 7.06.54 6.96a.99.99 0 0 1 .502-.748.935.935 0 0 1 .922.02c.196.114.386.225.569.335zm.972.611c1.208.803 2.023 1.54 2.494 2.342.472-.804 1.288-1.54 2.497-2.344C8.406 3.938 7.341 1.5 6 1.5c-1.328 0-2.392 2.437-2.495 5.678zM6.5 14.366c1.302-.342 2.163-.783 2.586-1.292.466-.575.813-1.31 1.048-2.166.33-1.2.408-2.469.347-3.59a9.283 9.283 0 0 0-.012-.182C7.702 8.738 6.544 9.849 6.5 11.322l.001.09v2.954zm-1.002 0V11.41v-.089c-.044-1.473-1.202-2.584-3.97-4.186a9.282 9.282 0 0 0-.01.182c-.062 1.121.017 2.39.346 3.59.235.856.582 1.591 1.048 2.166.423.509 1.284.95 2.586 1.292z"/>
            <circle cx="5.5" cy="3.5" r="1"/>
            <circle cx="5.5" cy="5.5" r="1"/>
            <circle cx="6.5" cy="4.5" r="1"/>
            <circle cx="6.5" cy="6.5" r="1"/>
        </g>
    </g>
</svg>
