<svg xmlns="http://www.w3.org/2000/svg" width="24" height="24" viewBox="0 0 24 24">
	<g fill="#696969" fill-rule="nonzero">
		<path
			d="M12 22c5.523 0 10-4.477 10-10S17.523 2 12 2 2 6.477 2 12s4.477 10 10 10zm0-1a9 9 0 1 1 0-18 9 9 0 0 1 0 18z"/>
		<path
			d="M14.826 8.543l.005.008c.646.98.927 1.437 1.236 2.048.566 1.125.87 2.04.924 3.042.07 1.308-.251 2.462-1.03 3.429-1.033 1.284-2.392 1.956-3.944 1.93-1.586.026-2.946-.646-3.979-1.93-.778-.967-1.098-2.12-1.029-3.428.054-1.003.357-1.917.924-3.043.309-.611.588-1.064 1.236-2.048l.21-.321c.535-.818.969-1.49 1.378-2.137l.168-.265.23-.364a1 1 0 0 1 1.69 0l.23.363.167.265a174.867 174.867 0 0 0 1.584 2.451zm-1.043.234c-.467-.715-.93-1.43-1.386-2.15L12 6l-.397.627c-.456.72-.92 1.435-1.386 2.15-.486.744-.99 1.478-1.39 2.272-.423.838-.769 1.699-.82 2.646-.053 1.006.162 1.942.81 2.748.833 1.035 1.897 1.578 3.183 1.556 1.286.022 2.35-.52 3.182-1.556.649-.806.864-1.742.81-2.748-.05-.947-.396-1.808-.818-2.646-.4-.794-.904-1.528-1.391-2.272z"/>
		<path d="M5.146 5.854l13 13a.5.5 0 0 0 .708-.708l-13-13a.5.5 0 1 0-.708.708z"/>
	</g>
</svg>
