<svg xmlns="http://www.w3.org/2000/svg" width="24" height="24" viewBox="0 0 24 24">
	<g fill="none" fill-rule="evenodd">
		<path fill="#696969" fill-rule="nonzero"
					d="M12 22c5.523 0 10-4.477 10-10S17.523 2 12 2 2 6.477 2 12s4.477 10 10 10zm0-1a9 9 0 1 1 0-18 9 9 0 0 1 0 18z"/>
		<g stroke="#696969" stroke-linecap="round">
			<path
				d="M8.452 15.293c5.84 5.69 7.994-4.407 8.506-7.531.073-.452-.31-.825-.774-.753-3.207.498-13.572 2.596-7.732 8.284zM12.677 11.178l-5.763 5.614"/>
			<path d="M10.41 10.05v3.337h3.426M12.857 9.573l-.185 1.605 1.653-.175"/>
		</g>
	</g>
</svg>
