<svg width="500" height="500" viewBox="0 0 500 500" fill="none" xmlns="http://www.w3.org/2000/svg">
	<path d="M174.074 42.416V132.479H44.7196L40.0586 43.046L174.074 42.416Z" fill="#E0E0E0" />
	<path d="M40.0591 43.046L40.0591 132.289H169.414V43.046L40.0591 43.046Z" fill="white" />
	<path d="M170.028 132.902H39.4458V42.432H170.028V132.902ZM40.6728 131.675H168.801V43.659H40.6728V131.675Z" fill="#E0E0E0" />
	<path d="M155.404 54.133H54.0688V121.201H155.404V54.133Z" fill="white" />
	<path d="M155.404 54.133C155.404 54.133 155.23 54.145 154.904 54.15C154.561 54.154 154.084 54.16 153.463 54.167C152.179 54.175 150.315 54.187 147.898 54.202C143.031 54.22 135.953 54.247 127.016 54.281C109.146 54.316 83.852 54.366 54.07 54.425L54.363 54.132C54.371 74.623 54.38 97.328 54.39 121.192V121.2L54.07 120.881C92.296 120.905 127.54 120.928 155.404 120.946L155.149 121.201C155.205 100.791 155.251 84.057 155.283 72.403C155.311 66.579 155.333 62.028 155.348 58.909C155.36 57.368 155.37 56.185 155.377 55.363C155.386 54.56 155.404 54.133 155.404 54.133C155.404 54.133 155.422 54.523 155.431 55.31C155.438 56.121 155.447 57.288 155.46 58.808C155.475 61.914 155.497 66.445 155.525 72.245C155.557 83.936 155.603 100.725 155.659 121.201L155.66 121.456H155.405C127.54 121.474 92.297 121.496 54.071 121.521H53.751V121.201V121.193C53.76 97.329 53.769 74.625 53.777 54.133V53.839L54.07 53.84C83.93 53.899 109.291 53.949 127.209 53.984C136.119 54.018 143.173 54.044 148.025 54.063C150.417 54.078 152.261 54.09 153.532 54.098C154.139 54.105 154.604 54.111 154.94 54.115C155.253 54.122 155.404 54.133 155.404 54.133Z" fill="#E0E0E0" />
	<path d="M40.0587 42.795C40.1127 42.725 40.9587 43.28 42.2827 44.235C43.6057 45.191 45.4077 46.546 47.3537 48.103C49.2997 49.661 51.0107 51.134 52.2157 52.237C53.4207 53.341 54.1247 54.068 54.0677 54.133C53.9477 54.269 50.8377 51.704 46.9537 48.602C43.0677 45.504 39.9447 42.941 40.0587 42.795Z" fill="#E0E0E0" />
	<path d="M169.414 43.046C169.524 43.184 166.476 45.779 162.608 48.84C158.739 51.902 155.514 54.272 155.405 54.133C155.295 53.995 158.342 51.401 162.212 48.338C166.079 45.277 169.305 42.907 169.414 43.046Z" fill="#E0E0E0" />
	<path d="M169.312 132.302C164.505 128.406 159.697 124.509 154.889 120.612L169.312 132.302Z" fill="white" />
	<path d="M154.889 120.612C155 120.475 158.319 122.981 162.301 126.208C166.284 129.437 169.423 132.164 169.311 132.301C169.2 132.438 165.882 129.933 161.898 126.704C157.917 123.478 154.778 120.749 154.889 120.612Z" fill="#E0E0E0" />
	<path d="M40.059 132.289C39.95 132.15 42.965 129.583 46.794 126.555C50.624 123.526 53.817 121.183 53.926 121.322C54.035 121.46 51.02 124.027 47.19 127.056C43.362 130.084 40.169 132.427 40.059 132.289Z" fill="#E0E0E0" />
	<path d="M74.6445 75.0285V97.4855H138.407V75.0285H74.6445Z" fill="#EBEBEB" />
	<path d="M317.638 338.19V350.675H263.954C260.507 350.675 257.712 347.88 257.712 344.433C257.712 340.986 260.507 338.191 263.954 338.191" fill="#E0E0E0" />
	<path d="M317.638 348.058H299.611C297.802 348.058 296.336 346.592 296.336 344.783V344.083C296.336 342.274 297.802 340.808 299.611 340.808H317.638V348.058Z" fill="#FAFAFA" />
	<path d="M317.638 325.706V338.19H263.954C260.507 338.19 257.712 335.395 257.712 331.948C257.712 328.501 260.507 325.706 263.954 325.706H317.638Z" fill="#F5F5F5" />
	<path d="M317.638 335.573H299.611C297.802 335.573 296.336 334.107 296.336 332.298V331.598C296.336 329.789 297.802 328.323 299.611 328.323H317.638V335.573Z" fill="#E0E0E0" />
	<path d="M215.43 330.996L206.904 351.022H212.391L216.179 340.326L215.43 330.996Z" fill="#E0E0E0" />
	<path d="M241.609 312.874L244.903 351.022H217.037L213.976 312.874H241.609Z" fill="#EBEBEB" />
	<path d="M238.887 315.901L241.772 347.853L220.855 348.128L218.03 315.715L238.887 315.901Z" fill="#FAFAFA" />
	<path d="M234.448 320.324L236.089 342.311H224.932L222.963 320.324H234.448Z" fill="#E0E0E0" />
	<path d="M339.921 350.675H189.139V364.623H339.921V350.675Z" fill="#F5F5F5" />
	<path d="M333.914 473.561L198.317 474.116V364.623H333.914V473.561Z" fill="#F5F5F5" />
	<path d="M339.921 364.623C339.921 364.773 306.165 364.894 264.534 364.894C222.889 364.894 189.139 364.773 189.139 364.623C189.139 364.473 222.888 364.352 264.534 364.352C306.165 364.352 339.921 364.473 339.921 364.623Z" fill="#E0E0E0" />
	<path d="M322.733 410.843C322.733 410.843 322.721 410.612 322.715 410.177C322.711 409.727 322.704 409.088 322.696 408.251C322.686 406.547 322.671 404.057 322.652 400.834C322.629 394.377 322.596 384.997 322.554 373.228L322.732 373.406C295.539 373.428 254.859 373.462 209.505 373.499H209.498L209.769 373.228C209.766 386.295 209.763 398.974 209.761 410.843L209.498 410.581C242.067 410.63 270.339 410.672 290.486 410.703C300.565 410.734 308.609 410.759 314.153 410.777C316.913 410.792 319.047 410.803 320.511 410.811C321.226 410.818 321.774 410.824 322.162 410.828C322.535 410.832 322.733 410.843 322.733 410.843C322.733 410.843 322.557 410.854 322.194 410.86C321.814 410.864 321.276 410.869 320.575 410.877C319.124 410.885 317.009 410.896 314.273 410.911C308.743 410.928 300.72 410.953 290.667 410.985C270.475 411.015 242.14 411.058 209.499 411.107H209.236V410.844C209.233 398.975 209.23 386.297 209.227 373.229V372.958H209.498H209.505C254.859 372.995 295.54 373.029 322.732 373.051H322.911L322.91 373.229C322.868 385.044 322.835 394.46 322.813 400.942C322.794 404.148 322.779 406.625 322.769 408.32C322.761 409.142 322.754 409.772 322.75 410.214C322.745 410.636 322.733 410.843 322.733 410.843Z" fill="#E0E0E0" />
	<path d="M213.986 405.908C214.096 406.01 213.215 407.133 212.02 408.415C210.824 409.698 209.767 410.655 209.657 410.553C209.548 410.451 210.428 409.328 211.623 408.045C212.819 406.763 213.877 405.806 213.986 405.908Z" fill="#E0E0E0" />
	<path d="M213.986 378.163C213.875 378.264 212.781 377.243 211.543 375.883C210.304 374.523 209.389 373.338 209.5 373.237C209.611 373.136 210.705 374.157 211.944 375.517C213.183 376.877 214.097 378.062 213.986 378.163Z" fill="#E0E0E0" />
	<path d="M322.935 373.346C323.052 373.457 321.967 374.669 320.47 375.957C318.972 377.246 317.748 378.256 317.647 378.16C317.53 378.049 318.614 376.837 320.113 375.548C321.61 374.261 322.834 373.25 322.935 373.346Z" fill="#E0E0E0" />
	<path d="M322.736 410.845C322.632 410.953 321.408 409.936 320.004 408.573C318.599 407.211 317.545 406.019 317.649 405.912C317.753 405.804 318.976 406.821 320.381 408.184C321.786 409.547 322.84 410.738 322.736 410.845Z" fill="#E0E0E0" />
	<path d="M317.646 405.91C317.646 405.91 317.635 405.74 317.629 405.422C317.625 405.087 317.619 404.621 317.612 404.012C317.603 402.758 317.589 400.934 317.572 398.568C317.551 393.817 317.52 386.901 317.481 378.161L317.646 378.326C293.995 378.35 256.332 378.389 213.991 378.432H213.985L214.256 378.161C214.254 387.699 214.252 396.998 214.25 405.91L213.985 405.645C243.579 405.693 269.455 405.735 287.954 405.766C297.206 405.798 304.612 405.824 309.724 405.842C312.266 405.857 314.235 405.869 315.59 405.877C316.248 405.884 316.754 405.89 317.116 405.894C317.462 405.898 317.646 405.91 317.646 405.91C317.646 405.91 317.484 405.922 317.15 405.927C316.796 405.931 316.301 405.937 315.656 405.944C314.314 405.952 312.364 405.964 309.847 405.979C304.749 405.997 297.364 406.022 288.138 406.055C269.593 406.085 243.652 406.127 213.984 406.175L213.719 406.176V405.91C213.717 396.998 213.715 387.698 213.713 378.161V377.89H213.984H213.99C256.331 377.933 293.995 377.971 317.645 377.996H317.811L317.81 378.162C317.771 386.945 317.74 393.894 317.718 398.667C317.701 401.017 317.687 402.828 317.678 404.074C317.67 404.67 317.665 405.127 317.661 405.455C317.657 405.762 317.646 405.91 317.646 405.91Z" fill="#E0E0E0" />
	<path d="M276.087 389.449C275.236 388.879 274.281 388.498 273.303 388.183C272.414 387.896 271.486 387.755 270.552 387.755H262.921C260.673 387.755 258.47 388.554 256.843 390.105C256.439 390.49 256.121 390.87 255.934 391.205C255.279 392.379 255.249 394.016 256.23 394.935C257.211 395.854 259.215 395.406 259.381 394.072C259.333 395.835 261.135 397.311 262.894 397.192C264.653 397.073 266.15 395.628 266.647 393.937C266.628 395.434 267.906 396.831 269.399 396.944C270.891 397.057 272.367 395.869 272.575 394.387C273.517 395.613 274.911 396.759 276.518 396.238C277.435 395.94 278.113 395.135 278.345 394.199C278.822 392.267 277.633 390.484 276.087 389.449Z" fill="#E0E0E0" />
	<path d="M264.28 387.721C264.359 387.868 262.52 388.663 261.146 390.59C259.735 392.491 259.544 394.484 259.38 394.455C259.315 394.451 259.267 393.948 259.422 393.151C259.574 392.357 259.975 391.281 260.707 390.271C261.442 389.264 262.342 388.551 263.051 388.162C263.762 387.769 264.256 387.66 264.28 387.721Z" fill="#F5F5F5" />
	<path d="M267.203 388.038C267.351 388.061 267.331 389.42 267.157 391.071C266.984 392.723 266.721 394.055 266.572 394.047C266.423 394.039 266.443 392.681 266.618 391.014C266.793 389.347 267.055 388.015 267.203 388.038Z" fill="#F5F5F5" />
	<path d="M270.883 387.951C270.917 387.895 271.315 388.055 271.768 388.557C272.223 389.05 272.668 389.901 272.84 390.905C273.011 391.907 272.938 392.814 272.854 393.451C272.765 394.09 272.661 394.476 272.587 394.47C272.511 394.464 272.481 394.064 272.471 393.428C272.457 392.794 272.464 391.922 272.305 390.998C272.146 390.077 271.802 389.297 271.463 388.791C271.131 388.28 270.833 388.018 270.883 387.951Z" fill="#F5F5F5" />
	<path d="M322.733 461.11C322.733 461.11 322.721 460.879 322.715 460.444C322.711 459.995 322.704 459.355 322.696 458.518C322.686 456.814 322.671 454.324 322.652 451.101C322.629 444.644 322.596 435.264 322.554 423.495L322.732 423.673C295.539 423.695 254.859 423.729 209.505 423.766H209.498L209.769 423.495C209.766 436.562 209.763 449.241 209.761 461.11L209.498 460.847C242.067 460.896 270.339 460.938 290.486 460.969C300.565 461 308.609 461.026 314.153 461.043C316.913 461.058 319.047 461.069 320.511 461.077C321.226 461.084 321.774 461.09 322.162 461.094C322.535 461.099 322.733 461.11 322.733 461.11C322.733 461.11 322.557 461.121 322.194 461.127C321.814 461.131 321.276 461.136 320.575 461.144C319.124 461.152 317.009 461.163 314.273 461.178C308.743 461.195 300.72 461.22 290.667 461.252C270.475 461.282 242.14 461.325 209.499 461.374H209.236V461.111C209.233 449.242 209.23 436.563 209.227 423.496V423.225H209.498H209.505C254.859 423.262 295.54 423.296 322.732 423.318H322.911L322.91 423.496C322.868 435.311 322.835 444.727 322.813 451.209C322.794 454.415 322.779 456.892 322.769 458.587C322.761 459.409 322.754 460.039 322.75 460.481C322.745 460.904 322.733 461.11 322.733 461.11Z" fill="#E0E0E0" />
	<path d="M213.986 456.176C214.096 456.278 213.215 457.401 212.02 458.683C210.824 459.966 209.767 460.923 209.657 460.821C209.548 460.719 210.428 459.597 211.623 458.313C212.819 457.031 213.877 456.074 213.986 456.176Z" fill="#E0E0E0" />
	<path d="M213.986 428.43C213.875 428.531 212.781 427.51 211.543 426.15C210.304 424.79 209.389 423.605 209.5 423.504C209.611 423.403 210.705 424.424 211.944 425.784C213.183 427.145 214.097 428.329 213.986 428.43Z" fill="#E0E0E0" />
	<path d="M322.935 423.613C323.052 423.724 321.967 424.936 320.47 426.224C318.972 427.513 317.748 428.523 317.647 428.428C317.53 428.317 318.614 427.105 320.113 425.816C321.61 424.529 322.834 423.518 322.935 423.613Z" fill="#E0E0E0" />
	<path d="M322.736 461.113C322.632 461.221 321.408 460.203 320.004 458.841C318.599 457.479 317.545 456.287 317.649 456.18C317.753 456.072 318.976 457.089 320.381 458.452C321.786 459.814 322.84 461.006 322.736 461.113Z" fill="#E0E0E0" />
	<path d="M317.646 456.178C317.646 456.178 317.635 456.008 317.629 455.689C317.625 455.354 317.619 454.888 317.612 454.279C317.603 453.025 317.589 451.201 317.572 448.835C317.551 444.084 317.52 437.168 317.481 428.428L317.646 428.593C293.995 428.617 256.332 428.655 213.991 428.699H213.985L214.256 428.428C214.254 437.966 214.252 447.265 214.25 456.177L213.985 455.912C243.579 455.96 269.455 456.002 287.954 456.033C297.206 456.065 304.612 456.091 309.724 456.109C312.266 456.124 314.235 456.136 315.59 456.144C316.248 456.151 316.754 456.157 317.116 456.161C317.462 456.166 317.646 456.178 317.646 456.178C317.646 456.178 317.484 456.19 317.15 456.195C316.796 456.199 316.301 456.205 315.656 456.212C314.314 456.22 312.364 456.232 309.847 456.247C304.749 456.265 297.364 456.29 288.138 456.323C269.593 456.353 243.652 456.395 213.984 456.443L213.719 456.444V456.178C213.717 447.266 213.715 437.966 213.713 428.429V428.158H213.984H213.99C256.331 428.201 293.995 428.239 317.645 428.264H317.811L317.81 428.429C317.771 437.212 317.74 444.161 317.718 448.934C317.701 451.284 317.687 453.095 317.678 454.341C317.67 454.937 317.665 455.394 317.661 455.722C317.657 456.029 317.646 456.178 317.646 456.178Z" fill="#E0E0E0" />
	<path d="M276.087 439.717C275.236 439.147 274.281 438.766 273.303 438.451C272.414 438.165 271.486 438.023 270.552 438.023H262.921C260.673 438.023 258.47 438.822 256.843 440.374C256.439 440.759 256.121 441.139 255.934 441.474C255.279 442.648 255.249 444.285 256.23 445.204C257.211 446.124 259.215 445.675 259.381 444.341C259.333 446.104 261.135 447.58 262.894 447.461C264.653 447.342 266.15 445.897 266.647 444.206C266.628 445.703 267.906 447.1 269.399 447.213C270.891 447.326 272.367 446.138 272.575 444.656C273.517 445.882 274.911 447.028 276.518 446.507C277.435 446.21 278.113 445.404 278.345 444.468C278.822 442.534 277.633 440.752 276.087 439.717Z" fill="#E0E0E0" />
	<path d="M264.28 437.988C264.359 438.135 262.52 438.931 261.146 440.858C259.735 442.759 259.544 444.753 259.38 444.723C259.315 444.719 259.267 444.216 259.422 443.418C259.574 442.624 259.975 441.548 260.707 440.538C261.442 439.531 262.342 438.818 263.051 438.429C263.762 438.037 264.256 437.928 264.28 437.988Z" fill="#F5F5F5" />
	<path d="M267.203 438.306C267.351 438.329 267.331 439.688 267.157 441.339C266.984 442.991 266.721 444.323 266.572 444.315C266.423 444.307 266.443 442.949 266.618 441.282C266.793 439.615 267.055 438.283 267.203 438.306Z" fill="#F5F5F5" />
	<path d="M270.883 438.219C270.917 438.164 271.315 438.323 271.768 438.825C272.223 439.318 272.668 440.169 272.84 441.173C273.011 442.175 272.938 443.082 272.854 443.719C272.765 444.358 272.661 444.744 272.587 444.738C272.511 444.732 272.481 444.332 272.471 443.696C272.457 443.062 272.464 442.19 272.305 441.266C272.146 440.345 271.802 439.564 271.463 439.059C271.131 438.547 270.833 438.286 270.883 438.219Z" fill="#F5F5F5" />
	<path d="M425.796 33.291H359.178V102.734H425.796V33.291Z" fill="#E0E0E0" />
	<path d="M421.284 33.291H354.666V102.734H421.284V33.291Z" fill="#EBEBEB" />
	<path d="M412.329 42.626H363.622V93.399H412.329V42.626Z" fill="white" />
	<path d="M363.622 93.737C363.655 93.776 363.187 94.3 362.405 95.117C361.623 95.934 360.527 97.042 359.302 98.249C358.076 99.456 356.953 100.535 356.126 101.302C355.3 102.07 354.77 102.527 354.735 102.491C354.699 102.455 355.165 101.933 355.947 101.116C356.729 100.3 357.827 99.189 359.056 97.978C360.284 96.768 361.41 95.688 362.237 94.92C363.062 94.154 363.589 93.698 363.622 93.737Z" fill="#E0E0E0" />
	<path d="M412.329 93.612C412.368 93.58 412.892 94.047 413.709 94.829C414.526 95.611 415.634 96.707 416.841 97.932C418.048 99.158 419.127 100.281 419.894 101.108C420.662 101.934 421.119 102.464 421.083 102.499C421.047 102.535 420.525 102.069 419.708 101.287C418.892 100.505 417.781 99.407 416.571 98.178C415.361 96.95 414.281 95.824 413.513 94.997C412.745 94.172 412.29 93.645 412.329 93.612Z" fill="#E0E0E0" />
	<path d="M412.196 42.762C412.163 42.723 412.631 42.199 413.413 41.382C414.195 40.566 415.291 39.457 416.516 38.25C417.742 37.042 418.865 35.964 419.692 35.197C420.519 34.429 421.048 33.972 421.083 34.008C421.119 34.044 420.653 34.566 419.872 35.383C419.09 36.2 417.992 37.31 416.763 38.521C415.535 39.731 414.409 40.811 413.582 41.579C412.755 42.345 412.228 42.8 412.196 42.762Z" fill="#E0E0E0" />
	<path d="M363.488 42.886C363.449 42.919 362.924 42.451 362.108 41.669C361.291 40.887 360.183 39.791 358.976 38.566C357.769 37.34 356.69 36.216 355.923 35.39C355.155 34.564 354.698 34.034 354.734 33.999C354.77 33.963 355.292 34.429 356.109 35.21C356.925 35.992 358.036 37.09 359.246 38.319C360.456 39.547 361.536 40.673 362.304 41.5C363.072 42.327 363.527 42.854 363.488 42.886Z" fill="#E0E0E0" />
	<path d="M412.196 93.399C412.196 93.399 412.19 93.313 412.187 93.154C412.185 92.985 412.182 92.751 412.178 92.447C412.174 91.815 412.167 90.899 412.159 89.709C412.149 87.309 412.135 83.811 412.117 79.364C412.097 70.473 412.07 57.801 412.036 42.626L412.195 42.785C398.017 42.792 381.364 42.8 363.626 42.809H363.621L363.804 42.626C363.795 61.262 363.786 78.697 363.778 93.399L363.621 93.242C378.183 93.275 390.306 93.303 398.801 93.322C403.049 93.34 406.387 93.353 408.677 93.363C409.812 93.371 410.685 93.377 411.288 93.381C411.578 93.385 411.8 93.388 411.962 93.39C412.114 93.393 412.196 93.399 412.196 93.399C412.196 93.399 412.126 93.405 411.98 93.408C411.822 93.41 411.605 93.413 411.323 93.417C410.727 93.421 409.865 93.427 408.742 93.435C406.46 93.445 403.134 93.458 398.901 93.476C390.382 93.495 378.225 93.523 363.622 93.556H363.465V93.399C363.457 78.697 363.448 61.262 363.439 42.626V42.443H363.622H363.627C381.365 42.452 398.018 42.46 412.196 42.467H412.356V42.626C412.322 57.843 412.295 70.551 412.275 79.466C412.257 83.897 412.243 87.383 412.233 89.775C412.225 90.952 412.219 91.858 412.214 92.482C412.21 92.779 412.207 93.006 412.205 93.172C412.202 93.326 412.196 93.399 412.196 93.399Z" fill="#E0E0E0" />
	<path d="M376.477 63.838C376.477 63.838 375.434 76.409 389.048 76.409C389.047 69.7 383.513 64.404 376.477 63.838Z" fill="#EBEBEB" />
	<path d="M401.388 63.847C401.388 63.847 388.817 62.804 388.817 76.418C395.525 76.418 400.821 70.883 401.388 63.847Z" fill="#EBEBEB" />
	<path d="M388.444 56.966C388.444 56.966 378.174 66.185 389.006 76.408C394.043 71.071 393.617 62.701 388.444 56.966Z" fill="#E0E0E0" />
	<path d="M17.4021 474.116C17.4021 473.972 121.1 473.856 248.989 473.856C376.922 473.856 480.598 473.973 480.598 474.116C480.598 474.259 376.922 474.376 248.989 474.376C121.1 474.377 17.4021 474.26 17.4021 474.116Z" fill="#263238" />
	<path d="M391.257 111.87H98.7427V293.11H391.257V111.87Z" fill="white" />
	<path d="M391.257 91.646H98.7427V114.02H391.257V91.646Z" fill="#40A944" />
	<path d="M106.574 127.347V279.592H380.728V158.432H201.535V127.347H106.574Z" fill="#FAFAFA" />
	<path d="M153.846 135.371V147.249H151.097V137.577H148.722V135.371H153.846Z" fill="#263238" />
	<path d="M289.966 129.716H209.891V150.406H289.966V129.716Z" fill="#EBEBEB" />
	<path d="M254.752 144.101V146.105H246.721V144.511L250.82 140.639C251.761 139.743 251.928 139.197 251.928 138.68C251.928 137.845 251.352 137.359 250.228 137.359C249.317 137.359 248.542 137.708 248.026 138.422L246.234 137.268C247.054 136.069 248.542 135.294 250.455 135.294C252.823 135.294 254.402 136.509 254.402 138.437C254.402 139.469 254.114 140.411 252.626 141.792L250.182 144.1L254.752 144.101Z" fill="#263238" />
	<path d="M378.86 129.716H298.785V150.406H378.86V129.716Z" fill="#EBEBEB" />
	<path d="M344.352 142.856C344.352 144.648 342.97 146.287 339.949 146.287C338.462 146.287 336.928 145.877 335.895 145.148L336.852 143.265C337.657 143.872 338.78 144.222 339.888 144.222C341.119 144.222 341.877 143.721 341.877 142.856C341.877 142.051 341.285 141.55 339.888 141.55H338.765V139.926L340.951 137.451H336.427V135.477H343.866V137.071L341.467 139.804C343.38 140.108 344.352 141.292 344.352 142.856Z" fill="#263238" />
	<path d="M185.139 176.818C185.139 176.962 171.634 177.078 154.978 177.078C138.317 177.078 124.815 176.961 124.815 176.818C124.815 176.675 138.317 176.558 154.978 176.558C171.634 176.557 185.139 176.674 185.139 176.818Z" fill="#263238" />
	<path d="M362.486 192.084C362.486 192.228 309.277 192.344 243.656 192.344C178.012 192.344 124.815 192.227 124.815 192.084C124.815 191.94 178.012 191.824 243.656 191.824C309.278 191.823 362.486 191.94 362.486 192.084Z" fill="#263238" />
	<path d="M362.486 203.567C362.486 203.711 309.277 203.827 243.656 203.827C178.012 203.827 124.815 203.71 124.815 203.567C124.815 203.423 178.012 203.307 243.656 203.307C309.278 203.307 362.486 203.424 362.486 203.567Z" fill="#263238" />
	<path d="M362.486 215.051C362.486 215.195 309.277 215.311 243.656 215.311C178.012 215.311 124.815 215.194 124.815 215.051C124.815 214.907 178.012 214.791 243.656 214.791C309.278 214.79 362.486 214.907 362.486 215.051Z" fill="#263238" />
	<path d="M229.267 228.163C229.267 228.307 206.201 228.423 177.754 228.423C149.297 228.423 126.236 228.306 126.236 228.163C126.236 228.019 149.297 227.903 177.754 227.903C206.201 227.903 229.267 228.019 229.267 228.163Z" fill="#263238" />
	<path d="M352.702 267.948H296.42C288.24 267.948 281.609 261.317 281.609 253.137C281.609 244.957 288.24 238.326 296.42 238.326H352.702C360.882 238.326 367.513 244.957 367.513 253.137C367.513 261.317 360.882 267.948 352.702 267.948Z" fill="#40A944" />
	<path d="M311.054 246.943V257.571H309.036L303.737 251.119V257.571H301.307V246.943H303.342L308.625 253.396V246.943H311.054Z" fill="white" />
	<path d="M321.367 254.155H315.187C315.416 255.173 316.281 255.795 317.526 255.795C318.391 255.795 319.013 255.537 319.575 255.006L320.836 256.372C320.076 257.237 318.938 257.693 317.465 257.693C314.642 257.693 312.805 255.917 312.805 253.487C312.805 251.043 314.672 249.281 317.162 249.281C319.561 249.281 321.414 250.89 321.414 253.517C321.413 253.699 321.382 253.957 321.367 254.155ZM315.157 252.773H319.18C319.013 251.741 318.239 251.073 317.176 251.073C316.098 251.073 315.324 251.726 315.157 252.773Z" fill="white" />
	<path d="M327.956 257.571L326.165 255.066L324.312 257.571H321.731L324.874 253.457L321.838 249.403H324.495L326.225 251.787L328.001 249.403H330.522L327.485 253.396L330.643 257.571H327.956Z" fill="white" />
	<path d="M337.069 257.176C336.584 257.526 335.87 257.693 335.141 257.693C333.212 257.693 332.089 256.706 332.089 254.762V251.407H330.828V249.585H332.089V247.596H334.457V249.585H336.491V251.407H334.457V254.732C334.457 255.43 334.837 255.81 335.474 255.81C335.823 255.81 336.172 255.703 336.43 255.506L337.069 257.176Z" fill="white" />
	<path d="M106.574 127.347C107.811 127.345 142.009 127.286 201.535 127.184H201.698V127.348C201.705 136.956 201.711 147.394 201.719 158.433L201.535 158.249C250.564 158.231 311.983 158.209 380.727 158.184H380.977V158.434C380.98 196.25 380.984 237.19 380.988 279.573V279.593V279.853H380.728C275.733 279.829 179.615 279.808 106.574 279.791H106.375V279.592C106.497 186.041 106.572 128.941 106.574 127.347C106.576 128.939 106.651 186.041 106.773 279.592L106.574 279.393C179.615 279.377 275.733 279.355 380.728 279.331L380.468 279.591V279.571C380.472 237.188 380.475 196.248 380.479 158.432L380.728 158.681C311.984 158.656 250.565 158.634 201.536 158.616H201.351V158.432C201.358 147.393 201.365 136.955 201.372 127.347L201.535 127.51C142.009 127.408 107.81 127.349 106.574 127.347Z" fill="#263238" />
	<path d="M115.723 102.832C115.723 104.52 114.355 105.887 112.668 105.887C110.98 105.887 109.613 104.519 109.613 102.832C109.613 101.145 110.981 99.777 112.668 99.777C114.355 99.777 115.723 101.145 115.723 102.832Z" fill="white" />
	<path d="M125.247 102.832C125.247 104.52 123.879 105.887 122.192 105.887C120.505 105.887 119.137 104.519 119.137 102.832C119.137 101.145 120.505 99.777 122.192 99.777C123.879 99.777 125.247 101.145 125.247 102.832Z" fill="white" />
	<path d="M134.771 102.832C134.771 104.52 133.403 105.887 131.715 105.887C130.028 105.887 128.66 104.519 128.66 102.832C128.66 101.145 130.028 99.777 131.715 99.777C133.403 99.777 134.771 101.145 134.771 102.832Z" fill="white" />
	<path d="M391.257 293.111C391.255 291.394 391.175 214.201 391.048 91.646L391.257 91.855C310.201 91.869 208.673 91.887 98.7669 91.906H98.7429L99.0029 91.646C98.9949 163.588 98.9869 231.932 98.9799 293.111L98.7419 292.873C271.311 293.013 389.139 293.109 391.257 293.111C389.141 293.113 271.311 293.209 98.7439 293.349H98.5059V293.111C98.4989 231.932 98.4909 163.588 98.4829 91.646V91.386H98.7429H98.7669C208.672 91.405 310.201 91.423 391.257 91.437H391.467V91.647C391.339 214.201 391.259 291.395 391.257 293.111Z" fill="#263238" />
	<path d="M150.94 258.274C139.693 264.1 131.069 274.13 124.868 285.174C118.667 296.218 114.67 308.337 110.711 320.368L107.247 382.418C120.333 360.155 130.837 333.984 133.675 308.316C130.772 308.057 127.869 307.799 124.967 307.54C130.806 306.649 135.707 302.418 138.825 297.402C141.943 292.386 143.548 286.601 145.115 280.906C141.573 281.432 138.032 281.959 134.49 282.485C142.811 276.933 148.842 268.054 150.94 258.274Z" fill="#455A64" />
	<g opacity="0.3">
		<path d="M150.94 258.274C139.693 264.1 131.069 274.13 124.868 285.174C118.667 296.218 114.67 308.337 110.711 320.368L107.247 382.418C120.333 360.155 130.837 333.984 133.675 308.316C130.772 308.057 127.869 307.799 124.967 307.54C130.806 306.649 135.707 302.418 138.825 297.402C141.943 292.386 143.548 286.601 145.115 280.906C141.573 281.432 138.032 281.959 134.49 282.485C142.811 276.933 148.842 268.054 150.94 258.274Z" fill="black" />
	</g>
	<path d="M105.31 396.958C105.31 396.958 76.9063 362.96 77.2343 330.505H88.7083C88.7083 330.505 76.2453 322.309 77.2313 317.72C78.2173 313.13 78.5453 295.755 78.5453 295.755L89.0363 298.378C89.0363 298.378 81.1683 294.444 80.1853 288.215C79.2023 281.986 82.4803 253.137 82.4803 253.137C82.4803 253.137 95.2653 266.578 99.1993 280.347C103.133 294.116 113.459 310.18 110.427 352.142C107.394 394.104 105.31 396.958 105.31 396.958Z" fill="#455A64" />
	<path d="M119.71 400.167C119.71 400.167 150.483 379.667 157.32 353.502L148.095 350.992C148.095 350.992 159.908 347.13 160.119 343.224C160.33 339.318 163.868 325.277 163.868 325.277L154.86 325.09C154.86 325.09 162.046 323.649 164.2 318.856C166.353 314.063 170.029 290.152 170.029 290.152C170.029 290.152 156.809 298.161 150.634 308.37C144.459 318.579 132.642 329.235 125.899 363.634C119.158 398.035 119.71 400.167 119.71 400.167Z" fill="#455A64" />
	<path d="M90.2382 282.779C90.2472 282.777 90.2812 282.897 90.3402 283.132C90.4022 283.393 90.4832 283.739 90.5872 284.178C90.8002 285.131 91.1022 286.484 91.4872 288.213C91.8802 289.964 92.3382 292.113 92.8342 294.614C93.3392 297.113 93.9282 299.957 94.5042 303.115C95.7202 309.418 97.0032 316.955 98.3242 325.339C99.6042 333.73 100.883 342.975 102.02 352.704C103.134 362.439 103.998 371.734 104.666 380.197C105.293 388.663 105.763 396.294 106.017 402.708C106.177 405.914 106.252 408.817 106.331 411.365C106.418 413.913 106.463 416.109 106.479 417.904C106.498 419.675 106.513 421.061 106.523 422.037C106.522 422.488 106.522 422.843 106.521 423.112C106.518 423.354 106.512 423.478 106.503 423.479C106.494 423.479 106.482 423.355 106.468 423.113C106.455 422.845 106.439 422.49 106.418 422.039C106.384 421.064 106.337 419.678 106.276 417.909C106.228 416.115 106.154 413.922 106.039 411.375C105.933 408.828 105.832 405.928 105.649 402.725C105.348 396.316 104.839 388.692 104.187 380.234C103.493 371.779 102.615 362.492 101.502 352.763C100.366 343.041 99.1032 333.8 97.8492 325.411C96.5552 317.028 95.3102 309.49 94.1412 303.181C93.5892 300.021 93.0252 297.174 92.5482 294.67C92.0792 292.165 91.6512 290.011 91.2882 288.254C90.9432 286.517 90.6742 285.157 90.4842 284.2C90.4022 283.756 90.3372 283.407 90.2882 283.143C90.2462 282.904 90.2292 282.781 90.2382 282.779Z" fill="#263238" />
	<path d="M101.37 417.777C101.37 417.777 75.3772 388.284 67.3062 370.455L73.3992 367.852C68.9832 368.581 64.4582 366.683 61.0332 363.8C57.6082 360.917 55.0942 357.126 52.6282 353.39L60.6552 352.034C53.3562 349.986 46.9262 345.005 43.1182 338.449C52.5902 340.006 61.1582 345.209 68.2192 351.711C73.9372 356.977 78.7802 363.09 83.4302 369.335C85.6982 372.382 87.6832 375.628 89.3372 379.047C93.7042 388.078 101.385 406.945 101.37 417.777Z" fill="#455A64" />
	<path d="M157.729 307.319C157.737 307.323 157.696 307.425 157.609 307.619C157.507 307.838 157.375 308.12 157.209 308.476C156.832 309.255 156.302 310.351 155.626 311.748C154.232 314.579 152.257 318.697 149.868 323.809C147.471 328.917 144.713 335.043 141.75 341.888C138.812 348.744 135.682 356.324 132.569 364.349C129.473 372.384 126.688 380.1 124.25 387.15C121.837 394.209 119.756 400.598 118.093 405.99C116.422 411.379 115.113 415.754 114.24 418.786C113.801 420.274 113.456 421.441 113.211 422.271C113.095 422.646 113.002 422.944 112.931 423.174C112.865 423.377 112.827 423.479 112.818 423.477C112.809 423.475 112.83 423.367 112.879 423.16C112.938 422.926 113.014 422.624 113.11 422.243C113.333 421.407 113.646 420.23 114.046 418.73C114.859 415.68 116.116 411.287 117.742 405.881C119.36 400.472 121.407 394.067 123.797 386.994C126.213 379.93 128.986 372.202 132.085 364.16C135.201 356.128 138.347 348.547 141.312 341.696C144.302 334.856 147.096 328.74 149.537 323.65C151.97 318.556 153.996 314.46 155.447 311.656C156.16 310.278 156.72 309.196 157.118 308.427C157.303 308.081 157.45 307.806 157.564 307.593C157.664 307.409 157.721 307.315 157.729 307.319Z" fill="#263238" />
	<path d="M103.575 430.415C103.557 430.417 103.515 430.23 103.452 429.873C103.385 429.458 103.301 428.94 103.199 428.308C103.1 427.627 102.973 426.795 102.793 425.834C102.618 424.873 102.45 423.773 102.188 422.571C101.722 420.157 101.054 417.305 100.203 414.17C99.324 411.042 98.247 407.635 96.932 404.123C95.597 400.618 94.154 397.348 92.746 394.419C91.312 391.503 89.929 388.922 88.683 386.802C88.085 385.727 87.484 384.791 86.981 383.954C86.481 383.114 86.026 382.406 85.651 381.83C85.31 381.288 85.03 380.844 84.806 380.488C84.618 380.178 84.526 380.01 84.54 380C84.555 379.99 84.675 380.138 84.892 380.429C85.138 380.771 85.444 381.197 85.819 381.718C86.221 382.278 86.702 382.972 87.226 383.799C87.755 384.623 88.379 385.549 89 386.616C90.29 388.719 91.713 391.293 93.177 394.21C94.615 397.14 96.079 400.42 97.42 403.942C98.741 407.47 99.81 410.898 100.667 414.047C101.496 417.203 102.129 420.075 102.551 422.506C102.79 423.716 102.933 424.824 103.082 425.792C103.235 426.76 103.333 427.598 103.401 428.284C103.464 428.922 103.516 429.445 103.557 429.864C103.586 430.222 103.593 430.413 103.575 430.415Z" fill="#263238" />
	<path d="M137.874 423.477H80.9844V435.082H137.874V423.477Z" fill="#40A944" />
	<path d="M86.4053 435.082L92.5583 474.116H126.935L132.671 435.082H86.4053Z" fill="#40A944" />
	<path d="M134.384 435.082C134.384 435.226 123.622 435.342 110.349 435.342C97.072 435.342 86.312 435.225 86.312 435.082C86.312 434.938 97.072 434.822 110.349 434.822C123.622 434.822 134.384 434.938 134.384 435.082Z" fill="#263238" />
	<path d="M398.551 438.766L400.879 461.198C400.879 461.198 378.86 471.098 378.886 475.285L422.543 472.333L420.35 437.232L398.551 438.766Z" fill="#455A64" />
	<g opacity="0.3">
		<path d="M398.551 438.766L400.879 461.198C400.879 461.198 378.86 471.098 378.886 475.285L422.543 472.333L420.35 437.232L398.551 438.766Z" fill="black" />
	</g>
	<g opacity="0.6">
		<path d="M414.25 458.394C415.111 458.568 415.759 459.479 415.62 460.346C415.482 461.213 414.561 461.88 413.698 461.721C412.835 461.562 412.023 460.493 412.258 459.647C412.492 458.801 413.616 458.077 414.416 458.438" fill="white" />
	</g>
	<g opacity="0.6">
		<path d="M422.543 472.334L422.184 468.804L380.461 472.954C380.461 472.954 378.575 473.931 378.887 475.285L422.543 472.334Z" fill="white" />
	</g>
	<path d="M400.156 461.024C400.177 461.237 401.25 461.261 402.345 461.876C403.456 462.462 404.059 463.349 404.25 463.251C404.444 463.196 404.04 461.943 402.7 461.222C401.368 460.49 400.097 460.831 400.156 461.024Z" fill="#263238" />
	<path d="M395.706 463.228C395.671 463.438 396.619 463.738 397.404 464.591C398.214 465.421 398.462 466.383 398.674 466.359C398.877 466.379 398.94 465.12 397.943 464.079C396.957 463.028 395.697 463.024 395.706 463.228Z" fill="#263238" />
	<path d="M393.475 468.884C393.672 468.917 393.896 467.831 393.27 466.701C392.652 465.565 391.615 465.173 391.537 465.357C391.428 465.54 392.118 466.123 392.618 467.059C393.14 467.982 393.262 468.877 393.475 468.884Z" fill="#263238" />
	<path d="M400.194 455.853C400.297 456.041 401.255 455.681 402.465 455.681C403.675 455.656 404.64 455.998 404.739 455.807C404.852 455.645 403.883 454.917 402.457 454.937C401.032 454.946 400.078 455.693 400.194 455.853Z" fill="#263238" />
	<path d="M399.806 451.319C399.81 451.407 400.661 451.482 401.992 451.16C402.654 450.998 403.429 450.726 404.232 450.302C404.633 450.09 405.041 449.841 405.443 449.551C405.635 449.408 405.865 449.262 406.068 448.992C406.289 448.754 406.385 448.179 406.089 447.851C405.843 447.531 405.438 447.413 405.122 447.427C404.8 447.438 404.543 447.521 404.31 447.596C403.832 447.747 403.387 447.939 402.982 448.154C402.173 448.59 401.528 449.116 401.055 449.614C400.106 450.621 399.814 451.44 399.889 451.476C399.99 451.54 400.438 450.839 401.416 449.995C401.904 449.575 402.534 449.132 403.292 448.765C403.672 448.583 404.084 448.421 404.521 448.293C404.975 448.14 405.368 448.11 405.501 448.308C405.549 448.384 405.557 448.414 405.469 448.556C405.377 448.688 405.199 448.822 405.009 448.964C404.64 449.242 404.266 449.487 403.898 449.702C403.162 450.131 402.451 450.438 401.839 450.655C400.614 451.089 399.795 451.203 399.806 451.319Z" fill="#263238" />
	<path d="M400.105 451.605C400.183 451.633 400.554 450.84 400.539 449.454C400.529 448.767 400.402 447.941 400.079 447.08C399.916 446.651 399.702 446.214 399.432 445.79C399.147 445.376 398.796 444.82 397.963 444.781C397.53 444.794 397.194 445.156 397.091 445.452C396.967 445.757 396.955 446.012 396.921 446.269C396.875 446.784 396.918 447.284 397.019 447.742C397.219 448.662 397.652 449.409 398.106 449.937C399.036 451.011 399.942 451.205 399.955 451.132C400.019 451.02 399.248 450.659 398.522 449.616C398.164 449.102 397.83 448.415 397.691 447.608C397.621 447.207 397.598 446.777 397.645 446.342C397.682 445.873 397.831 445.488 398.008 445.523C398.225 445.505 398.618 445.83 398.821 446.187C399.071 446.563 399.277 446.952 399.443 447.336C399.77 448.106 399.94 448.854 400.014 449.489C400.161 450.767 399.987 451.581 400.105 451.605Z" fill="#263238" />
	<path d="M394.033 278.62C394.033 278.62 372.551 361.797 371.959 369.636C371.366 377.475 398.801 445.744 398.801 445.744L419.937 441.753C419.937 441.753 418.594 341.808 417.909 339.848C417.224 337.888 423.31 288.769 423.31 288.769L394.033 278.62Z" fill="#263238" />
	<path d="M408.27 439.81L408.503 462.362C408.503 462.362 385.659 470.173 385.296 474.345L429.033 474.801L430.116 440.31L408.27 439.81Z" fill="#455A64" />
	<g opacity="0.6">
		<path d="M422.078 460.812C422.919 461.065 423.479 462.032 423.261 462.882C423.043 463.732 422.064 464.311 421.219 464.073C420.374 463.835 419.666 462.695 419.978 461.874C420.29 461.053 421.476 460.436 422.239 460.871" fill="white" />
	</g>
	<g opacity="0.6">
		<path d="M429.034 474.801L429.01 471.915L387.081 472.17C387.081 472.17 385.112 472.967 385.297 474.345L429.034 474.801Z" fill="white" />
	</g>
	<path d="M407.801 462.121C407.803 462.335 408.868 462.459 409.902 463.173C410.954 463.86 411.472 464.798 411.671 464.719C411.869 464.683 411.583 463.397 410.316 462.555C409.057 461.702 407.759 461.924 407.801 462.121Z" fill="#263238" />
	<path d="M403.164 463.902C403.11 464.108 404.026 464.495 404.728 465.416C405.457 466.317 405.615 467.299 405.828 467.295C406.028 467.334 406.208 466.086 405.312 464.957C404.428 463.819 403.174 463.698 403.164 463.902Z" fill="#263238" />
	<path d="M400.418 469.326C400.611 469.377 400.935 468.317 400.417 467.133C399.907 465.945 398.911 465.458 398.817 465.634C398.692 465.807 399.324 466.451 399.735 467.429C400.168 468.397 400.206 469.3 400.418 469.326Z" fill="#263238" />
	<path d="M408.318 456.976C408.403 457.173 409.39 456.903 410.595 457.016C411.802 457.104 412.731 457.534 412.847 457.353C412.975 457.202 412.078 456.388 410.656 456.275C409.236 456.151 408.217 456.806 408.318 456.976Z" fill="#263238" />
	<g opacity="0.3">
		<path d="M408.322 444.277L408.358 448.296L429.862 448.649L429.982 445.032L408.322 444.277Z" fill="black" />
	</g>
	<path d="M408.355 452.425C408.351 452.513 409.191 452.667 410.546 452.47C411.22 452.371 412.017 452.172 412.856 451.824C413.275 451.65 413.704 451.44 414.131 451.189C414.336 451.065 414.577 450.94 414.805 450.691C415.047 450.475 415.198 449.911 414.933 449.557C414.717 449.215 414.325 449.06 414.01 449.045C413.688 449.026 413.424 449.085 413.184 449.138C412.694 449.243 412.234 449.393 411.811 449.571C410.965 449.93 410.274 450.393 409.757 450.845C408.718 451.759 408.35 452.548 408.422 452.591C408.517 452.664 409.028 452.008 410.08 451.259C410.605 450.886 411.274 450.504 412.063 450.208C412.458 450.062 412.883 449.939 413.33 449.852C413.797 449.742 414.19 449.749 414.304 449.958C414.345 450.038 414.351 450.069 414.251 450.202C414.147 450.324 413.957 450.442 413.755 450.566C413.362 450.808 412.966 451.018 412.58 451.198C411.807 451.557 411.071 451.797 410.442 451.956C409.18 452.272 408.354 452.31 408.355 452.425Z" fill="#263238" />
	<path d="M408.626 452.739C408.701 452.774 409.144 452.019 409.258 450.638C409.312 449.953 409.262 449.119 409.02 448.232C408.897 447.789 408.725 447.335 408.496 446.888C408.251 446.449 407.953 445.863 407.127 445.746C406.695 445.719 406.326 446.048 406.196 446.333C406.044 446.625 406.009 446.879 405.951 447.131C405.857 447.64 405.854 448.141 405.912 448.606C406.026 449.541 406.387 450.325 406.79 450.893C407.616 452.048 408.501 452.326 408.52 452.254C408.594 452.148 407.86 451.717 407.234 450.611C406.925 450.066 406.657 449.35 406.594 448.535C406.561 448.129 406.578 447.699 406.667 447.27C406.747 446.807 406.931 446.436 407.104 446.488C407.321 446.49 407.682 446.85 407.852 447.225C408.067 447.623 408.235 448.029 408.365 448.426C408.619 449.223 408.719 449.983 408.733 450.623C408.759 451.909 408.51 452.703 408.626 452.739Z" fill="#263238" />
	<path d="M447.943 278.62L443.916 273.24L394.767 274.593L401.822 362.04L406.196 446.333L431.691 447.223C432.993 430.952 432.527 397.548 432.527 397.548L434.356 383.182L440.843 332.589C441.335 330.44 443.139 319.714 444.997 311.123C446.063 306.187 450.081 293.337 447.943 278.62Z" fill="#263238" />
	<path d="M397.628 294.715C397.637 294.715 397.639 294.848 397.634 295.107C397.626 295.39 397.616 295.77 397.602 296.256C397.562 297.293 397.505 298.775 397.431 300.672C397.346 302.589 397.248 304.934 397.167 307.658C397.082 310.382 396.951 313.483 396.888 316.913C396.701 323.771 396.6 331.94 396.633 341.009C396.701 350.078 396.919 360.048 397.429 370.502C397.967 380.958 398.759 390.901 399.657 399.926C400.152 404.434 400.589 408.722 401.132 412.718C401.394 414.717 401.616 416.653 401.883 418.506C402.154 420.358 402.414 422.135 402.662 423.833C403.129 427.231 403.678 430.286 404.112 432.976C404.537 435.668 404.958 437.977 405.313 439.862C405.65 441.729 405.913 443.189 406.098 444.21C406.179 444.689 406.242 445.064 406.289 445.343C406.329 445.599 406.346 445.731 406.337 445.733C406.328 445.735 406.295 445.606 406.238 445.354C406.179 445.078 406.099 444.705 405.997 444.23C405.791 443.213 405.497 441.759 405.12 439.898C404.735 438.018 404.286 435.713 403.834 433.024C403.373 430.337 402.8 427.284 402.31 423.887C402.051 422.19 401.78 420.412 401.498 418.561C401.22 416.708 400.988 414.773 400.717 412.773C400.156 408.775 399.702 404.486 399.195 399.975C398.271 390.944 397.465 380.993 396.926 370.529C396.416 360.067 396.212 350.089 396.169 341.013C396.162 331.937 396.299 323.764 396.532 316.905C396.618 313.474 396.774 310.373 396.886 307.649C396.994 304.925 397.12 302.58 397.235 300.664C397.349 298.769 397.438 297.288 397.5 296.252C397.534 295.767 397.561 295.387 397.581 295.105C397.605 294.847 397.62 294.715 397.628 294.715Z" fill="#455A64" />
	<path d="M405.858 163.756C405.984 161.041 404.971 158.421 404.117 155.841C403.263 153.261 402.551 150.472 403.278 147.853C404.192 144.559 407.158 142.269 408.748 139.243C410.346 136.203 410.458 132.636 410.74 129.213C411.022 125.791 411.603 122.168 413.87 119.589C416.739 116.327 424.254 115.74 427.796 118.254C428.344 137.712 432.953 157.412 428.789 176.426C419.298 176.83 409.708 174.539 401.424 169.89C404.089 169.347 405.732 166.471 405.858 163.756Z" fill="#E0E0E0" />
	<path d="M447.33 182.571L450.012 128.847C450.116 126.687 448.55 124.807 446.407 124.519L424.475 118.308C417.422 117.359 412.47 125.937 411.821 133.024C411.1 140.898 410.53 150.54 411.297 156.452C412.84 168.34 421.868 170.104 421.868 170.104C421.858 181.812 421.621 182.681 421.621 182.681L426.088 191.893L447.33 182.571Z" fill="#FFBE9D" />
	<path d="M414.459 142.851C414.408 143.652 415.044 144.355 415.879 144.424C416.712 144.492 417.431 143.901 417.483 143.1C417.534 142.299 416.898 141.595 416.065 141.526C415.229 141.457 414.51 142.05 414.459 142.851Z" fill="#263238" />
	<path d="M413.772 138.104C413.954 138.307 415.129 137.489 416.762 137.54C418.394 137.567 419.569 138.442 419.752 138.247C419.842 138.161 419.66 137.798 419.149 137.403C418.646 137.01 417.78 136.617 416.763 136.593C415.745 136.57 414.879 136.92 414.376 137.289C413.862 137.659 413.682 138.012 413.772 138.104Z" fill="#263238" />
	<path d="M428.312 143.309C428.261 144.11 428.897 144.813 429.732 144.882C430.565 144.95 431.284 144.359 431.335 143.558C431.386 142.757 430.75 142.053 429.917 141.984C429.081 141.915 428.363 142.508 428.312 143.309Z" fill="#263238" />
	<path d="M429.818 138.864C430.001 139.067 431.177 138.249 432.808 138.3C434.44 138.327 435.615 139.201 435.798 139.006C435.887 138.92 435.708 138.557 435.194 138.162C434.691 137.769 433.826 137.376 432.808 137.351C431.79 137.328 430.924 137.678 430.421 138.047C429.909 138.42 429.728 138.773 429.818 138.864Z" fill="#263238" />
	<path d="M423.546 150.809C423.556 150.717 422.546 150.512 420.907 150.255C420.491 150.2 420.099 150.106 420.037 149.819C419.947 149.515 420.135 149.07 420.351 148.591C420.772 147.593 421.212 146.547 421.674 145.45C423.515 140.977 424.861 137.294 424.68 137.222C424.499 137.149 422.86 140.716 421.019 145.189C420.575 146.292 420.151 147.344 419.747 148.35C419.576 148.819 419.289 149.349 419.484 149.981C419.587 150.296 419.887 150.53 420.153 150.61C420.418 150.699 420.652 150.71 420.859 150.728C422.51 150.865 423.537 150.901 423.546 150.809Z" fill="#263238" />
	<path d="M421.869 170.104C421.869 170.104 429.816 170.844 437.839 166.326C437.839 166.326 433.621 174.648 421.808 173.204L421.869 170.104Z" fill="#EB996E" />
	<path d="M423.678 154.699C424.5 153.604 425.81 152.956 427.037 153.038C427.888 153.095 428.71 153.512 429.153 154.268C429.596 155.024 429.591 156.132 429.039 156.906C428.417 157.778 427.278 158.034 426.361 157.784C425.445 157.534 424.701 156.881 423.998 156.229C423.804 156.048 423.605 155.86 423.499 155.603C423.392 155.347 423.399 155.004 423.587 154.776" fill="#EB996E" />
	<path d="M428.321 152.075C428.056 152.052 428.002 153.825 426.449 155.04C424.899 156.259 423.014 156.007 422.994 156.254C422.966 156.365 423.405 156.61 424.202 156.655C424.984 156.704 426.133 156.485 427.084 155.742C428.032 154.997 428.459 153.978 428.54 153.253C428.628 152.513 428.442 152.068 428.321 152.075Z" fill="#263238" />
	<path d="M429.287 132.12C429.435 132.569 431.072 132.405 432.981 132.69C434.897 132.937 436.426 133.542 436.692 133.151C436.811 132.964 436.553 132.538 435.941 132.091C435.334 131.644 434.357 131.208 433.211 131.047C432.064 130.888 431.006 131.041 430.3 131.305C429.588 131.568 429.224 131.907 429.287 132.12Z" fill="#E0E0E0" />
	<path d="M414.507 132.499C414.784 132.878 415.92 132.525 417.273 132.545C418.627 132.518 419.765 132.865 420.039 132.485C420.16 132.3 419.99 131.923 419.499 131.558C419.016 131.194 418.199 130.885 417.268 130.886C416.338 130.889 415.523 131.202 415.041 131.569C414.553 131.937 414.385 132.314 414.507 132.499Z" fill="#E0E0E0" />
	<path d="M421.858 117.635C423.89 112.77 428.288 112.344 433 111.84C437.712 111.337 444.71 113.284 448.603 115.833C451.64 117.822 455.059 120.338 457.24 123.15C459.332 125.847 460.267 128.931 461.56 132.04C463.575 136.882 463.45 142.234 463.734 147.428C464.09 153.951 465.137 160.44 466.854 166.768C467.469 169.036 468.098 171.75 464.888 173.055C464.295 173.296 463.66 173.43 463.02 173.508C458.029 174.111 453.21 175.728 447.667 176.082L444.243 176.074C439.908 176.074 437.692 173.286 437.84 169.745C438.286 159.055 443.501 141.497 444.074 138.128C444.074 138.128 445.874 114.47 421.858 117.635Z" fill="#E0E0E0" />
	<path d="M423.429 118.116C424.966 119.201 425.669 121.137 425.921 123.002C426.173 124.867 426.065 126.773 426.413 128.622C427.109 132.321 429.731 135.601 433.185 137.095C434.285 137.571 435.798 137.764 436.478 136.776C436.345 139.386 438.011 141.992 440.435 142.967C442.188 143.672 444.154 143.561 445.998 143.971C447.842 144.382 449.779 145.653 449.874 147.54L450.65 134.4L446.957 122.781L435.598 116.02L423.429 118.116Z" fill="#E0E0E0" />
	<path d="M443.556 139.778C443.574 139.752 443.11 139.534 442.471 138.899C441.842 138.26 441.126 137.136 440.68 135.587C440.218 134.043 440.038 132.12 439.887 129.99C439.728 127.862 439.636 125.494 439.085 123.068C438.532 120.654 437.496 118.428 435.989 116.862C435.24 116.084 434.396 115.46 433.508 115.08C432.627 114.69 431.738 114.494 430.923 114.442C429.28 114.336 427.974 114.824 427.22 115.322C427.022 115.436 426.867 115.568 426.731 115.678C426.591 115.783 426.485 115.888 426.405 115.977C426.24 116.15 426.156 116.243 426.162 116.248C426.186 116.275 426.5 115.866 427.266 115.396C428.022 114.93 429.306 114.477 430.912 114.601C432.5 114.713 434.4 115.425 435.839 117.005C437.304 118.543 438.319 120.732 438.866 123.118C439.411 125.515 439.51 127.874 439.681 130.004C439.843 132.135 440.04 134.072 440.528 135.632C440.999 137.195 441.751 138.33 442.409 138.96C443.078 139.587 443.556 139.778 443.556 139.778Z" fill="white" />
	<path d="M453.425 138.193C453.434 138.151 452.763 138.199 451.689 137.761C450.622 137.321 449.255 136.267 448.064 134.572C447.473 133.727 446.884 132.748 446.397 131.637C445.905 130.529 445.632 129.249 445.468 127.893C445.304 126.534 445.246 125.093 445.089 123.601C445.005 122.856 444.902 122.097 444.728 121.338C444.552 120.58 444.303 119.825 443.978 119.093C442.639 116.167 440.191 114.017 437.629 112.976C435.051 111.903 432.422 111.972 430.412 112.488C428.374 112.995 426.905 113.915 425.991 114.628C425.076 115.353 424.672 115.862 424.672 115.862C424.675 115.865 424.706 115.839 424.765 115.787C424.832 115.725 424.916 115.647 425.02 115.551C425.13 115.445 425.267 115.315 425.442 115.176C425.615 115.036 425.805 114.862 426.044 114.697C426.967 114.011 428.433 113.123 430.45 112.642C432.44 112.152 435.024 112.103 437.549 113.166C440.06 114.198 442.46 116.316 443.772 119.185C444.091 119.903 444.334 120.64 444.508 121.386C444.68 122.133 444.783 122.883 444.868 123.623C445.028 125.104 445.09 126.548 445.26 127.917C445.431 129.284 445.714 130.584 446.224 131.711C446.725 132.835 447.326 133.813 447.932 134.664C449.152 136.365 450.559 137.42 451.653 137.841C452.201 138.048 452.65 138.138 452.955 138.168C453.097 138.177 453.212 138.185 453.304 138.191C453.385 138.197 453.425 138.197 453.425 138.193Z" fill="#455A64" />
	<path d="M436.477 136.777C436.474 136.777 436.475 136.815 436.481 136.888C436.489 136.973 436.5 137.08 436.513 137.215C436.531 137.358 436.54 137.538 436.578 137.747C436.621 137.957 436.67 138.197 436.725 138.467C436.88 138.997 437.071 139.659 437.48 140.345C437.873 141.034 438.457 141.758 439.273 142.359C440.896 143.597 443.39 144.173 446.089 144.044C447.444 143.984 448.867 143.771 450.309 143.388C451.749 143.004 453.227 142.477 454.617 141.656L454.887 141.497L454.576 141.452C452.916 141.213 451.228 140.708 449.629 139.92L449.545 139.879L449.476 140.091C453.2 140.706 456.891 139.873 459.712 138.255L459.916 138.138L459.693 138.066C457.327 137.299 455.228 136.27 453.62 134.992C452.008 133.72 450.96 132.178 450.453 130.778C449.934 129.366 449.955 128.152 449.933 127.349C449.963 126.955 449.987 126.646 450.004 126.422C450.01 126.325 450.014 126.246 450.018 126.182C450.02 126.128 450.02 126.1 450.017 126.1C450.014 126.1 450.009 126.126 450.001 126.18C449.993 126.244 449.983 126.321 449.97 126.418C449.945 126.643 449.91 126.952 449.866 127.347C449.867 128.155 449.825 129.382 450.335 130.822C450.832 132.25 451.886 133.83 453.512 135.13C455.133 136.437 457.248 137.484 459.629 138.265L459.61 138.076C456.823 139.662 453.183 140.476 449.514 139.87L448.752 139.744L449.446 140.082L449.531 140.123C451.151 140.921 452.863 141.433 454.546 141.672L454.504 141.468C453.144 142.275 451.68 142.802 450.257 143.186C448.83 143.569 447.421 143.786 446.082 143.852C443.412 143.992 440.958 143.44 439.359 142.244C438.555 141.663 437.975 140.961 437.579 140.289C437.167 139.62 436.967 138.97 436.802 138.448C436.741 138.182 436.686 137.945 436.638 137.738C436.594 137.532 436.579 137.353 436.554 137.212C436.533 137.079 436.516 136.972 436.503 136.888C436.489 136.813 436.481 136.776 436.477 136.777Z" fill="#455A64" />
	<path d="M460.771 169.122C460.833 169.115 460.114 162.789 459.167 154.994C458.219 147.196 457.4 140.882 457.338 140.889C457.276 140.896 457.994 147.22 458.943 155.018C459.891 162.813 460.709 169.128 460.771 169.122Z" fill="#455A64" />
	<path d="M454.069 170.659C454.077 170.66 454.09 170.568 454.109 170.393C454.127 170.196 454.151 169.942 454.18 169.628C454.238 168.963 454.306 168 454.374 166.809C454.512 164.427 454.629 161.133 454.62 157.493C454.608 153.852 454.471 150.557 454.319 148.176C454.244 146.986 454.171 146.023 454.109 145.358C454.078 145.044 454.053 144.79 454.033 144.593C454.013 144.418 453.999 144.327 453.991 144.327C453.983 144.328 453.982 144.42 453.987 144.596C453.996 144.793 454.007 145.048 454.02 145.363C454.054 146.055 454.101 147.012 454.159 148.183C454.27 150.564 454.382 153.855 454.393 157.493C454.403 161.129 454.31 164.421 454.213 166.802C454.162 167.974 454.121 168.931 454.091 169.623C454.079 169.939 454.07 170.193 454.062 170.391C454.059 170.566 454.061 170.659 454.069 170.659Z" fill="white" />
	<path d="M436.512 141.956C436.57 142.088 436.197 142.379 435.68 142.607C435.162 142.835 434.696 142.913 434.638 142.782C434.58 142.65 434.952 142.359 435.47 142.131C435.987 141.902 436.454 141.824 436.512 141.956Z" fill="#EB996E" />
	<path d="M431.78 152.682C431.631 152.684 431.52 152.05 431.055 151.461C430.608 150.859 430.024 150.586 430.065 150.443C430.077 150.301 430.897 150.393 431.469 151.145C432.045 151.891 431.92 152.707 431.78 152.682Z" fill="#EB996E" />
	<path d="M412.868 143.047C412.794 143.172 412.591 143.19 412.389 143.162C412.188 143.129 411.999 143.05 411.967 142.909C411.933 142.771 412.16 142.6 412.469 142.648C412.777 142.694 412.942 142.926 412.868 143.047Z" fill="#EB996E" />
	<path d="M413.145 144.017C413.216 144.142 413.166 144.305 413.032 144.382C412.898 144.459 412.732 144.419 412.66 144.295C412.589 144.17 412.639 144.007 412.773 143.93C412.907 143.853 413.074 143.892 413.145 144.017Z" fill="#EB996E" />
	<path d="M435.855 176.368C435.797 176.396 435.599 176.162 435.549 175.684C435.526 175.449 435.547 175.157 435.661 174.854C435.793 174.532 435.917 174.343 435.815 174.194C435.725 174.007 435.413 173.775 435.273 173.453C435.131 173.147 435.109 172.842 435.146 172.602C435.224 172.11 435.485 171.91 435.531 171.951C435.598 171.992 435.486 172.238 435.514 172.62C435.526 172.809 435.58 173.03 435.699 173.233C435.798 173.441 436.048 173.568 436.28 173.959C436.396 174.158 436.388 174.453 436.309 174.626C436.239 174.808 436.153 174.931 436.103 175.04C435.994 175.263 435.941 175.49 435.917 175.685C435.87 176.077 435.927 176.341 435.855 176.368Z" fill="#EB996E" />
	<path d="M448.069 176.472L421.661 181.037C421.661 181.037 404.015 200.396 398.793 217.917C395.711 228.256 387.918 274.421 385.396 289.583C384.928 292.396 386.526 295.138 389.202 296.125L451.075 297.231C451.075 297.231 451.075 297.231 451.878 291.122C453.263 280.589 444.378 262.964 444.378 262.964L455.959 205.709C459.285 191.369 448.069 176.472 448.069 176.472Z" fill="#40A944" />
	<g opacity="0.3">
		<path d="M428.479 252.308C422.359 255.628 391.723 259.121 391.723 259.121C391.723 259.121 405.427 265.55 418.044 264.075C430.66 262.6 435.142 259.678 437.965 253.254C440.787 246.83 446.072 224.384 446.072 224.384C446.072 224.384 434.598 248.988 428.479 252.308Z" fill="black" />
	</g>
	<path d="M357.101 263.884C357.542 263.943 357.983 264.001 358.424 264.06C358.569 264.079 358.729 264.095 358.85 264.013C359.003 263.908 359.026 263.692 359.007 263.508C358.943 262.864 358.555 262.279 358.039 261.888C357.523 261.497 356.889 261.286 356.249 261.186C355.954 261.14 355.625 261.124 355.383 261.3C355.143 261.475 355.058 261.788 355 262.079C354.921 262.473 354.861 262.872 354.822 263.272C354.803 263.465 354.799 263.687 354.937 263.823C355.043 263.928 355.204 263.95 355.352 263.967C355.918 264.031 356.536 263.819 357.101 263.884Z" fill="#EB996E" />
	<path d="M354.147 245.413C352.899 246.147 347.044 249.096 347.044 249.096L340.019 256.411C340.019 256.411 341.922 258.565 343.476 257.217C345.03 255.869 346.879 254.58 346.879 254.58L350.131 253.016C350.131 253.016 347.761 258.493 348.074 259.076C348.388 259.659 349.108 260.047 349.108 260.047C349.108 260.047 349.348 261.934 350.943 263.168L353.588 266.999L359.286 267.19C359.286 267.19 359.229 265.797 358.248 264.868C357.267 263.938 355.344 264.271 355.344 264.271L355.209 262.05L356.279 260.668C356.279 260.668 366.98 257.39 368.993 255.888L371.884 256.328L372.765 243.59C372.765 243.59 355.395 244.679 354.147 245.413Z" fill="#FFBE9D" />
	<path d="M353.947 257.163C354.054 257.246 353.205 258.46 352.421 260.093C351.626 261.721 351.2 263.14 351.069 263.107C350.952 263.085 351.187 261.573 352.007 259.892C352.817 258.207 353.857 257.085 353.947 257.163Z" fill="#EB996E" />
	<path d="M352.693 253.637C352.801 253.715 351.929 255.066 351.024 256.818C350.111 258.567 349.508 260.057 349.382 260.014C349.267 259.978 349.684 258.392 350.615 256.606C351.539 254.817 352.597 253.563 352.693 253.637Z" fill="#EB996E" />
	<path d="M352.668 247.386C352.767 247.447 352.196 248.744 351.554 250.395C350.909 252.048 350.177 253.319 350.056 253.251C349.955 253.193 350.482 251.875 351.127 250.221C351.771 248.564 352.549 247.313 352.668 247.386Z" fill="#EB996E" />
	<path d="M430.728 182.437C433.015 179.629 434.18 180.453 440.217 179.287C441.978 178.947 443.966 179.597 445.899 180.688C451.525 183.863 455.073 189.766 455.67 196.198L455.226 203.886L436.285 247.901C436.285 247.901 432.828 257.688 416.773 257.875C413.787 257.91 402.438 258.813 391.722 259.122C381.3 259.422 371.461 259.128 371.461 259.128L370.953 241.772L412.776 233.682L430.728 182.437Z" fill="#40A944" />
	<path d="M428.477 189.172C428.485 189.175 428.467 189.251 428.424 189.398C428.369 189.572 428.303 189.785 428.221 190.046C428.019 190.65 427.743 191.476 427.394 192.52C426.641 194.703 425.577 197.79 424.267 201.589C421.569 209.266 417.865 219.805 413.774 231.447C413.541 232.106 413.308 232.762 413.092 233.372L413.045 233.505L412.907 233.532C401.247 235.812 390.783 237.858 383.184 239.344C379.43 240.054 376.387 240.631 374.236 241.038C373.211 241.222 372.401 241.367 371.806 241.473C371.552 241.514 371.344 241.547 371.173 241.574C371.03 241.594 370.956 241.6 370.954 241.592C370.952 241.584 371.023 241.561 371.163 241.526C371.332 241.486 371.537 241.437 371.787 241.378C372.378 241.25 373.183 241.075 374.2 240.854C376.344 240.41 379.377 239.782 383.118 239.008C390.709 237.484 401.163 235.385 412.811 233.047L412.626 233.207C412.842 232.597 413.074 231.941 413.307 231.282C417.452 219.659 421.204 209.137 423.937 201.473C425.309 197.697 426.424 194.626 427.212 192.457C427.598 191.426 427.903 190.611 428.126 190.014C428.226 189.76 428.308 189.552 428.376 189.383C428.435 189.24 428.469 189.169 428.477 189.172Z" fill="#263238" />
	<path d="M450.542 214.421C450.55 214.424 450.525 214.513 450.466 214.682C450.394 214.878 450.305 215.124 450.194 215.428C449.929 216.116 449.562 217.069 449.096 218.277C448.129 220.746 446.711 224.312 444.923 228.703C443.126 233.091 440.995 238.318 438.436 244.048C437.786 245.474 437.131 246.95 436.282 248.383C435.425 249.794 434.409 251.177 433.15 252.371C431.899 253.573 430.416 254.559 428.844 255.383C428.059 255.8 427.246 256.172 426.423 256.531L425.177 257.051L423.839 257.42C422.042 257.814 420.259 258 418.5 258.165C416.742 258.332 415.007 258.438 413.302 258.543C409.892 258.727 406.602 258.852 403.467 258.93C397.197 259.094 391.551 259.138 386.809 259.147C382.067 259.151 378.231 259.117 375.58 259.076C374.286 259.048 373.265 259.026 372.527 259.01C372.203 258.997 371.942 258.986 371.733 258.978C371.554 258.968 371.463 258.958 371.463 258.949C371.463 258.94 371.555 258.932 371.734 258.925C371.943 258.92 372.204 258.913 372.528 258.905C373.266 258.897 374.286 258.887 375.581 258.873C378.273 258.85 382.098 258.818 386.807 258.778C391.546 258.722 397.19 258.64 403.453 258.45C406.585 258.358 409.87 258.224 413.272 258.033C414.971 257.925 416.703 257.817 418.451 257.649C420.197 257.485 421.98 257.295 423.714 256.914L424.983 256.568L426.217 256.054C427.031 255.7 427.832 255.333 428.603 254.925C430.147 254.117 431.586 253.163 432.798 252.002C434.018 250.849 435.009 249.51 435.857 248.124C436.685 246.736 437.344 245.272 437.998 243.851C440.575 238.146 442.743 232.931 444.582 228.564C446.396 224.218 447.87 220.688 448.907 218.203C449.411 217.01 449.808 216.07 450.095 215.39C450.226 215.093 450.331 214.854 450.415 214.663C450.491 214.499 450.533 214.418 450.542 214.421Z" fill="#263238" />
</svg>
