<svg width="40" height="40" viewBox="0 0 40 40" fill="none" xmlns="http://www.w3.org/2000/svg">
<path d="M0 3.6875C0 2.75234 0.743056 2 1.66667 2H4.82639C6.35417 2 7.70833 2.9 8.34028 4.25H36.8819C38.7083 4.25 40.0417 6.00781 39.5625 7.79375L36.7153 18.5023C36.125 20.7102 34.1458 22.25 31.8889 22.25H11.8542L12.2292 24.2539C12.3819 25.0484 13.0694 25.625 13.8681 25.625H33.8889C34.8125 25.625 35.5556 26.3773 35.5556 27.3125C35.5556 28.2477 34.8125 29 33.8889 29H13.8681C11.4653 29 9.40278 27.2703 8.95833 24.8867L5.375 5.83203C5.32639 5.56484 5.09722 5.375 4.82639 5.375H1.66667C0.743056 5.375 0 4.62266 0 3.6875ZM8.88889 34.625C8.88889 34.1818 8.97511 33.7429 9.14262 33.3334C9.31014 32.924 9.55567 32.5519 9.8652 32.2385C10.1747 31.9251 10.5422 31.6765 10.9466 31.5069C11.351 31.3373 11.7845 31.25 12.2222 31.25C12.66 31.25 13.0934 31.3373 13.4978 31.5069C13.9023 31.6765 14.2697 31.9251 14.5792 32.2385C14.8888 32.5519 15.1343 32.924 15.3018 33.3334C15.4693 33.7429 15.5556 34.1818 15.5556 34.625C15.5556 35.0682 15.4693 35.5071 15.3018 35.9166C15.1343 36.326 14.8888 36.6981 14.5792 37.0115C14.2697 37.3249 13.9023 37.5735 13.4978 37.7431C13.0934 37.9127 12.66 38 12.2222 38C11.7845 38 11.351 37.9127 10.9466 37.7431C10.5422 37.5735 10.1747 37.3249 9.8652 37.0115C9.55567 36.6981 9.31014 36.326 9.14262 35.9166C8.97511 35.5071 8.88889 35.0682 8.88889 34.625ZM32.2222 31.25C33.1063 31.25 33.9541 31.6056 34.5792 32.2385C35.2044 32.8714 35.5556 33.7299 35.5556 34.625C35.5556 35.5201 35.2044 36.3786 34.5792 37.0115C33.9541 37.6444 33.1063 38 32.2222 38C31.3382 38 30.4903 37.6444 29.8652 37.0115C29.2401 36.3786 28.8889 35.5201 28.8889 34.625C28.8889 33.7299 29.2401 32.8714 29.8652 32.2385C30.4903 31.6056 31.3382 31.25 32.2222 31.25Z" fill="#222222"/>
</svg>
