<svg width="63" height="63" viewBox="0 0 63 63" fill="none" xmlns="http://www.w3.org/2000/svg">
<path fill-rule="evenodd" clip-rule="evenodd" d="M0.951874 0.951874C-0.317291 2.22104 -0.317291 4.2789 0.951874 5.54807L27.0112 31.6074L1.42062 57.198C0.151459 58.4671 0.151459 60.525 1.42062 61.7942C2.68979 63.0633 4.74765 63.0633 6.01682 61.7942L31.6074 36.2036L56.5866 61.1828C57.8558 62.452 59.9137 62.452 61.1828 61.1828C62.452 59.9137 62.452 57.8558 61.1828 56.5866L36.2036 31.6074L61.6516 6.15939C62.9207 4.89023 62.9207 2.83237 61.6516 1.5632C60.3824 0.294037 58.3246 0.294037 57.0554 1.5632L31.6074 27.0112L5.54807 0.951874C4.2789 -0.317291 2.22104 -0.317291 0.951874 0.951874Z" fill="black"/>
</svg>
