<svg width="40" height="40" viewBox="0 0 40 40" fill="none" xmlns="http://www.w3.org/2000/svg">
<g clip-path="url(#clip0_1705_74)">
<path d="M21.5662 19.9999L30.7773 10.7888C30.9593 10.5763 31.0545 10.3028 31.0437 10.0232C31.0329 9.74357 30.9169 9.4783 30.7191 9.28042C30.5212 9.08254 30.2559 8.96661 29.9763 8.95581C29.6966 8.94501 29.4232 9.04013 29.2106 9.22216L19.9995 18.4333L10.7884 9.21105C10.5792 9.00182 10.2954 8.88428 9.99954 8.88428C9.70365 8.88428 9.41987 9.00182 9.21065 9.21105C9.00142 9.42027 8.88388 9.70404 8.88388 9.99993C8.88388 10.2958 9.00142 10.5796 9.21065 10.7888L18.4329 19.9999L9.21065 29.211C9.09433 29.3107 8.99987 29.4332 8.93317 29.5711C8.86648 29.7089 8.829 29.8591 8.82309 30.0121C8.81718 30.1651 8.84297 30.3177 8.89883 30.4603C8.95469 30.6029 9.03942 30.7324 9.1477 30.8407C9.25599 30.9489 9.38548 31.0337 9.52807 31.0895C9.67065 31.1454 9.82324 31.1712 9.97626 31.1653C10.1293 31.1594 10.2794 31.1219 10.4173 31.0552C10.5551 30.9885 10.6777 30.894 10.7773 30.7777L19.9995 21.5666L29.2106 30.7777C29.4232 30.9597 29.6966 31.0549 29.9763 31.0441C30.2559 31.0333 30.5212 30.9173 30.7191 30.7195C30.9169 30.5216 31.0329 30.2563 31.0437 29.9767C31.0545 29.697 30.9593 29.4236 30.7773 29.211L21.5662 19.9999Z" fill="black"/>
</g>
<defs>
<clipPath id="clip0_1705_74">
<rect width="40" height="40" fill="white"/>
</clipPath>
</defs>
</svg>
