<svg width="40" height="40" viewBox="0 0 40 40" fill="none" xmlns="http://www.w3.org/2000/svg">
	<path fill-rule="evenodd" clip-rule="evenodd"
				d="M1.66699 12.6471C1.66699 12.3871 1.77345 12.1377 1.96296 11.9538C2.15246 11.77 2.40948 11.6667 2.67748 11.6667H4.60146C6.20814 11.6667 7.53592 12.9137 7.53592 14.4863V27.3529C7.53592 27.6129 7.42946 27.8623 7.23996 28.0462C7.05045 28.23 6.79343 28.3333 6.52543 28.3333C6.25743 28.3333 6.00041 28.23 5.81091 28.0462C5.6214 27.8623 5.51494 27.6129 5.51494 27.3529V14.4863C5.5131 14.3717 5.48801 14.2586 5.4411 14.1534C5.39419 14.0482 5.32639 13.953 5.24156 13.8733C5.15673 13.7935 5.05654 13.7308 4.94671 13.6886C4.83688 13.6464 4.71956 13.6257 4.60146 13.6275H2.67748C2.40948 13.6275 2.15246 13.5242 1.96296 13.3403C1.77345 13.1565 1.66699 12.9071 1.66699 12.6471ZM13.2149 12.6471C13.2149 12.3871 13.3213 12.1377 13.5108 11.9538C13.7003 11.77 13.9574 11.6667 14.2254 11.6667H19.9993C21.606 11.6667 22.9358 12.9137 22.9358 14.4863V18.1608C22.9358 19.7333 21.606 20.9804 19.9993 20.9804H16.1493C16.0312 20.9786 15.9139 20.9994 15.8041 21.0415C15.6943 21.0837 15.5941 21.1465 15.5092 21.2262C15.4244 21.306 15.3566 21.4012 15.3097 21.5063C15.2628 21.6115 15.2377 21.7246 15.2359 21.8392V25.5137C15.2359 25.9745 15.63 26.3725 16.1493 26.3725H21.9253C22.1933 26.3725 22.4503 26.4758 22.6398 26.6597C22.8293 26.8435 22.9358 27.0929 22.9358 27.3529C22.9358 27.6129 22.8293 27.8623 22.6398 28.0462C22.4503 28.23 22.1933 28.3333 21.9253 28.3333H16.1493C15.3752 28.337 14.6312 28.0422 14.0809 27.5139C13.5307 26.9855 13.2192 26.2668 13.2149 25.5157V21.8373C13.2149 20.2686 14.5447 19.0196 16.1493 19.0196H19.9993C20.1174 19.0217 20.2348 19.0012 20.3447 18.9592C20.4547 18.9173 20.555 18.8548 20.64 18.7752C20.725 18.6956 20.7931 18.6006 20.8402 18.4955C20.8874 18.3904 20.9127 18.2773 20.9148 18.1628V14.4843C20.9127 14.3696 20.8873 14.2563 20.84 14.1511C20.7927 14.0459 20.7245 13.9508 20.6393 13.8712C20.5541 13.7916 20.4535 13.7291 20.3433 13.6873C20.2332 13.6455 20.1156 13.6251 19.9973 13.6275H14.2254C13.9574 13.6275 13.7003 13.5242 13.5108 13.3403C13.3213 13.1565 13.2149 12.9071 13.2149 12.6471ZM28.6127 12.6471C28.6127 12.3871 28.7192 12.1377 28.9087 11.9538C29.0982 11.77 29.3552 11.6667 29.6232 11.6667H35.3972C37.0039 11.6667 38.3337 12.9137 38.3337 14.4863V25.5137C38.3337 27.0863 37.0039 28.3333 35.3972 28.3333H29.6232C29.3552 28.3333 29.0982 28.23 28.9087 28.0462C28.7192 27.8623 28.6127 27.6129 28.6127 27.3529C28.6127 27.0929 28.7192 26.8435 28.9087 26.6597C29.0982 26.4758 29.3552 26.3725 29.6232 26.3725H35.3972C35.5153 26.3746 35.6327 26.3541 35.7426 26.3122C35.8525 26.2702 35.9529 26.2077 36.0379 26.1281C36.1229 26.0485 36.1909 25.9535 36.2381 25.8484C36.2852 25.7433 36.3106 25.6303 36.3127 25.5157V20.9804H29.6232C29.3552 20.9804 29.0982 20.8771 28.9087 20.6932C28.7192 20.5094 28.6127 20.26 28.6127 20C28.6127 19.74 28.7192 19.4906 28.9087 19.3068C29.0982 19.1229 29.3552 19.0196 29.6232 19.0196H36.3127V14.4863C36.3108 14.3715 36.2857 14.2583 36.2386 14.1529C36.1916 14.0476 36.1236 13.9524 36.0386 13.8726C35.9535 13.7928 35.8531 13.7301 35.743 13.688C35.633 13.646 35.5154 13.6254 35.3972 13.6275H29.6232C29.3552 13.6275 29.0982 13.5242 28.9087 13.3403C28.7192 13.1565 28.6127 12.9071 28.6127 12.6471Z"
				fill="black"/>
</svg>
