<svg width="31" height="22" viewBox="0 0 57 40" fill="none" xmlns="http://www.w3.org/2000/svg">
	<path
		d="M14.5 0.5V10.5L42 29.2851V39.5M35.4368 5.4545H54.4046C54.9034 5.4545 55.3078 5.86152 55.3078 6.36359V13.6363C55.3078 14.1384 54.9034 14.5454 54.4046 14.5454H35.4368C34.938 14.5454 34.5336 14.9524 34.5336 15.4545V18.1295C34.5336 18.8881 33.665 19.313 33.0724 18.8444L22.7924 10.7148C22.3321 10.3508 22.3321 9.6491 22.7924 9.28512L33.0724 1.15554C33.665 0.686879 34.5336 1.1118 34.5336 1.87038V4.54541C34.5336 5.04749 34.938 5.4545 35.4368 5.4545ZM20.9852 25.4545H2.01748C1.51865 25.4545 1.11426 25.8615 1.11426 26.3636V33.6363C1.11426 34.1384 1.51865 34.5454 2.01748 34.5454H20.9852C21.4841 34.5454 21.8885 34.9524 21.8885 35.4545V38.1295C21.8885 38.8881 22.7571 39.313 23.3497 38.8444L33.6297 30.7148C34.0899 30.3508 34.0899 29.6491 33.6297 29.2851L23.3497 21.1555C22.7571 20.6869 21.8885 21.1118 21.8885 21.8704V24.5454C21.8885 25.0475 21.4841 25.4545 20.9852 25.4545Z"
		stroke="#222222"
	/>
</svg>
