<svg width="31" height="22" viewBox="0 0 31 22" fill="none" xmlns="http://www.w3.org/2000/svg">
	<path d="M30 3.00003H19.5C19.2239 3.00003 19 2.77617 19 2.50003V1.02876C19 0.611547 18.5192 0.377838 18.1911 0.635603L12.5004 5.10687C12.2456 5.30706 12.2456 5.693 12.5004 5.89319L18.1911 10.3645C18.5192 10.6222 19 10.3885 19 9.9713V8.50003C19 8.22389 19.2239 8.00003 19.5 8.00003H30C30.2761 8.00003 30.5 7.77617 30.5 7.50003V3.50003C30.5 3.22389 30.2761 3.00003 30 3.00003Z" stroke="black" />
	<path d="M1 14H11.5C11.7761 14 12 13.7762 12 13.5V12.0288C12 11.6115 12.4808 11.3778 12.8089 11.6356L18.4996 16.1069C18.7544 16.3071 18.7544 16.693 18.4996 16.8932L12.8089 21.3645C12.4808 21.6222 12 21.3885 12 20.9713V19.5C12 19.2239 11.7761 19 11.5 19H1C0.723858 19 0.5 18.7762 0.5 18.5V14.5C0.5 14.2239 0.723858 14 1 14Z" stroke="black" />
</svg>
