<svg width="17" height="18" viewBox="0 0 17 18" fill="none" xmlns="http://www.w3.org/2000/svg">
<path d="M2.84183 12.3554C2.62437 12.2318 2.4435 12.0529 2.3176 11.8368C2.19169 11.6207 2.12524 11.3751 2.125 11.125V4.04167C2.125 3.2625 2.7625 2.625 3.54167 2.625H10.625C11.1563 2.625 11.4453 2.89771 11.6875 3.33333M4.95833 7.34746C4.95833 6.84643 5.15737 6.36592 5.51165 6.01165C5.86592 5.65737 6.34643 5.45833 6.84746 5.45833H12.9859C13.234 5.45833 13.4796 5.5072 13.7088 5.60213C13.938 5.69707 14.1463 5.83622 14.3217 6.01165C14.4971 6.18707 14.6363 6.39532 14.7312 6.62452C14.8261 6.85372 14.875 7.09938 14.875 7.34746V13.4859C14.875 13.734 14.8261 13.9796 14.7312 14.2088C14.6363 14.438 14.4971 14.6463 14.3217 14.8217C14.1463 14.9971 13.938 15.1363 13.7088 15.2312C13.4796 15.3261 13.234 15.375 12.9859 15.375H6.84746C6.59938 15.375 6.35372 15.3261 6.12452 15.2312C5.89532 15.1363 5.68707 14.9971 5.51165 14.8217C5.33622 14.6463 5.19707 14.438 5.10213 14.2088C5.0072 13.9796 4.95833 13.734 4.95833 13.4859V7.34746Z" stroke="#333333" stroke-width="1.5" stroke-linecap="round" stroke-linejoin="round"/>
</svg>
