<svg width="40" height="40" viewBox="0 0 40 40" fill="none" xmlns="http://www.w3.org/2000/svg">
<path d="M10.0003 27.3333H9.25033H10.0003ZM26.667 27.3333L27.417 27.3333L26.667 27.3333ZM16.7503 26.5833C16.3361 26.5833 16.0003 26.9191 16.0003 27.3333C16.0003 27.7475 16.3361 28.0833 16.7503 28.0833V26.5833ZM25.0003 10L25.7503 10L25.0003 10ZM1.66699 8.25C1.25278 8.25 0.916992 8.58579 0.916992 9C0.916992 9.41421 1.25278 9.75 1.66699 9.75V8.25ZM9.41699 28.0833C9.83121 28.0833 10.167 27.7475 10.167 27.3333C10.167 26.9191 9.83121 26.5833 9.41699 26.5833V28.0833ZM5.75033 18.1667C5.75033 17.7525 5.41454 17.4167 5.00033 17.4167C4.58611 17.4167 4.25033 17.7525 4.25033 18.1667H5.75033ZM3.33366 13.25C2.91945 13.25 2.58366 13.5858 2.58366 14C2.58366 14.4142 2.91945 14.75 3.33366 14.75V13.25ZM10.0003 14.75C10.4145 14.75 10.7503 14.4142 10.7503 14C10.7503 13.5858 10.4145 13.25 10.0003 13.25V14.75ZM25.0003 13.25C24.5861 13.25 24.2503 13.5858 24.2503 14C24.2503 14.4142 24.5861 14.75 25.0003 14.75V13.25ZM34.3503 14L34.3505 13.25H34.3503V14ZM35.2637 14.5933L35.949 14.2888L35.9488 14.2883L35.2637 14.5933ZM38.247 21.3067L37.5616 21.6112L37.562 21.6121L38.247 21.3067ZM38.3337 21.7117L39.0837 21.7117L39.0837 21.71L38.3337 21.7117ZM38.3337 26.3333H39.0837H38.3337ZM37.3337 27.3333L37.3337 28.0833L37.3337 27.3333ZM34.167 26.5833C33.7528 26.5833 33.417 26.9191 33.417 27.3333C33.417 27.7475 33.7528 28.0833 34.167 28.0833V26.5833ZM13.3337 30.6667V31.4167C14.4166 31.4167 15.4552 30.9865 16.221 30.2207L15.6907 29.6904L15.1604 29.16C14.6759 29.6445 14.0188 29.9167 13.3337 29.9167V30.6667ZM15.6907 29.6904L16.221 30.2207C16.9868 29.4549 17.417 28.4163 17.417 27.3333H16.667H15.917C15.917 28.0185 15.6448 28.6756 15.1604 29.16L15.6907 29.6904ZM16.667 27.3333H17.417C17.417 26.2504 16.9868 25.2118 16.221 24.446L15.6907 24.9763L15.1604 25.5066C15.6448 25.9911 15.917 26.6482 15.917 27.3333H16.667ZM15.6907 24.9763L16.221 24.446C15.4552 23.6802 14.4166 23.25 13.3337 23.25V24V24.75C14.0188 24.75 14.6759 25.0222 15.1604 25.5066L15.6907 24.9763ZM13.3337 24V23.25C12.2507 23.25 11.2121 23.6802 10.4463 24.446L10.9766 24.9763L11.507 25.5066C11.9914 25.0222 12.6485 24.75 13.3337 24.75V24ZM10.9766 24.9763L10.4463 24.446C9.68053 25.2118 9.25033 26.2504 9.25033 27.3333L10.0003 27.3333L10.7503 27.3333C10.7503 26.6482 11.0225 25.9911 11.507 25.5066L10.9766 24.9763ZM10.0003 27.3333H9.25033C9.25033 28.4163 9.68053 29.4549 10.4463 30.2207L10.9766 29.6904L11.507 29.16C11.0225 28.6756 10.7503 28.0185 10.7503 27.3333H10.0003ZM10.9766 29.6904L10.4463 30.2207C11.2121 30.9865 12.2507 31.4167 13.3337 31.4167V30.6667V29.9167C12.6485 29.9167 11.9914 29.6445 11.507 29.16L10.9766 29.6904ZM30.0003 30.6667V31.4167C31.0833 31.4167 32.1219 30.9865 32.8877 30.2207L32.3573 29.6904L31.827 29.16C31.3425 29.6445 30.6855 29.9167 30.0003 29.9167V30.6667ZM32.3573 29.6904L32.8877 30.2207C33.6535 29.4549 34.0837 28.4163 34.0837 27.3333H33.3337H32.5837C32.5837 28.0185 32.3115 28.6756 31.827 29.16L32.3573 29.6904ZM33.3337 27.3333H34.0837C34.0837 26.2504 33.6535 25.2118 32.8877 24.446L32.3573 24.9763L31.827 25.5066C32.3115 25.9911 32.5837 26.6482 32.5837 27.3333H33.3337ZM32.3573 24.9763L32.8877 24.446C32.1219 23.6802 31.0833 23.25 30.0003 23.25V24V24.75C30.6855 24.75 31.3425 25.0222 31.827 25.5066L32.3573 24.9763ZM30.0003 24V23.25C28.9174 23.25 27.8787 23.6802 27.113 24.446L27.6433 24.9763L28.1736 25.5066C28.6581 25.0222 29.3152 24.75 30.0003 24.75V24ZM27.6433 24.9763L27.113 24.446C26.3472 25.2118 25.917 26.2504 25.917 27.3333L26.667 27.3333L27.417 27.3333C27.417 26.6482 27.6892 25.9911 28.1736 25.5066L27.6433 24.9763ZM26.667 27.3333L25.917 27.3333C25.917 28.4163 26.3472 29.4549 27.113 30.2207L27.6433 29.6904L28.1736 29.16C27.6892 28.6756 27.417 28.0185 27.417 27.3333L26.667 27.3333ZM27.6433 29.6904L27.113 30.2207C27.8787 30.9865 28.9174 31.4167 30.0003 31.4167V30.6667V29.9167C29.3152 29.9167 28.6581 29.6445 28.1736 29.16L27.6433 29.6904ZM16.7503 27.3333V28.0833H25.0003V27.3333V26.5833H16.7503V27.3333ZM25.0003 27.3333H25.7503V10H25.0003H24.2503V27.3333H25.0003ZM25.0003 10L25.7503 10C25.7503 9.53587 25.566 9.09075 25.2378 8.76256L24.7074 9.29289L24.1771 9.82322C24.224 9.87011 24.2503 9.93369 24.2503 10L25.0003 10ZM24.7074 9.29289L25.2378 8.76256C24.9096 8.43437 24.4645 8.25 24.0003 8.25V9V9.75C24.0666 9.75 24.1302 9.77634 24.1771 9.82322L24.7074 9.29289ZM24.0003 9V8.25H1.66699V9V9.75H24.0003V9ZM9.41699 27.3333V26.5833H6.00033V27.3333V28.0833H9.41699V27.3333ZM6.00033 27.3333V26.5833C5.96749 26.5833 5.93498 26.5769 5.90465 26.5643L5.61764 27.2572L5.33063 27.9501C5.54296 28.0381 5.77052 28.0833 6.00033 28.0833V27.3333ZM5.61764 27.2572L5.90465 26.5643C5.87433 26.5517 5.84677 26.5333 5.82355 26.5101L5.29322 27.0404L4.76289 27.5708C4.92539 27.7333 5.11831 27.8622 5.33063 27.9501L5.61764 27.2572ZM5.29322 27.0404L5.82355 26.5101C5.80034 26.4869 5.78192 26.4593 5.76936 26.429L5.07645 26.716L4.38354 27.003C4.47148 27.2153 4.60038 27.4083 4.76289 27.5708L5.29322 27.0404ZM5.07645 26.716L5.76936 26.429C5.75679 26.3987 5.75033 26.3662 5.75033 26.3333H5.00033H4.25033C4.25033 26.5631 4.29559 26.7907 4.38354 27.003L5.07645 26.716ZM5.00033 26.3333H5.75033V18.1667H5.00033H4.25033V26.3333H5.00033ZM3.33366 14V14.75H10.0003V14V13.25H3.33366V14ZM25.0003 14V14.75H34.3503V14V13.25H25.0003V14ZM34.3503 14L34.3501 14.75C34.3985 14.75 34.4457 14.764 34.4863 14.7904L34.8949 14.1614L35.3034 13.5325C35.0198 13.3482 34.6888 13.2501 34.3505 13.25L34.3503 14ZM34.8949 14.1614L34.4863 14.7904C34.5268 14.8167 34.5588 14.8542 34.5785 14.8983L35.2637 14.5933L35.9488 14.2883C35.8113 13.9793 35.5871 13.7168 35.3034 13.5325L34.8949 14.1614ZM35.2637 14.5933L34.5783 14.8979L37.5616 21.6112L38.247 21.3067L38.9324 21.0021L35.949 14.2888L35.2637 14.5933ZM38.247 21.3067L37.562 21.6121C37.5762 21.6439 37.5836 21.6784 37.5837 21.7133L38.3337 21.7117L39.0837 21.71C39.0831 21.4658 39.0315 21.2243 38.932 21.0013L38.247 21.3067ZM38.3337 21.7117H37.5837V26.3333H38.3337H39.0837V21.7117H38.3337ZM38.3337 26.3333L37.5837 26.3333C37.5837 26.3662 37.5772 26.3987 37.5646 26.429L38.2575 26.716L38.9505 27.003C39.0384 26.7907 39.0837 26.5631 39.0837 26.3333L38.3337 26.3333ZM38.2575 26.716L37.5646 26.429C37.5521 26.4593 37.5337 26.4869 37.5104 26.5101L38.0408 27.0404L38.5711 27.5708C38.7336 27.4083 38.8625 27.2154 38.9505 27.003L38.2575 26.716ZM38.0408 27.0404L37.5104 26.5101C37.4872 26.5333 37.4597 26.5517 37.4293 26.5643L37.7163 27.2572L38.0034 27.9501C38.2157 27.8622 38.4086 27.7333 38.5711 27.5708L38.0408 27.0404ZM37.7163 27.2572L37.4293 26.5643C37.399 26.5769 37.3665 26.5833 37.3337 26.5833L37.3337 27.3333L37.3337 28.0833C37.5635 28.0833 37.791 28.0381 38.0034 27.9501L37.7163 27.2572ZM37.3337 27.3333V26.5833H34.167V27.3333V28.0833H37.3337V27.3333ZM25.0003 27.3333V28.0833H26.667V27.3333V26.5833H25.0003V27.3333Z" fill="black"/>
</svg>
