<svg width="40" height="40" viewBox="0 0 40 40" fill="none" xmlns="http://www.w3.org/2000/svg">
<path d="M37.1429 31.4773V14.5682C36.6667 15.0966 36.1533 15.581 35.6027 16.0213C31.6146 19.045 28.4449 21.5256 26.0938 23.4631C25.3348 24.0942 24.7173 24.5859 24.2411 24.9382C23.7649 25.2905 23.1213 25.6464 22.3103 26.006C21.4993 26.3656 20.7366 26.5455 20.0223 26.5455H19.9777C19.2634 26.5455 18.5007 26.3656 17.6897 26.006C16.8787 25.6464 16.2351 25.2905 15.7589 24.9382C15.2827 24.5859 14.6652 24.0942 13.9063 23.4631C11.5551 21.5256 8.38542 19.045 4.39732 16.0213C3.84673 15.581 3.33333 15.0966 2.85714 14.5682V31.4773C2.85714 31.6681 2.92783 31.8332 3.0692 31.9727C3.21057 32.1121 3.37798 32.1818 3.57143 32.1818H36.4286C36.622 32.1818 36.7894 32.1121 36.9308 31.9727C37.0722 31.8332 37.1429 31.6681 37.1429 31.4773ZM37.1429 8.33736V7.79794L37.1317 7.51172L37.0647 7.23651L36.942 7.03835L36.7411 6.87322L36.4286 6.81818H3.57143C3.37798 6.81818 3.21057 6.8879 3.0692 7.02734C2.92783 7.16678 2.85714 7.33191 2.85714 7.52273C2.85714 9.98864 3.95089 12.0729 6.13839 13.7756C9.01042 16.0066 11.994 18.3331 15.0893 20.755C15.1786 20.8284 15.439 21.0449 15.8705 21.4045C16.3021 21.7641 16.6443 22.0393 16.8973 22.2301C17.1503 22.4209 17.4814 22.6521 17.8906 22.9237C18.2999 23.1952 18.6756 23.397 19.0179 23.5291C19.3601 23.6612 19.6801 23.7273 19.9777 23.7273H20.0223C20.3199 23.7273 20.6399 23.6612 20.9821 23.5291C21.3244 23.397 21.7001 23.1952 22.1094 22.9237C22.5186 22.6521 22.8497 22.4209 23.1027 22.2301C23.3557 22.0393 23.6979 21.7641 24.1295 21.4045C24.561 21.0449 24.8214 20.8284 24.9107 20.755C28.006 18.3331 30.9896 16.0066 33.8616 13.7756C34.6652 13.1444 35.4129 12.2968 36.1049 11.2326C36.7969 10.1684 37.1429 9.20336 37.1429 8.33736ZM40 7.52273V31.4773C40 32.446 39.6503 33.2753 38.9509 33.9652C38.2515 34.6551 37.4107 35 36.4286 35H3.57143C2.58929 35 1.74851 34.6551 1.04911 33.9652C0.349702 33.2753 0 32.446 0 31.4773V7.52273C0 6.55398 0.349702 5.72467 1.04911 5.0348C1.74851 4.34493 2.58929 4 3.57143 4H36.4286C37.4107 4 38.2515 4.34493 38.9509 5.0348C39.6503 5.72467 40 6.55398 40 7.52273Z" fill="#222222"/>
</svg>
