<svg width="40" height="40" viewBox="0 0 40 40" fill="none" xmlns="http://www.w3.org/2000/svg">
	<path d="M8.8466 35.0487C6.53891 35.0487 4.30814 34.1131 2.69276 32.4756C1.07737 30.7602 0.154297 28.577 0.154297 26.2378C0.154297 23.8986 1.07737 21.6374 2.69276 20L10.8466 11.7349C12.3851 10.1755 14.462 9.23978 16.6928 9.1618C17.6158 9.1618 18.3081 9.86356 18.3851 10.7213C18.3851 11.6569 17.6928 12.3587 16.8466 12.4367C15.462 12.5146 14.1543 13.0604 13.1543 14.0741L5.00045 22.2612C4.00045 23.2749 3.38507 24.6784 3.38507 26.1599C3.38507 27.6413 3.92353 29.0448 5.00045 30.0585C6.00045 31.0721 7.38507 31.6959 8.8466 31.6959C10.3081 31.6959 11.6928 31.1501 12.6928 30.0585L20.8466 21.7934C21.8466 20.7797 22.462 19.3762 22.462 17.8947C22.462 16.9591 23.1543 16.2573 24.0774 16.2573C25.0005 16.2573 25.6928 16.9591 25.6928 17.8947C25.6928 20.2339 24.7697 22.4951 23.1543 24.1326L15.0005 32.3977C13.3081 34.1131 11.1543 35.0487 8.8466 35.0487Z" fill="black" />
	<path d="M23.2304 30.8382C22.3843 30.8382 21.692 30.1364 21.6151 29.2787C21.6151 28.343 22.2304 27.6413 23.1535 27.5633C24.5381 27.4853 25.8458 26.9395 26.7689 25.9259L34.9997 17.6608C37.1535 15.4775 37.1535 11.9688 34.9997 9.86351C32.8458 7.68028 29.3843 7.68028 27.3074 9.86351L19.0766 18.1286C18.0766 19.1423 17.5381 20.4678 17.4612 21.8713C17.4612 22.807 16.692 23.4308 15.7689 23.4308C14.8458 23.4308 14.1535 22.651 14.2304 21.7154C14.3074 19.4542 15.2304 17.3489 16.7689 15.7894L24.9997 7.52433C28.3843 4.09353 33.9228 4.09353 37.3074 7.52433C40.692 10.9551 40.692 16.5692 37.3074 20L29.0766 28.2651C27.5381 29.8245 25.5381 30.7602 23.2304 30.8382Z" fill="black" />
</svg>
