<svg width="60" height="60" viewBox="0 0 60 60" fill="none" xmlns="http://www.w3.org/2000/svg">
	<g clip-path="url(#clip0_1731_23)">
		<path
			d="M59.6158 30.498C59.4748 30.339 56.0698 26.583 50.7478 22.782C47.6068 20.538 44.4478 18.75 41.3578 17.463C37.4428 15.831 33.62 15.0007 29.999 15.0007C26.378 15.0007 22.5568 15.831 18.6418 17.463C15.5518 18.75 12.3928 20.541 9.25177 22.782C3.92977 26.583 0.524773 30.342 0.383773 30.498C-0.129227 31.068 -0.129227 31.935 0.383773 32.505C0.524773 32.664 3.92977 36.42 9.25177 40.221C12.3928 42.465 15.5518 44.253 18.6418 45.54C22.5568 47.172 26.3788 48 29.9998 48C33.6208 48 37.4428 47.172 41.3578 45.54C44.4478 44.253 47.6068 42.462 50.7478 40.221C56.0698 36.42 59.4748 32.661 59.6158 32.505C60.1288 31.935 60.1288 31.068 59.6158 30.498ZM37.499 19.5001C40.22 21.7891 41.9998 24.933 41.9998 28.5C41.9998 35.118 36.6178 40.221 29.9998 40.221C23.3818 40.221 17.9998 35.118 17.9998 28.5C17.9998 24.936 19.5568 21.603 22.2778 19.314C24.7438 18.51 27.3508 18 29.9998 18C32.6488 18 35.033 18.6961 37.499 19.5001ZM48.9508 37.818C44.3518 41.094 37.3318 45 29.9998 45C22.6678 45 15.6478 41.094 11.0488 37.818C7.57777 35.346 4.92277 32.844 3.58177 31.5C4.92277 30.156 7.57777 27.657 11.0488 25.182C12.6388 24.048 14.5168 22.842 16.5988 21.747C15.5578 23.811 14.9998 26.112 14.9998 28.5C14.9998 36.771 21.7288 43.221 29.9998 43.221C38.2708 43.221 44.9998 36.771 44.9998 28.5C44.9998 26.112 44.4418 23.811 43.4008 21.747C45.4828 22.842 47.3608 24.051 48.9508 25.182C52.4218 27.654 55.0768 30.156 56.4178 31.5C55.0768 32.844 52.4218 35.343 48.9508 37.818Z"
			fill="black"/>
		<path d="M44.9148 3L47.4231 4.64569L14.5092 54.8122L12.0009 53.1665L44.9148 3Z" fill="black"/>
	</g>
	<defs>
		<clipPath id="clip0_1731_23">
			<rect width="60" height="60" fill="white"/>
		</clipPath>
	</defs>
</svg>
