<svg width="40" height="40" viewBox="0 0 40 40" fill="none" xmlns="http://www.w3.org/2000/svg">
<path d="M36.25 24.6875C36.4986 24.6875 36.7371 24.5887 36.9129 24.4129C37.0887 24.2371 37.1875 23.9986 37.1875 23.75C37.1875 23.5014 37.0887 23.2629 36.9129 23.0871C36.7371 22.9113 36.4986 22.8125 36.25 22.8125C32.7518 22.8099 29.2718 23.3178 25.9203 24.3203C24.755 23.5675 23.5518 22.875 22.3156 22.2453C26.7641 20.5447 31.4876 19.6776 36.25 19.6875C36.4986 19.6875 36.7371 19.5887 36.9129 19.4129C37.0887 19.2371 37.1875 18.9986 37.1875 18.75C37.1875 18.5014 37.0887 18.2629 36.9129 18.0871C36.7371 17.9113 36.4986 17.8125 36.25 17.8125C35.3125 17.8125 34.375 17.8469 33.4375 17.9094V12.5C33.4375 12.3545 33.4036 12.2109 33.3385 12.0807C33.2734 11.9506 33.1789 11.8373 33.0625 11.75L23.0625 4.25C22.9002 4.12829 22.7028 4.0625 22.5 4.0625C22.2972 4.0625 22.0998 4.12829 21.9375 4.25L11.9375 11.75C11.8211 11.8373 11.7266 11.9506 11.6615 12.0807C11.5964 12.2109 11.5625 12.3545 11.5625 12.5V18.5578C8.9879 18.0619 6.37192 17.8124 3.75 17.8125C3.50136 17.8125 3.2629 17.9113 3.08709 18.0871C2.91127 18.2629 2.8125 18.5014 2.8125 18.75C2.8125 18.9986 2.91127 19.2371 3.08709 19.4129C3.2629 19.5887 3.50136 19.6875 3.75 19.6875C9.60792 19.6759 15.3928 20.9872 20.6732 23.5236C25.9535 26.06 30.5929 29.756 34.2453 34.3359C34.3332 34.4458 34.4448 34.5344 34.5716 34.5953C34.6985 34.6561 34.8374 34.6876 34.9781 34.6875C35.1546 34.6871 35.3273 34.6369 35.4765 34.5427C35.6257 34.4485 35.7453 34.3141 35.8215 34.155C35.8977 33.9959 35.9275 33.8184 35.9074 33.6432C35.8873 33.4679 35.8181 33.3018 35.7078 33.1641C34.7929 32.0226 33.8181 30.9305 32.7875 29.8922C33.9367 29.7569 35.0928 29.6885 36.25 29.6875C36.4986 29.6875 36.7371 29.5887 36.9129 29.4129C37.0887 29.2371 37.1875 28.9986 37.1875 28.75C37.1875 28.5014 37.0887 28.2629 36.9129 28.0871C36.7371 27.9113 36.4986 27.8125 36.25 27.8125C34.5112 27.8125 32.7754 27.9583 31.0609 28.2484C30.0578 27.3474 29.0161 26.501 27.9359 25.7094C30.6549 25.0291 33.4472 24.6859 36.25 24.6875ZM19.6875 21.025V15.9375H25.3125V19.2906C23.504 19.7919 21.7325 20.4185 20.0109 21.1656L19.6875 21.025ZM13.4375 12.9688L22.5 6.17188L31.5625 12.9688V18.0797C30.0918 18.2465 28.6313 18.4932 27.1875 18.8188V15C27.1875 14.7514 27.0887 14.5129 26.9129 14.3371C26.7371 14.1613 26.4986 14.0625 26.25 14.0625H18.75C18.5014 14.0625 18.2629 14.1613 18.0871 14.3371C17.9113 14.5129 17.8125 14.7514 17.8125 15V20.2891C16.3802 19.7664 14.9196 19.325 13.4375 18.9672V12.9688ZM21.1203 34.2688C21.0522 34.3714 20.9646 34.4596 20.8624 34.5283C20.7602 34.5971 20.6454 34.645 20.5247 34.6694C20.404 34.6937 20.2796 34.6941 20.1588 34.6704C20.0379 34.6467 19.9229 34.5994 19.8203 34.5312C15.06 31.364 9.46775 29.6784 3.75 29.6875C3.50136 29.6875 3.2629 29.5887 3.08709 29.4129C2.91127 29.2371 2.8125 28.9986 2.8125 28.75C2.8125 28.5014 2.91127 28.2629 3.08709 28.0871C3.2629 27.9113 3.50136 27.8125 3.75 27.8125C9.83685 27.8028 15.7901 29.5971 20.8578 32.9688C20.9604 33.0368 21.0486 33.1245 21.1174 33.2267C21.1861 33.3289 21.234 33.4436 21.2584 33.5644C21.2828 33.6851 21.2831 33.8094 21.2595 33.9303C21.2358 34.0512 21.1885 34.1662 21.1203 34.2688ZM28.9016 33.0797C28.9895 33.1659 29.0596 33.2685 29.1078 33.3818C29.1561 33.4951 29.1815 33.6167 29.1828 33.7398C29.184 33.8629 29.161 33.9851 29.115 34.0993C29.069 34.2135 29.001 34.3175 28.9148 34.4055C28.8287 34.4934 28.726 34.5635 28.6127 34.6117C28.4995 34.66 28.3778 34.6855 28.2547 34.6867C28.1316 34.6879 28.0094 34.6649 27.8952 34.6189C27.781 34.5729 27.677 34.5049 27.5891 34.4187C21.2333 28.1637 12.6675 24.667 3.75 24.6875C3.50136 24.6875 3.2629 24.5887 3.08709 24.4129C2.91127 24.2371 2.8125 23.9986 2.8125 23.75C2.8125 23.5014 2.91127 23.2629 3.08709 23.0871C3.2629 22.9113 3.50136 22.8125 3.75 22.8125C13.1601 22.7898 22.1994 26.4791 28.9062 33.0797H28.9016Z" fill="black"/>
</svg>
