<svg width="24" height="22" viewBox="0 0 24 22" fill="none" xmlns="http://www.w3.org/2000/svg">
	<g clip-path="url(#clip0_1614_8)">
		<path fill-rule="evenodd" clip-rule="evenodd"
					d="M11.6931 21.9185C11.7891 21.9728 11.8939 22 12 22C12.1061 22 12.2122 21.9728 12.3082 21.9185C12.4269 21.8512 15.2463 20.2348 18.1086 17.5871C19.8013 16.0212 21.1541 14.4191 22.128 12.8247C23.3697 10.7917 24 8.76248 24 6.79412C24 3.04765 21.0253 0 17.3684 0C16.1305 0 14.8156 0.474942 13.6661 1.33812C12.9941 1.84282 12.4219 2.45106 12 3.09683C11.5781 2.45106 11.0059 1.84282 10.3339 1.33812C9.18442 0.474942 7.86947 0 6.63158 0C2.97474 0 0 3.04765 0 6.79412C0 8.76248 0.629053 10.7917 1.872 12.8247C2.84716 14.4191 4.19874 16.0212 5.89263 17.5871C8.75495 20.2348 11.5743 21.8512 11.6931 21.9185ZM1.26316 6.79412C1.26316 3.762 3.672 1.29412 6.63158 1.29412C8.65506 1.29412 10.6238 2.89835 11.2909 4.44269L8.80576 8.9987C8.44129 9.66689 8.58118 10.4977 9.14438 11.0097L13.5413 15.0069C13.6508 15.1064 13.6858 15.264 13.629 15.4005L11.5719 20.3375C10.5549 19.6894 8.62695 18.376 6.72126 16.61C4.23158 14.3026 1.26316 10.7282 1.26316 6.79412ZM17.2787 16.61C15.7768 18.0018 14.2611 19.1125 13.1884 19.838L14.829 15.9005C15.0972 15.2568 14.9318 14.5141 14.4158 14.045L10.0189 10.0478C9.89939 9.93917 9.86971 9.76294 9.94702 9.6212L12.5706 4.81125C12.6049 4.74844 12.6277 4.68247 12.6398 4.61572C13.229 3.02066 15.2692 1.29412 17.3684 1.29412C20.328 1.29412 22.7368 3.762 22.7368 6.79412C22.7368 10.7282 19.7684 14.3039 17.2787 16.61Z"
					fill="#222222"/>
	</g>
	<defs>
		<clipPath id="clip0_1614_8">
			<rect width="24" height="22" fill="white"/>
		</clipPath>
	</defs>
</svg>
