<svg width="24" height="22" viewBox="0 0 24 22" fill="none" xmlns="http://www.w3.org/2000/svg">
	<g clip-path="url(#clip0_1614_4)">
		<path
			d="M12 22C11.8939 22 11.7891 21.9728 11.6931 21.9185C11.5743 21.8512 8.75495 20.2348 5.89263 17.5871C4.19874 16.0212 2.84716 14.4191 1.872 12.8247C0.629053 10.7917 0 8.76248 0 6.79412C0 3.04765 2.97474 0 6.63158 0C7.86947 0 9.18442 0.474942 10.3339 1.33812C11.0059 1.84282 11.5781 2.45106 12 3.09683C12.4219 2.45106 12.9941 1.84282 13.6661 1.33812C14.8156 0.474942 16.1305 0 17.3684 0C21.0253 0 24 3.04765 24 6.79412C24 8.76248 23.3697 10.7917 22.128 12.8247C21.1541 14.4191 19.8013 16.0212 18.1086 17.5871C15.2463 20.2348 12.4269 21.8512 12.3082 21.9185C12.2122 21.9728 12.1061 22 12 22ZM6.63158 1.29412C3.672 1.29412 1.26316 3.762 1.26316 6.79412C1.26316 10.7282 4.23158 14.3026 6.72126 16.61C8.94442 18.6702 11.1979 20.1145 12 20.6049C12.8021 20.1145 15.0556 18.6702 17.2787 16.61C19.7684 14.3039 22.7368 10.7282 22.7368 6.79412C22.7368 3.762 20.328 1.29412 17.3684 1.29412C15.2173 1.29412 13.128 3.10718 12.5987 4.73389C12.5128 4.99789 12.2716 5.17647 12 5.17647C11.7284 5.17647 11.4872 4.99789 11.4013 4.73389C10.872 3.10718 8.78274 1.29412 6.63158 1.29412Z"
			fill="#222222"/>
	</g>
	<defs>
		<clipPath id="clip0_1614_4">
			<rect width="24" height="22" fill="white"/>
		</clipPath>
	</defs>
</svg>
