<svg width="50" height="44" viewBox="0 0 50 44" fill="none" xmlns="http://www.w3.org/2000/svg">
<path d="M4.6875 8.64286C4.6875 6.47317 6.43639 4.71429 8.59375 4.71429H16.25C17.5444 4.71429 18.5938 3.65896 18.5938 2.35714C18.5938 1.05533 17.5444 0 16.25 0H8.59375C3.84755 0 0 3.86954 0 8.64286V35.3571C0 40.1305 3.84755 44 8.59375 44H16.25C17.5444 44 18.5938 42.9447 18.5938 41.6429C18.5938 40.341 17.5444 39.2857 16.25 39.2857H8.59375C6.43639 39.2857 4.6875 37.5268 4.6875 35.3571V8.64286Z" fill="black"/>
<path d="M36.8031 7.75137C35.882 6.83666 34.3981 6.84604 33.4886 7.77234C32.5791 8.69863 32.5884 10.1911 33.5094 11.1058L42.1055 19.6429H17.9688C16.6743 19.6429 15.625 20.6982 15.625 22C15.625 23.3018 16.6743 24.3571 17.9688 24.3571H41.9485L33.1967 33.0516C32.2758 33.9665 32.2667 35.4589 33.1763 36.3851C34.086 37.3112 35.5699 37.3204 36.4908 36.4055L49.3019 23.6784C49.7328 23.251 50 22.6569 50 22C50 21.9736 49.9996 21.9474 49.9987 21.9212C50.0195 21.2872 49.7873 20.6466 49.3031 20.1657L36.8031 7.75137Z" fill="black"/>
</svg>
