<svg width="40" height="40" viewBox="0 0 40 40" fill="none" xmlns="http://www.w3.org/2000/svg">
<path d="M39.4531 2.22448C39.8177 2.48476 40 2.82962 40 3.25906V30.7437C40 31.004 39.9284 31.2382 39.7852 31.4465C39.6419 31.6547 39.4531 31.8043 39.2188 31.8954L26.7188 36.8926C26.4062 37.0358 26.0938 37.0358 25.7812 36.8926L13.75 32.0906L1.71875 36.8926C1.58854 36.9577 1.43229 36.9902 1.25 36.9902C1.0026 36.9902 0.768229 36.9187 0.546875 36.7755C0.182292 36.5152 0 36.1704 0 35.7409V8.25627C0 7.996 0.0716146 7.76176 0.214844 7.55354C0.358073 7.34532 0.546875 7.19567 0.78125 7.10457L13.2812 2.10736C13.5938 1.96421 13.9062 1.96421 14.2188 2.10736L26.25 6.90937L38.2812 2.10736C38.6979 1.93819 39.0885 1.97723 39.4531 2.22448ZM14.375 4.85973V29.6506L25.625 34.1403V9.34941L14.375 4.85973ZM2.5 9.09565V33.8865L13.125 29.6506V4.85973L2.5 9.09565ZM37.5 29.9044V5.1135L26.875 9.34941V34.1403L37.5 29.9044Z" fill="#222222"/>
</svg>
