<svg width="183" height="193" viewBox="0 0 183 193" fill="none" xmlns="http://www.w3.org/2000/svg">
<g clip-path="url(#clip0_1794_171)">
<path d="M156.908 161.713C155.878 160.701 154.592 159.989 153.188 159.652C151.785 159.315 150.316 159.366 148.939 159.799L133.799 144.566C145.529 131.354 151.653 114.088 150.873 96.4317C150.092 78.7751 142.468 62.1177 129.617 49.9942C116.767 37.8707 99.7025 31.2352 82.0444 31.4957C64.3863 31.7562 47.5245 38.8922 35.037 51.3895C22.5495 63.8868 15.419 80.7619 15.1588 98.4338C14.8985 116.106 21.5288 133.184 33.6428 146.044C45.7568 158.904 62.4011 166.535 80.0439 167.316C97.6866 168.097 114.939 161.968 128.141 150.229L143.361 165.461C143.004 166.782 142.992 168.173 143.327 169.5C143.662 170.826 144.332 172.045 145.274 173.037L162.805 190.502C164.289 191.976 166.293 192.806 168.383 192.815C169.432 192.821 170.471 192.62 171.442 192.223C172.413 191.826 173.296 191.242 174.041 190.502C175.525 189.008 176.358 186.987 176.358 184.88C176.358 182.773 175.525 180.752 174.041 179.258L156.908 161.713ZM41.2816 141.855C32.9157 133.493 27.2162 122.836 24.9041 111.231C22.592 99.6265 23.7713 87.5964 28.2926 76.6628C32.8139 65.7291 40.4742 56.3833 50.3042 49.8077C60.1342 43.2322 71.6922 39.7223 83.5159 39.7223C95.3396 39.7223 106.898 43.2322 116.728 49.8077C126.558 56.3833 134.218 65.7291 138.739 76.6628C143.261 87.5964 144.44 99.6265 142.128 111.231C139.816 122.836 134.116 133.493 125.75 141.855C120.207 147.411 113.623 151.818 106.376 154.825C99.1294 157.833 91.3612 159.38 83.5159 159.38C75.6707 159.38 67.9024 157.833 60.6555 154.825C53.4085 151.818 46.825 147.411 41.2816 141.855Z" fill="black"/>
<path d="M52.8363 98.3913C53.194 98.7728 53.6261 99.0768 54.1058 99.2846C54.5855 99.4924 55.1027 99.5997 55.6254 99.5997C56.1481 99.5997 56.6653 99.4924 57.145 99.2846C57.6247 99.0768 58.0567 98.7728 58.4144 98.3913L63.5941 93.2873L68.7738 98.3913C69.1315 98.7728 69.5636 99.0768 70.0433 99.2846C70.523 99.4924 71.0402 99.5997 71.5629 99.5997C72.0856 99.5997 72.6028 99.4924 73.0825 99.2846C73.5622 99.0768 73.9942 98.7728 74.3519 98.3913C74.7331 98.0333 75.0369 97.6009 75.2445 97.1209C75.4522 96.6408 75.5594 96.1232 75.5594 95.6001C75.5594 95.0769 75.4522 94.5593 75.2445 94.0793C75.0369 93.5992 74.7331 93.1668 74.3519 92.8088L69.2519 87.6251L74.3519 82.4413C75.0917 81.701 75.5072 80.697 75.5072 79.6501C75.5072 78.6031 75.0917 77.5991 74.3519 76.8588C73.6122 76.1185 72.609 75.7026 71.5629 75.7026C70.5168 75.7026 69.5135 76.1185 68.7738 76.8588L63.5941 81.9628L58.4144 76.8588C57.6747 76.1185 56.6715 75.7026 55.6254 75.7026C54.5793 75.7026 53.576 76.1185 52.8363 76.8588C52.0966 77.5991 51.681 78.6031 51.681 79.6501C51.681 80.697 52.0966 81.701 52.8363 82.4413L57.9363 87.6251L52.8363 92.8088C52.4552 93.1668 52.1514 93.5992 51.9437 94.0793C51.736 94.5593 51.6289 95.0769 51.6289 95.6001C51.6289 96.1232 51.736 96.6408 51.9437 97.1209C52.1514 97.6009 52.4552 98.0333 52.8363 98.3913Z" fill="black"/>
<path d="M92.6801 98.3913C93.0378 98.7728 93.4698 99.0768 93.9495 99.2846C94.4292 99.4924 94.9464 99.5997 95.4691 99.5997C95.9919 99.5997 96.509 99.4924 96.9887 99.2846C97.4684 99.0768 97.9005 98.7728 98.2582 98.3913L103.438 93.2873L108.618 98.3913C108.975 98.7728 109.407 99.0768 109.887 99.2846C110.367 99.4924 110.884 99.5997 111.407 99.5997C111.929 99.5997 112.447 99.4924 112.926 99.2846C113.406 99.0768 113.838 98.7728 114.196 98.3913C114.577 98.0333 114.881 97.6009 115.088 97.1209C115.296 96.6408 115.403 96.1232 115.403 95.6001C115.403 95.0769 115.296 94.5593 115.088 94.0793C114.881 93.5992 114.577 93.1668 114.196 92.8088L109.096 87.6251L114.196 82.4413C114.562 82.0748 114.852 81.6396 115.051 81.1607C115.249 80.6818 115.351 80.1684 115.351 79.6501C115.351 79.1317 115.249 78.6184 115.051 78.1394C114.852 77.6605 114.562 77.2254 114.196 76.8588C113.829 76.4923 113.395 76.2015 112.916 76.0031C112.438 75.8047 111.925 75.7026 111.407 75.7026C110.889 75.7026 110.376 75.8047 109.897 76.0031C109.419 76.2015 108.984 76.4923 108.618 76.8588L103.438 81.9628L98.2582 76.8588C97.5185 76.1185 96.5152 75.7026 95.4691 75.7026C94.423 75.7026 93.4198 76.1185 92.6801 76.8588C91.9404 77.5991 91.5248 78.6031 91.5248 79.6501C91.5248 80.697 91.9404 81.701 92.6801 82.4413L97.7801 87.6251L92.6801 92.8088C92.2989 93.1668 91.9951 93.5992 91.7875 94.0793C91.5798 94.5593 91.4727 95.0769 91.4727 95.6001C91.4727 96.1232 91.5798 96.6408 91.7875 97.1209C91.9951 97.6009 92.2989 98.0333 92.6801 98.3913Z" fill="black"/>
<path d="M115.391 111.55H51.6406C50.5839 111.55 49.5705 111.97 48.8232 112.718C48.076 113.466 47.6562 114.48 47.6562 115.537C47.6562 116.595 48.076 117.609 48.8232 118.357C49.5705 119.105 50.5839 119.525 51.6406 119.525H63.5938V131.487C63.5938 134.66 64.8531 137.703 67.0947 139.946C69.3364 142.189 72.3767 143.45 75.5469 143.45C78.717 143.45 81.7574 142.189 83.999 139.946C86.2407 137.703 87.5 134.66 87.5 131.487V119.525H115.391C116.447 119.525 117.461 119.105 118.208 118.357C118.955 117.609 119.375 116.595 119.375 115.537C119.375 114.48 118.955 113.466 118.208 112.718C117.461 111.97 116.447 111.55 115.391 111.55ZM79.5312 131.487C79.5312 132.545 79.1115 133.559 78.3643 134.307C77.617 135.055 76.6036 135.475 75.5469 135.475C74.4902 135.475 73.4767 135.055 72.7295 134.307C71.9823 133.559 71.5625 132.545 71.5625 131.487V119.525H79.5312V131.487Z" fill="black"/>
<path d="M163.203 7.875C159.263 7.875 155.411 9.04432 152.135 11.2351C148.859 13.4258 146.306 16.5396 144.798 20.1828C143.29 23.8259 142.895 27.8346 143.664 31.7021C144.433 35.5696 146.33 39.1221 149.116 41.9104C151.902 44.6988 155.452 46.5976 159.317 47.3669C163.181 48.1362 167.187 47.7414 170.827 46.2323C174.467 44.7233 177.579 42.1679 179.768 38.8892C181.957 35.6105 183.125 31.7558 183.125 27.8125C183.125 22.5247 181.026 17.4536 177.29 13.7146C173.554 9.97555 168.487 7.875 163.203 7.875ZM163.203 39.775C160.839 39.775 158.528 39.0734 156.562 37.759C154.597 36.4445 153.065 34.5762 152.16 32.3904C151.255 30.2045 151.018 27.7992 151.48 25.4787C151.941 23.1582 153.079 21.0267 154.751 19.3537C156.423 17.6807 158.553 16.5414 160.871 16.0799C163.19 15.6183 165.593 15.8552 167.777 16.7606C169.962 17.666 171.828 19.1993 173.142 21.1665C174.455 23.1337 175.156 25.4465 175.156 27.8125C175.156 30.9852 173.897 34.0279 171.655 36.2713C169.414 38.5147 166.373 39.775 163.203 39.775Z" fill="black"/>
<path d="M31.7188 15.8499C31.7188 12.6953 30.784 9.61153 29.0328 6.98857C27.2816 4.3656 24.7925 2.32125 21.8803 1.11403C18.9681 -0.0931868 15.7636 -0.40905 12.672 0.206384C9.58043 0.821819 6.74064 2.34091 4.51174 4.57156C2.28284 6.8022 0.764944 9.64422 0.149992 12.7382C-0.46496 15.8322 -0.149345 19.0392 1.05693 21.9537C2.2632 24.8682 4.30595 27.3592 6.92686 29.1119C9.54777 30.8645 12.6291 31.7999 15.7813 31.7999C20.0081 31.7999 24.0619 30.1195 27.0508 27.1283C30.0396 24.1371 31.7188 20.0801 31.7188 15.8499ZM7.81251 15.8499C7.81251 14.2726 8.27987 12.7307 9.15549 11.4192C10.0311 10.1078 11.2757 9.08558 12.7318 8.48197C14.1878 7.87836 15.7901 7.72043 17.3359 8.02815C18.8817 8.33586 20.3016 9.09541 21.416 10.2107C22.5305 11.3261 23.2894 12.7471 23.5969 14.2941C23.9044 15.8411 23.7466 17.4446 23.1434 18.9018C22.5403 20.3591 21.5189 21.6046 20.2085 22.4809C18.898 23.3572 17.3573 23.8249 15.7813 23.8249C13.6678 23.8249 11.6409 22.9847 10.1465 21.4891C8.65207 19.9935 7.81251 17.965 7.81251 15.8499Z" fill="black"/>
<path d="M27.7344 175.35H23.75V171.362C23.75 170.305 23.3302 169.291 22.583 168.543C21.8358 167.795 20.8223 167.375 19.7656 167.375C18.7089 167.375 17.6955 167.795 16.9482 168.543C16.201 169.291 15.7812 170.305 15.7812 171.362V175.35H11.7969C10.7402 175.35 9.72671 175.77 8.9795 176.518C8.23228 177.266 7.8125 178.28 7.8125 179.337C7.8125 180.395 8.23228 181.409 8.9795 182.157C9.72671 182.905 10.7402 183.325 11.7969 183.325H15.7812V187.312C15.7812 188.37 16.201 189.384 16.9482 190.132C17.6955 190.88 18.7089 191.3 19.7656 191.3C20.8223 191.3 21.8358 190.88 22.583 190.132C23.3302 189.384 23.75 188.37 23.75 187.312V183.325H27.7344C28.7911 183.325 29.8045 182.905 30.5518 182.157C31.299 181.409 31.7188 180.395 31.7188 179.337C31.7188 178.28 31.299 177.266 30.5518 176.518C29.8045 175.77 28.7911 175.35 27.7344 175.35Z" fill="black"/>
</g>
<defs>
<clipPath id="clip0_1794_171">
<rect width="183" height="193" fill="white"/>
</clipPath>
</defs>
</svg>
