<svg width="40" height="40" viewBox="0 0 40 40" fill="none" xmlns="http://www.w3.org/2000/svg">
<path d="M4.81 20.9308C3.47533 20.9308 2.34 20.4799 1.404 19.578C0.468 18.6762 0 17.5812 0 16.293C0 15.0048 0.466667 13.9181 1.4 13.0329C2.33333 12.1477 3.46867 11.7051 4.806 11.7051C6.13933 11.7051 7.27467 12.1502 8.212 13.0406C9.14933 13.9309 9.61733 15.0112 9.616 16.2815C9.616 17.5735 9.14867 18.6711 8.214 19.5742C7.27933 20.4786 6.14467 20.9308 4.81 20.9308ZM2 31.6667V29.3065H38V31.6667H2ZM20.002 20.8905C18.6673 20.8905 17.532 20.4428 16.596 19.5473C15.66 18.6506 15.192 17.562 15.192 16.2815C15.192 15.001 15.6593 13.9117 16.594 13.0137C17.5287 12.1157 18.6633 11.6667 19.998 11.6667C21.3327 11.6667 22.468 12.1144 23.404 13.0099C24.34 13.9066 24.808 14.9952 24.808 16.2757C24.808 17.5562 24.3407 18.6455 23.406 19.5435C22.4713 20.4415 21.3367 20.8905 20.002 20.8905ZM35.194 20.8905C33.8607 20.8905 32.7253 20.4428 31.788 19.5473C30.852 18.6506 30.384 17.562 30.384 16.2815C30.384 14.9997 30.8513 13.9098 31.786 13.0118C32.7207 12.1151 33.8553 11.6667 35.19 11.6667C36.5247 11.6667 37.66 12.1144 38.596 13.0099C39.532 13.9053 40 14.9946 40 16.2776C40 17.5607 39.5333 18.65 38.6 19.5454C37.6667 20.4409 36.5313 20.888 35.194 20.8905Z" fill="black"/>
</svg>
