<svg width="40" height="40" viewBox="0 0 40 40" fill="none" xmlns="http://www.w3.org/2000/svg">
<g clip-path="url(#clip0_2285_9297)">
<path d="M40 31.5909C40 32.1023 39.9053 32.7699 39.7159 33.5938C39.5265 34.4176 39.3277 35.0663 39.1193 35.5398C38.7216 36.4867 37.5663 37.4905 35.6534 38.5511C33.8731 39.517 32.1117 40 30.3693 40C29.858 40 29.3561 39.9669 28.8636 39.9006C28.3712 39.8343 27.8267 39.7159 27.2301 39.5455C26.6335 39.375 26.1884 39.2377 25.8949 39.1335C25.6013 39.0294 25.0758 38.8352 24.3182 38.5511C23.5606 38.267 23.0966 38.0966 22.9261 38.0398C21.0701 37.3769 19.4129 36.5909 17.9545 35.6818C15.5492 34.1856 13.0492 32.1402 10.4545 29.5455C7.85985 26.9508 5.81439 24.4508 4.31818 22.0455C3.40909 20.5871 2.62311 18.9299 1.96023 17.0739C1.90341 16.9034 1.73295 16.4394 1.44886 15.6818C1.16477 14.9242 0.970644 14.3987 0.866477 14.1051C0.762311 13.8116 0.625 13.3665 0.454545 12.7699C0.284091 12.1733 0.16572 11.6288 0.0994318 11.1364C0.0331439 10.6439 0 10.142 0 9.63068C0 7.88826 0.482955 6.12689 1.44886 4.34659C2.50947 2.43371 3.51326 1.27841 4.46023 0.880682C4.93371 0.672349 5.58239 0.473485 6.40625 0.284091C7.23011 0.094697 7.89773 0 8.40909 0C8.67424 0 8.87311 0.0284091 9.00568 0.0852273C9.34659 0.198864 9.84849 0.918561 10.5114 2.24432C10.7197 2.60417 11.0038 3.11553 11.3636 3.77841C11.7235 4.44129 12.0549 5.04261 12.358 5.58239C12.661 6.12216 12.9545 6.62879 13.2386 7.10227C13.2955 7.17803 13.4612 7.41477 13.7358 7.8125C14.0104 8.21023 14.214 8.5464 14.3466 8.82102C14.4792 9.09564 14.5455 9.36553 14.5455 9.63068C14.5455 10.0095 14.2756 10.483 13.7358 11.0511C13.196 11.6193 12.6089 12.1402 11.9744 12.6136C11.34 13.0871 10.7528 13.589 10.2131 14.1193C9.6733 14.6496 9.40341 15.0852 9.40341 15.4261C9.40341 15.5966 9.45076 15.8097 9.54545 16.0653C9.64015 16.321 9.72064 16.5152 9.78693 16.6477C9.85322 16.7803 9.9858 17.0076 10.1847 17.3295C10.3835 17.6515 10.4924 17.8314 10.5114 17.8693C11.9508 20.464 13.5985 22.6894 15.4545 24.5455C17.3106 26.4015 19.536 28.0492 22.1307 29.4886C22.1686 29.5076 22.3485 29.6165 22.6705 29.8153C22.9924 30.0142 23.2197 30.1468 23.3523 30.2131C23.4848 30.2794 23.679 30.3598 23.9347 30.4545C24.1903 30.5492 24.4034 30.5966 24.5739 30.5966C24.9148 30.5966 25.3504 30.3267 25.8807 29.7869C26.411 29.2472 26.9129 28.66 27.3864 28.0256C27.8598 27.3911 28.3807 26.804 28.9489 26.2642C29.517 25.7244 29.9905 25.4545 30.3693 25.4545C30.6345 25.4545 30.9044 25.5208 31.179 25.6534C31.4536 25.786 31.7898 25.9896 32.1875 26.2642C32.5852 26.5388 32.822 26.7045 32.8977 26.7614C33.3712 27.0455 33.8778 27.339 34.4176 27.642C34.9574 27.9451 35.5587 28.2765 36.2216 28.6364C36.8845 28.9962 37.3958 29.2803 37.7557 29.4886C39.0814 30.1515 39.8011 30.6534 39.9148 30.9943C39.9716 31.1269 40 31.3258 40 31.5909Z" fill="#222222"/>
</g>
<defs>
<clipPath id="clip0_2285_9297">
<rect width="40" height="40" fill="white"/>
</clipPath>
</defs>
</svg>
