<svg width="64" height="64" viewBox="0 0 64 64" fill="none" xmlns="http://www.w3.org/2000/svg">
	<path d="M28.7752 3.47287C28.7752 1.55486 30.33 0 32.2481 0C34.1661 0 35.7209 1.55486 35.7209 3.47287V60.5271C35.7209 62.4451 34.1661 64 32.2481 64C30.33 64 28.7752 62.4451 28.7752 60.5271V3.47287Z" fill="#222222" />
	<path d="M60.5271 28.5271C62.4451 28.5271 64 30.082 64 32C64 33.918 62.4451 35.4729 60.5271 35.4729L3.47287 35.4729C1.55486 35.4729 -8.38381e-08 33.918 0 32C8.38399e-08 30.082 1.55486 28.5271 3.47287 28.5271L60.5271 28.5271Z" fill="#222222" />
</svg>
