<svg width="478" height="403" viewBox="0 0 478 403" fill="none" xmlns="http://www.w3.org/2000/svg">
<path d="M90.2981 34.1102C94.7796 32.5869 98.9814 31.8979 102.904 32.0434C106.826 32.1889 110.205 33.2231 113.041 35.1459C115.856 37.0056 117.897 39.7974 119.163 43.5215C120.45 47.3087 120.691 50.7121 119.887 53.7316C119.124 56.6665 117.6 59.2265 115.315 61.4114C113.009 63.5333 110.279 65.3414 107.125 66.8358L109.488 75.961L97.6527 79.9838L92.8878 65.655C96.9452 63.7125 100.002 61.9341 102.059 60.3197C104.157 58.6207 105.454 56.9475 105.95 55.3002C106.51 53.6314 106.478 51.8818 105.856 50.0513C105.255 48.2839 104.372 46.9293 103.207 45.9875C102.105 45.0243 100.721 44.4738 99.0549 44.336C97.3886 44.1983 95.4193 44.5156 93.1469 45.288C89.8647 46.4037 87.5671 48.2408 86.254 50.7996C84.9195 53.2951 84.6106 56.3223 85.3273 59.8809L71.4098 59.3307C71.0516 55.791 71.4533 52.4155 72.6149 49.2041C73.7551 45.9296 75.7618 43.0295 78.6352 40.5037C81.5502 37.8934 85.4378 35.7622 90.2981 34.1102ZM105.868 84.2677C108.33 83.4309 110.512 83.4286 112.414 84.2606C114.317 85.0927 115.643 86.6133 116.394 88.8225C117.167 91.0948 117.052 93.1404 116.051 94.9594C115.028 96.7153 113.286 98.0116 110.825 98.8484C108.363 99.6851 106.192 99.719 104.311 98.9501C102.408 98.118 101.071 96.5658 100.299 94.2935C99.5478 92.0843 99.6729 90.0702 100.674 88.2513C101.675 86.4323 103.407 85.1044 105.868 84.2677Z" fill="black"/>
<path d="M377.287 114.944C385.403 111.76 389.402 102.599 386.218 94.4829C383.034 86.3663 373.873 82.3676 365.757 85.5515C357.64 88.7354 353.642 97.8962 356.825 106.013C360.009 114.129 369.17 118.128 377.287 114.944Z" stroke="black" stroke-width="2" stroke-linecap="round" stroke-linejoin="round"/>
<path d="M376.081 111.869C382.499 109.352 385.661 102.107 383.143 95.6886C380.626 89.2701 373.381 86.1078 366.963 88.6257C360.544 91.1435 357.382 98.3879 359.9 104.806C362.418 111.225 369.662 114.387 376.081 111.869Z" stroke="black" stroke-width="2" stroke-linecap="round" stroke-linejoin="round"/>
<path d="M372.762 103.408C374.508 102.723 375.368 100.753 374.683 99.0072C373.998 97.2615 372.028 96.4014 370.282 97.0862C368.536 97.771 367.676 99.7414 368.361 101.487C369.046 103.233 371.016 104.093 372.762 103.408Z" stroke="black" stroke-width="2" stroke-linecap="round" stroke-linejoin="round"/>
<path d="M368.671 92.981C369.896 92.5012 371.221 92.3384 372.525 92.5078C373.829 92.6772 375.069 93.1733 376.13 93.9501C377.191 94.7268 378.039 95.759 378.594 96.9509C379.15 98.1428 379.395 99.4557 379.308 100.768C379.22 102.08 378.802 103.348 378.093 104.456C377.385 105.563 376.407 106.474 375.253 107.103C374.098 107.731 372.803 108.058 371.488 108.053C370.173 108.048 368.881 107.71 367.731 107.072M394.941 104.571L385.634 80.845L393.347 77.8195C397.794 76.0749 402.749 78.239 404.493 82.6866C406.238 87.1341 404.076 92.0896 399.627 93.835L391.916 96.8597M336.051 100.295L351.473 94.2455M353.068 120.996L343.762 97.2702" stroke="black" stroke-width="2" stroke-linecap="round" stroke-linejoin="round"/>
<path d="M359.363 151.324L352.56 133.98L370.854 146.816L364.051 129.473M397.473 116.362L399.94 135.407L388.802 119.764L391.269 138.808L380.129 123.166M406.914 130.421C408.51 131.296 410.065 131.435 412.015 130.67L414.617 129.65C417.001 128.714 418.188 125.999 417.252 123.612C416.316 121.226 413.6 120.044 411.215 120.979L408.397 122.084C406.012 123.02 403.295 121.834 402.359 119.449C401.424 117.065 402.61 114.347 404.995 113.412L407.596 112.391C409.548 111.626 411.019 111.549 412.698 112.642M371.362 136.612L376.997 134.401M383.434 141.882L374.764 145.283L367.96 127.939L376.631 124.538" stroke="black" stroke-width="2" stroke-linecap="round" stroke-linejoin="round"/>
<path d="M400.903 230.923C403.128 230.172 405.531 231.362 406.282 233.588C407.033 235.813 405.844 238.216 403.619 238.967C401.394 239.718 398.991 238.528 398.24 236.303C397.489 234.077 398.678 231.674 400.903 230.923ZM420.643 245.168C422.868 244.417 425.27 245.607 426.022 247.832C426.773 250.058 425.583 252.461 423.358 253.212C421.133 253.963 418.731 252.773 417.98 250.547C417.228 248.322 418.418 245.919 420.643 245.168ZM407.033 258.723L401.977 256.218L417.229 225.412L422.285 227.917L407.033 258.723ZM421.675 211.515L426.804 221.313L437.834 222.936L436.257 233.923L444.197 241.697L436.327 249.7L438.186 260.602L427.206 262.486L422.288 272.42L412.292 267.402L402.524 272.611L397.341 262.742L386.374 261.127L387.977 250.132L380.092 242.429L387.863 234.4L386.04 223.605L396.984 221.792L401.898 211.755L411.799 216.671L421.675 211.515ZM431.464 227.685L423.254 226.365L419.298 219.068L411.904 222.819L404.437 219.276L400.645 226.62L392.491 228.118L393.766 236.32L388.037 242.346L393.902 248.221L392.798 256.45L401.008 257.77L404.964 265.067L412.358 261.316L419.825 264.859L423.617 257.515L431.771 256.017L430.495 247.815L436.225 241.789L430.359 235.914L431.464 227.685Z" fill="black"/>
<path fill-rule="evenodd" clip-rule="evenodd" d="M14.5721 305.978C12.3359 308.383 10.5952 311.204 9.44923 314.281C8.30332 317.358 7.77469 320.631 7.89353 323.912C8.01237 327.193 8.77635 330.419 10.1419 333.405C11.5074 336.391 13.4476 339.079 15.8519 341.315C18.2562 343.551 21.0774 345.292 24.1544 346.438C27.2315 347.584 30.5041 348.113 33.7854 347.994C37.0667 347.875 40.2925 347.111 43.2786 345.745C46.2647 344.38 48.9525 342.44 51.1888 340.035C55.5691 335.159 57.8587 328.757 57.5645 322.208C57.2704 315.659 54.4159 309.488 49.616 305.024C44.8161 300.56 38.4547 298.159 31.902 298.339C25.3493 298.52 19.1296 301.266 14.5825 305.988L14.5721 305.978ZM47.523 336.626C45.743 338.583 43.5925 340.167 41.1961 341.287C38.7996 342.407 36.2048 343.041 33.5618 343.151C30.9189 343.261 28.2803 342.846 25.7988 341.93C23.3174 341.013 21.0424 339.614 19.1056 337.812C17.1688 336.01 15.6086 333.842 14.5155 331.433C13.4224 329.024 12.8179 326.423 12.7372 323.779C12.6565 321.134 13.1011 318.501 14.0453 316.03C14.9895 313.559 16.4145 311.299 18.2378 309.383C21.8671 305.568 26.8546 303.338 32.1177 303.178C37.3808 303.017 42.4949 304.938 46.3502 308.525C50.2055 312.111 52.491 317.073 52.7105 322.334C52.9301 327.595 51.066 332.731 47.523 336.626Z" fill="black"/>
<path d="M47.7822 343.796C46.8114 342.892 46.2392 341.64 46.1917 340.314C46.1441 338.989 46.6251 337.699 47.5288 336.728C48.4324 335.757 49.6847 335.185 51.0102 335.137C52.3357 335.09 53.6258 335.571 54.5967 336.474L69.2394 350.098C69.7333 350.542 70.134 351.08 70.4179 351.68C70.7019 352.28 70.8635 352.931 70.8933 353.594C70.923 354.257 70.8205 354.92 70.5915 355.543C70.3625 356.166 70.0116 356.737 69.5595 357.223C69.1073 357.71 68.5628 358.101 67.9579 358.374C67.3529 358.648 66.6995 358.798 66.0358 358.816C65.3722 358.835 64.7115 358.72 64.0924 358.481C63.4733 358.241 62.9081 357.88 62.4299 357.42L47.7822 343.796Z" fill="black"/>
<path d="M101.212 320.41L122.613 132.121C123.013 128.588 124.106 125.168 125.828 122.057C127.551 118.946 129.869 116.205 132.651 113.99C135.433 111.775 138.624 110.13 142.041 109.149C145.459 108.168 149.037 107.869 152.57 108.271L313.969 126.632C321.103 127.444 327.622 131.056 332.092 136.674C336.563 142.292 338.618 149.456 337.807 156.59L316.405 344.879C316.005 348.412 314.912 351.832 313.19 354.943C311.468 358.054 309.15 360.795 306.368 363.01C303.586 365.225 300.395 366.87 296.977 367.851C293.559 368.832 289.981 369.131 286.448 368.729L125.049 350.368C117.915 349.557 111.396 345.944 106.926 340.326C102.456 334.708 100.4 327.544 101.212 320.41Z" stroke="black" stroke-width="5"/>
<path d="M173.354 165.133L280.957 177.36M167.234 218.929L274.838 231.169M161.126 272.723L228.374 280.377" stroke="black" stroke-width="5" stroke-linecap="round"/>
<circle cx="372.5" cy="304.5" r="4.5" stroke="black" stroke-width="2"/>
<circle cx="72.5" cy="251.5" r="8.5" stroke="black" stroke-width="2"/>
</svg>
