<svg width="81" height="81" viewBox="0 0 81 81" fill="none" xmlns="http://www.w3.org/2000/svg">
<g clip-path="url(#clip0_1777_80)">
<path d="M37.9687 70.8751C37.9687 70.2037 38.2354 69.5599 38.7101 69.0852C39.1848 68.6105 39.8287 68.3438 40.5 68.3438C46.8666 68.3439 53.0409 66.1622 57.9941 62.1622C62.9472 58.1622 66.38 52.5856 67.7202 46.3616C69.0605 40.1377 68.2274 33.6425 65.3596 27.9583C62.4919 22.2741 57.7628 17.7444 51.9605 15.124C46.1581 12.5037 39.633 11.9509 33.4726 13.5579C27.3121 15.1648 21.8884 18.8344 18.1054 23.9552C14.3223 29.0759 12.4084 35.3385 12.6826 41.6992C12.9567 48.0598 15.4024 54.1345 19.6121 58.9107V50.0108C19.6121 49.3395 19.8788 48.6957 20.3535 48.221C20.8282 47.7462 21.472 47.4796 22.1434 47.4796C22.8147 47.4796 23.4585 47.7462 23.9332 48.221C24.4079 48.6957 24.6746 49.3395 24.6746 50.0108V64.3309C24.6746 64.6636 24.609 64.9931 24.4816 65.3004C24.3542 65.6077 24.1674 65.8869 23.932 66.122C23.6966 66.3571 23.4172 66.5435 23.1097 66.6705C22.8022 66.7975 22.4727 66.8626 22.14 66.8622H7.82324C7.15191 66.8622 6.50808 66.5955 6.03338 66.1208C5.55868 65.6461 5.29199 65.0023 5.29199 64.3309C5.29199 63.6596 5.55868 63.0158 6.03338 62.5411C6.50808 62.0664 7.15191 61.7997 7.82324 61.7997H15.417C10.5645 56.0837 7.80955 48.882 7.60827 41.3868C7.40699 33.8916 9.77144 26.5524 14.3102 20.5842C18.8489 14.6161 25.2897 10.3769 32.5663 8.56858C39.8429 6.76023 47.5188 7.49112 54.3234 10.6403C61.1279 13.7894 66.6529 19.1679 69.9838 25.8854C73.3146 32.6029 74.2514 40.2564 72.6392 47.579C71.027 54.9015 66.9624 61.4539 61.1184 66.1513C55.2743 70.8488 48.0013 73.4095 40.5034 73.4097C40.1704 73.4101 39.8406 73.3449 39.5329 73.2177C39.2252 73.0904 38.9456 72.9038 38.7101 72.6683C38.4747 72.4329 38.288 72.1533 38.1608 71.8456C38.0336 71.5378 37.9683 71.208 37.9687 70.8751ZM47.6719 54.6278L38.7045 45.6672C38.2301 45.1913 37.9632 44.547 37.962 43.8751V26.3251C37.962 25.6537 38.2287 25.0099 38.7034 24.5352C39.1781 24.0605 39.8219 23.7938 40.4932 23.7938C41.1646 23.7938 41.8084 24.0605 42.2831 24.5352C42.7578 25.0099 43.0245 25.6537 43.0245 26.3251V42.8254L51.246 51.0469C51.4876 51.2806 51.6803 51.56 51.8129 51.8688C51.9454 52.1777 52.015 52.5099 52.0178 52.846C52.0206 53.1821 51.9564 53.5154 51.8289 53.8264C51.7015 54.1374 51.5134 54.42 51.2757 54.6575C51.0379 54.8951 50.7552 55.0829 50.444 55.21C50.1329 55.3371 49.7995 55.401 49.4635 55.3979C49.1274 55.3949 48.7952 55.3249 48.4865 55.1921C48.1777 55.0593 47.8985 54.8663 47.6651 54.6244L47.6719 54.6278Z" fill="black"/>
</g>
<defs>
<clipPath id="clip0_1777_80">
<rect width="81" height="81" fill="white"/>
</clipPath>
</defs>
</svg>
