<svg width="40" height="40" viewBox="0 0 40 40" fill="none" xmlns="http://www.w3.org/2000/svg">
<path d="M10 9.99998H6.6664C6.22444 9.99998 5.80059 10.1755 5.48808 10.4881C5.17557 10.8006 5 11.2244 5 11.6664V28.3336C5 28.7755 5.17557 29.1994 5.48808 29.5119C5.80059 29.8244 6.22444 30 6.6664 30H23.3336M23.3336 30L20 26.6664M23.3336 30L20 33.3336M30 30H33.3336C33.7756 30 34.1994 29.8244 34.5119 29.5119C34.8244 29.1994 35 28.7755 35 28.3336V11.6664C35 11.2244 34.8244 10.8006 34.5119 10.4881C34.1994 10.1755 33.7756 9.99998 33.3336 9.99998H16.6664M16.6664 9.99998L20 13.3336M16.6664 9.99998L20 6.66638" stroke="#222222" stroke-width="2" stroke-linecap="round" stroke-linejoin="round"/>
</svg>
