<svg width="40" height="40" viewBox="0 0 40 40" fill="none" xmlns="http://www.w3.org/2000/svg">
<path d="M17.0234 8.27344L26.6172 17.8672C27.1797 18.4297 27.5 19.2031 27.5 20C27.5 20.7969 27.1797 21.5703 26.6172 22.1328L17.0234 31.7266C16.5234 32.2266 15.8516 32.5 15.1484 32.5C13.6875 32.5 12.5 31.3125 12.5 29.8516V25H2.5C1.11719 25 0 23.8828 0 22.5V17.5C0 16.1172 1.11719 15 2.5 15H12.5V10.1484C12.5 8.6875 13.6875 7.5 15.1484 7.5C15.8516 7.5 16.5234 7.78125 17.0234 8.27344ZM27.5 32.5H32.5C33.8828 32.5 35 31.3828 35 30V10C35 8.61719 33.8828 7.5 32.5 7.5H27.5C26.1172 7.5 25 6.38281 25 5C25 3.61719 26.1172 2.5 27.5 2.5H32.5C36.6406 2.5 40 5.85938 40 10V30C40 34.1406 36.6406 37.5 32.5 37.5H27.5C26.1172 37.5 25 36.3828 25 35C25 33.6172 26.1172 32.5 27.5 32.5Z" fill="#222222"/>
</svg>
