<svg width="150" height="150" viewBox="0 0 150 150" fill="none" xmlns="http://www.w3.org/2000/svg">
	<path d="M149.786 57.79C149.269 56.1989 147.894 55.0396 146.239 54.7991L99.7381 48.0418L78.9421 5.90507C78.2017 4.40508 76.6742 3.45557 75.0013 3.45557C73.3288 3.45557 71.801 4.40537 71.0606 5.90507L50.2634 48.0421L3.76378 54.7991C2.10851 55.0396 0.733316 56.1992 0.21652 57.79C-0.300569 59.3809 0.130681 61.1272 1.32833 62.2947L34.9751 95.094L27.0334 141.407C26.7507 143.056 27.4286 144.722 28.7818 145.705C30.1347 146.688 31.9283 146.818 33.4098 146.04L75.0011 124.174L116.591 146.04C117.234 146.378 117.936 146.545 118.636 146.545C119.547 146.545 120.454 146.262 121.219 145.705C122.572 144.722 123.25 143.056 122.968 141.407L115.023 95.094L148.674 62.295C149.872 61.1272 150.303 59.3809 149.786 57.79ZM107.234 90.4126C106.198 91.4222 105.726 92.8771 105.97 94.3027L112.8 134.116L77.0465 115.319C75.7663 114.646 74.2367 114.646 72.9564 115.319L37.2011 134.117L44.0285 94.3024C44.2728 92.8768 43.8002 91.4225 42.7649 90.4129L13.8398 62.2165L53.8139 56.4072C55.2453 56.1992 56.4822 55.3004 57.1227 54.0034L75.0011 17.7791L92.8789 54.0031C93.5193 55.3001 94.7562 56.1992 96.1876 56.4072L136.162 62.2162L107.234 90.4126Z" fill="#FEB954" />
</svg>
