<svg width="16" height="18" viewBox="0 0 16 18" fill="none" xmlns="http://www.w3.org/2000/svg">
	<path d="M5.81818 7.125V13.875C5.81818 13.9844 5.78409 14.0742 5.71591 14.1445C5.64773 14.2148 5.56061 14.25 5.45455 14.25H4.72727C4.62121 14.25 4.53409 14.2148 4.46591 14.1445C4.39773 14.0742 4.36364 13.9844 4.36364 13.875V7.125C4.36364 7.01562 4.39773 6.92578 4.46591 6.85547C4.53409 6.78516 4.62121 6.75 4.72727 6.75H5.45455C5.56061 6.75 5.64773 6.78516 5.71591 6.85547C5.78409 6.92578 5.81818 7.01562 5.81818 7.125ZM8.72727 7.125V13.875C8.72727 13.9844 8.69318 14.0742 8.625 14.1445C8.55682 14.2148 8.4697 14.25 8.36364 14.25H7.63636C7.5303 14.25 7.44318 14.2148 7.375 14.1445C7.30682 14.0742 7.27273 13.9844 7.27273 13.875V7.125C7.27273 7.01562 7.30682 6.92578 7.375 6.85547C7.44318 6.78516 7.5303 6.75 7.63636 6.75H8.36364C8.4697 6.75 8.55682 6.78516 8.625 6.85547C8.69318 6.92578 8.72727 7.01562 8.72727 7.125ZM11.6364 7.125V13.875C11.6364 13.9844 11.6023 14.0742 11.5341 14.1445C11.4659 14.2148 11.3788 14.25 11.2727 14.25H10.5455C10.4394 14.25 10.3523 14.2148 10.2841 14.1445C10.2159 14.0742 10.1818 13.9844 10.1818 13.875V7.125C10.1818 7.01562 10.2159 6.92578 10.2841 6.85547C10.3523 6.78516 10.4394 6.75 10.5455 6.75H11.2727C11.3788 6.75 11.4659 6.78516 11.5341 6.85547C11.6023 6.92578 11.6364 7.01562 11.6364 7.125ZM13.0909 15.6094V4.5H2.90909V15.6094C2.90909 15.7812 2.93561 15.9395 2.98864 16.084C3.04167 16.2285 3.09659 16.334 3.15341 16.4004C3.21023 16.4668 3.25 16.5 3.27273 16.5H12.7273C12.75 16.5 12.7898 16.4668 12.8466 16.4004C12.9034 16.334 12.9583 16.2285 13.0114 16.084C13.0644 15.9395 13.0909 15.7812 13.0909 15.6094ZM5.45455 3H10.5455L10 1.62891C9.94697 1.55859 9.88258 1.51562 9.80682 1.5H6.20455C6.12879 1.51562 6.06439 1.55859 6.01136 1.62891L5.45455 3ZM16 3.375V4.125C16 4.23438 15.9659 4.32422 15.8977 4.39453C15.8295 4.46484 15.7424 4.5 15.6364 4.5H14.5455V15.6094C14.5455 16.2578 14.3674 16.8184 14.0114 17.291C13.6553 17.7637 13.2273 18 12.7273 18H3.27273C2.77273 18 2.3447 17.7715 1.98864 17.3145C1.63258 16.8574 1.45455 16.3047 1.45455 15.6562V4.5H0.363636C0.257576 4.5 0.170455 4.46484 0.102273 4.39453C0.0340909 4.32422 0 4.23438 0 4.125V3.375C0 3.26562 0.0340909 3.17578 0.102273 3.10547C0.170455 3.03516 0.257576 3 0.363636 3H3.875L4.67045 1.04297C4.78409 0.753906 4.98864 0.507812 5.28409 0.304688C5.57955 0.101562 5.87879 0 6.18182 0H9.81818C10.1212 0 10.4205 0.101562 10.7159 0.304688C11.0114 0.507812 11.2159 0.753906 11.3295 1.04297L12.125 3H15.6364C15.7424 3 15.8295 3.03516 15.8977 3.10547C15.9659 3.17578 16 3.26562 16 3.375Z" fill="#222222" />
</svg>
